<svg xmlns="http://www.w3.org/2000/svg" xmlns:xlink="http://www.w3.org/1999/xlink" width="103" height="103" viewBox="0 0 103 103">
  <defs>
    <filter id="Path_978624" x="0" y="0" width="103" height="103" filterUnits="userSpaceOnUse">
      <feOffset dy="3" input="SourceAlpha"/>
      <feGaussianBlur stdDeviation="3" result="blur"/>
      <feFlood flood-opacity="0.161"/>
      <feComposite operator="in" in2="blur"/>
      <feComposite in="SourceGraphic"/>
    </filter>
  </defs>
  <g id="Group_1181717" data-name="Group 1181717" transform="translate(-185 -19028)">
    <g id="Group_1181676" data-name="Group 1181676">
      <g id="Group_1181504" data-name="Group 1181504" transform="translate(14 16162)">
        <g id="Group_1176881" data-name="Group 1176881">
          <g id="Group_1175148" data-name="Group 1175148" transform="translate(0 1580)">
            <g id="Group_1173798" data-name="Group 1173798" transform="translate(-3 -3520)">
              <g id="Group_1171925" data-name="Group 1171925" transform="translate(-22 -2246)">
                <g id="Group_1164524" data-name="Group 1164524" transform="translate(205 7058)">
                  <g id="Group_1144123" data-name="Group 1144123">
                    <g transform="matrix(1, 0, 0, 1, -9, -6)" filter="url(#Path_978624)">
                      <g id="Path_978624-2" data-name="Path 978624" transform="translate(9 6)" fill="#e5ebfb">
                        <path d="M 42.5 83.5 C 36.96437835693359 83.5 31.59512901306152 82.41617584228516 26.54141235351562 80.27863311767578 C 21.65934181213379 78.21369171142578 17.27447128295898 75.25723266601562 13.50862312316895 71.49137878417969 C 9.742764472961426 67.72553253173828 6.786305904388428 63.34066009521484 4.721364498138428 58.45858764648438 C 2.583823442459106 53.40486907958984 1.5 48.03562164306641 1.5 42.5 C 1.5 36.96437835693359 2.583823442459106 31.59512901306152 4.721364498138428 26.54141235351562 C 6.786305904388428 21.65934181213379 9.742764472961426 17.27447128295898 13.50862312316895 13.50862312316895 C 17.27447128295898 9.742764472961426 21.65934181213379 6.786305904388428 26.54141235351562 4.721364498138428 C 31.59512901306152 2.583823442459106 36.96437835693359 1.5 42.5 1.5 C 48.03562164306641 1.5 53.40486907958984 2.583823442459106 58.45858764648438 4.721364498138428 C 63.34066009521484 6.786305904388428 67.72553253173828 9.742764472961426 71.49137878417969 13.50862312316895 C 75.25723266601562 17.27447128295898 78.21369171142578 21.65934181213379 80.27863311767578 26.54141235351562 C 82.41617584228516 31.59512901306152 83.5 36.96437835693359 83.5 42.5 C 83.5 48.03562164306641 82.41617584228516 53.40486907958984 80.27863311767578 58.45858764648438 C 78.21369171142578 63.34066009521484 75.25723266601562 67.72553253173828 71.49137878417969 71.49137878417969 C 67.72553253173828 75.25723266601562 63.34066009521484 78.21369171142578 58.45858764648438 80.27863311767578 C 53.40486907958984 82.41617584228516 48.03562164306641 83.5 42.5 83.5 Z" stroke="none"/>
                        <path d="M 42.5 3 C 37.16621398925781 3 31.99356079101562 4.043960571289062 27.125732421875 6.102882385253906 C 22.42246627807617 8.092185974121094 18.19785308837891 10.94070434570312 14.56928253173828 14.56928253173828 C 10.94070434570312 18.19785308837891 8.092185974121094 22.42246627807617 6.102882385253906 27.125732421875 C 4.043960571289062 31.99356079101562 3 37.16621398925781 3 42.5 C 3 47.83378601074219 4.043960571289062 53.00643920898438 6.102882385253906 57.87425231933594 C 8.092185974121094 62.57753372192383 10.94070434570312 66.80213165283203 14.56928253173828 70.43071746826172 C 18.19786834716797 74.05929565429688 22.42246627807617 76.90781402587891 27.125732421875 78.89711761474609 C 31.99356079101562 80.95603942871094 37.16621398925781 82 42.5 82 C 47.83378601074219 82 53.00642395019531 80.95603942871094 57.87425231933594 78.89711761474609 C 62.57753372192383 76.90781402587891 66.80213165283203 74.05929565429688 70.43071746826172 70.43071746826172 C 74.05929565429688 66.80213165283203 76.90781402587891 62.57753372192383 78.89711761474609 57.87425231933594 C 80.95603942871094 53.00642395019531 82 47.83378601074219 82 42.5 C 82 37.16621398925781 80.95603942871094 31.99356079101562 78.89711761474609 27.125732421875 C 76.90781402587891 22.42246627807617 74.05929565429688 18.19786834716797 70.43071746826172 14.56928253173828 C 66.80213165283203 10.94070434570312 62.57753372192383 8.092185974121094 57.87425231933594 6.102882385253906 C 53.00643920898438 4.043960571289062 47.83378601074219 3 42.5 3 M 42.5 0 C 65.97209167480469 0 85 19.02789306640625 85 42.5 C 85 65.97209167480469 65.97209167480469 85 42.5 85 C 19.02789306640625 85 0 65.97209167480469 0 42.5 C 0 19.02789306640625 19.02789306640625 0 42.5 0 Z" stroke="none" fill="#11f5d8"/>
                      </g>
                    </g>
                  </g>
                </g>
              </g>
            </g>
          </g>
        </g>
      </g>
      <g id="Layer_x0020_1" transform="translate(61.877 18864.082)">
        <path id="Path_1043815" data-name="Path 1043815" d="M201.583,223.561h-1.522v5.018c1,0,2.169-.227,2.169.647v6.96a.649.649,0,0,1-.647.647H147.647a.649.649,0,0,1-.647-.647v-6.96c0-.874,1.165-.647,2.169-.647V196.917a.649.649,0,0,1,.647-.647h8.417v-.518c-2.849-.939-2.331-2.04-1.683-2.169,1.068-.259,2.363-1.651,3.335-3.043-1-.129-1.36.421-1.813-.1a.684.684,0,0,1-.065-.745c2.007-3.464,7.737-5.471,12.367-5.665,4.6-.227,8.126,1.748,9.939,5.5a13.163,13.163,0,0,1,1.1,6.734h3.237l.1-.13a8.189,8.189,0,0,1,0-3.076L182.9,190.9a.7.7,0,0,1-.065-.745l.971-1.683a.707.707,0,0,1,.68-.324l2.817.518a7.772,7.772,0,0,1,2.655-1.522l.971-2.687a.654.654,0,0,1,.583-.453h1.942a.662.662,0,0,1,.615.453l.971,2.687a7.772,7.772,0,0,1,2.655,1.522l2.817-.518a.737.737,0,0,1,.68.324l.971,1.683a.7.7,0,0,1-.065.745l-1.845,2.169a8.189,8.189,0,0,1,0,3.076l1.845,2.169a.7.7,0,0,1,.065.745c-1.2,2.072-1,2.1-2.1,1.91v9.453c1,0,2.169-.227,2.169.647v11.849A.649.649,0,0,1,201.583,223.561Zm-2.169,6.313H183.13v2.817a.649.649,0,0,1-.647.647H166.748a.649.649,0,0,1-.647-.647v-2.817H148.295v5.666h52.641v-5.666Zm-.647-6.313H186.756v5.018h12.011Zm-46.3,5.018V221.3a8.6,8.6,0,0,1,8.579-8.612h2.428l.647-2.266c-2.946-2.007-4.371-5.633-4.306-9.68-.939-.453-1.327-1.845-1.489-3.173h-7.867v31.015Zm28.716-31.015a6.1,6.1,0,0,1-1.619,2.978c.129,4.209-1.327,8-4.468,10l.615,2.137a14.876,14.876,0,0,1,5.342.518v-2.137a.649.649,0,0,1,.647-.647h17.061v-9.68l-1.068-.194a7.771,7.771,0,0,1-2.655,1.522l-.971,2.719a.633.633,0,0,1-.615.421h-1.942a.593.593,0,0,1-.583-.421l-.971-2.719a7.771,7.771,0,0,1-2.655-1.522l-2.817.518a.707.707,0,0,1-.68-.324c-1.327-2.331-1.392-1.845-.259-3.173Zm-21.626-.777.032.162a6.409,6.409,0,0,0,.583,2.428,15.483,15.483,0,0,0,1.068-3.043c-.647-.065-1.2-.129-1.716-.227A4.783,4.783,0,0,1,159.561,196.788Zm39.853,14.925H182.353v10.554h18.583V211.712Zm.032-12.173.842.162.518-.874c-2.784-3.3-1.716-1.651-1.716-4.209,0-2.59-1.068-.906,1.716-4.209l-.518-.874-2.687.453c-.745.162-.906-1-3.237-1.683a.679.679,0,0,1-.421-.421L193,185.327h-1.036l-.906,2.558c-.259.68-1.392.291-3.108,1.942a.736.736,0,0,1-.583.162l-2.687-.486-.486.906c2.784,3.3,1.683,1.619,1.683,4.209,0,2.558,1.1.874-1.683,4.176l.486.906,2.687-.486c.745-.129.906,1.036,3.27,1.716a.632.632,0,0,1,.421.388l.906,2.59H193l.939-2.558c.259-.712,1.392-.291,3.108-1.975a.664.664,0,0,1,.55-.162Zm-17.612,30.335H167.4v2.169h14.439Zm-16.673-20.331c.032.032.1.065.129.1a9.093,9.093,0,0,0,4.435,1.133c5.666,0,8.676-4.468,8.547-10.166-1.586-1.2-2.072-4.144-2.007-6.216-3.788,1.489-10.166,2.072-13.727,2.007a16.01,16.01,0,0,1-1.392,4.014,10.764,10.764,0,0,0,2.46,7.867A6.485,6.485,0,0,0,165.162,209.543Zm.129,1.554-.55,1.975,4.856,3.173,4.856-3.173-.518-1.91A10.457,10.457,0,0,1,165.292,211.1Zm11.752-18.389a.665.665,0,0,1,.648.777c-.324,1.489-.065,4.694,1.165,5.924,2.719-3.076,1.878-14.536-8.417-14.083-3.626.162-8.191,1.554-10.457,3.917,1,.129,1.716.842,1.327,1.424a12.014,12.014,0,0,1-3.27,3.626,12.243,12.243,0,0,0,5.018.809c4.532,0,10.684-.809,13.694-2.331A.945.945,0,0,1,177.043,192.709Zm8.417,30.853h-3.755a.649.649,0,0,1-.647-.647v-8.32a10.362,10.362,0,0,0-4.759-.615c.486.939,1.133,1.716.647,2.2l-4.306,4.241c-.324.324-.712.227-1.036-.129l-.291.712,1.36,7.576h6.7v-3.529a.648.648,0,0,1,1.295,0v3.529h4.791Zm-10.489-9.291-4.4,2.881,1.651,1.878,3.464-3.432Zm-6.345,2.881-4.4-2.881-.712,1.327,3.464,3.4Zm-5.73-3.173H161.05a7.3,7.3,0,0,0-7.284,7.317v7.284h4.759v-3.529a.648.648,0,0,1,1.295,0v3.529h6.7l1.36-7.576-.291-.712a.721.721,0,0,1-.55.291.527.527,0,0,1-.486-.162l-4.306-4.241C161.763,215.694,162.378,214.918,162.9,213.979Zm4.953,14.6h3.5l-1.263-6.993h-.971Zm1.748-10.586-1.068,1.23.453,1.068h1.23l.453-1.068Zm22.889-18.81a4.581,4.581,0,1,1,4.6-4.565A4.587,4.587,0,0,1,192.486,199.184Zm0-7.867a3.286,3.286,0,1,0,3.3,3.3A3.316,3.316,0,0,0,192.486,191.317Zm-4.759,28.91a.651.651,0,0,1-.421-.129l-3.173-2.622a.626.626,0,0,1,0-.971l3.173-2.59c.68-.55,1.489.453.842.971l-2.558,2.1,2.558,2.1A.642.642,0,0,1,187.727,220.227Zm7.867,0a.636.636,0,0,1-.421-1.133l2.558-2.1-2.558-2.1c-.68-.518.162-1.522.809-1l3.173,2.59a.64.64,0,0,1,0,1l-3.173,2.59A.472.472,0,0,1,195.594,220.227Zm-4.759.421a.641.641,0,0,1-.615-.809l1.619-6.022a.652.652,0,0,1,1.263.324l-1.619,6.054A.66.66,0,0,1,190.835,220.648Z" fill-rule="evenodd"/>
        <path id="Path_1043816" data-name="Path 1043816" d="M791.439,1601H777v2.169h14.439Z" transform="translate(-609.604 -1371.125)" fill="#e6e6e6" fill-rule="evenodd"/>
        <path id="Path_1043817" data-name="Path 1043817" d="M899.36,1124.343h6.7v-3.529a.648.648,0,0,1,1.295,0v3.529h4.791v-5.018h-3.755a.649.649,0,0,1-.647-.648v-8.32a10.362,10.362,0,0,0-4.759-.615c.486.939,1.133,1.716.648,2.2l-4.306,4.241c-.324.324-.712.226-1.036-.13l-.291.712Z" transform="translate(-726.687 -895.763)" fill="#1d81ce" fill-rule="evenodd"/>
        <path id="Path_1043818" data-name="Path 1043818" d="M221.835,1601v2.817a.649.649,0,0,1-.647.648H205.453a.649.649,0,0,1-.647-.648V1601H187v5.666h52.641V1601H221.835Z" transform="translate(-38.705 -1371.125)" fill="#25738b" fill-rule="evenodd"/>
        <path id="Path_1043819" data-name="Path 1043819" d="M1375,1411.018h12.011V1406H1375Z" transform="translate(-1188.244 -1182.439)" fill="#c2c2f6" fill-rule="evenodd"/>
        <path id="Path_1043820" data-name="Path 1043820" d="M794.5,1351.993,793.234,1345h-.971L791,1351.993Z" transform="translate(-623.151 -1123.413)" fill="#ffa721" fill-rule="evenodd"/>
        <path id="Path_1043821" data-name="Path 1043821" d="M812.453,1236.3h1.23l.453-1.068-1.068-1.23L812,1235.23Z" transform="translate(-643.471 -1016.007)" fill="#ffa721" fill-rule="evenodd"/>
        <path id="Path_1043822" data-name="Path 1043822" d="M875,1121.881l1.651,1.878,3.464-3.432L879.4,1119Z" transform="translate(-704.431 -904.73)" fill="#1d81ce" fill-rule="evenodd"/>
        <path id="Path_1043823" data-name="Path 1043823" d="M662.115,1121.881l-4.4-2.881-.712,1.327,3.464,3.4Z" transform="translate(-493.489 -904.73)" fill="#1d81ce" fill-rule="evenodd"/>
        <path id="Path_1043824" data-name="Path 1043824" d="M695,1022.975l4.856,3.173,4.856-3.173-.518-1.91a10.458,10.458,0,0,1-8.644-.065Z" transform="translate(-530.259 -809.903)" fill="#ffc06d" fill-rule="evenodd"/>
        <path id="Path_1043825" data-name="Path 1043825" d="M587.768,520.248a9.094,9.094,0,0,0,4.435,1.133c5.666,0,8.676-4.468,8.547-10.166-1.586-1.2-2.072-4.144-2.007-6.216-3.788,1.489-10.166,2.072-13.727,2.007a16.015,16.015,0,0,1-1.392,4.014,10.764,10.764,0,0,0,2.46,7.867,6.485,6.485,0,0,0,1.554,1.263C587.671,520.184,587.736,520.216,587.768,520.248Z" transform="translate(-422.477 -310.608)" fill="#ffc06d" fill-rule="evenodd"/>
        <path id="Path_1043826" data-name="Path 1043826" d="M364.482,1112.2c-.486-.486.13-1.263.648-2.2h-1.845a7.3,7.3,0,0,0-7.284,7.317v7.284h4.759v-3.529a.648.648,0,0,1,1.295,0v3.529h6.7l1.36-7.576-.291-.712a.721.721,0,0,1-.55.292.527.527,0,0,1-.486-.162Z" transform="translate(-202.234 -896.021)" fill="#1d81ce" fill-rule="evenodd"/>
        <path id="Path_1043827" data-name="Path 1043827" d="M256.007,626.73a8.6,8.6,0,0,1,8.579-8.612h2.428l.648-2.266c-2.946-2.007-4.371-5.633-4.306-9.68-.939-.453-1.327-1.845-1.489-3.173H254v31.015h2.007Z" transform="translate(-103.536 -405.435)" fill="#c2c2f6" fill-rule="evenodd"/>
        <path id="Path_1043828" data-name="Path 1043828" d="M534.065,558.842a6.409,6.409,0,0,0,.583,2.428,15.477,15.477,0,0,0,1.068-3.043c-.647-.065-1.2-.13-1.716-.227a4.785,4.785,0,0,1,.032.68Z" transform="translate(-374.471 -361.892)" fill="#a98356" fill-rule="evenodd"/>
        <path id="Path_1043829" data-name="Path 1043829" d="M488,233.577a12.243,12.243,0,0,0,5.018.809c4.532,0,10.684-.809,13.694-2.331a.945.945,0,0,1,.291-.065.665.665,0,0,1,.647.777c-.324,1.489-.065,4.694,1.166,5.924,2.719-3.076,1.878-14.536-8.417-14.083-3.626.162-8.191,1.554-10.457,3.917,1,.129,1.716.842,1.327,1.424A12.014,12.014,0,0,1,488,233.577Z" transform="translate(-329.96 -39.282)" fill="#a98356" fill-rule="evenodd"/>
        <path id="Path_1043830" data-name="Path 1043830" d="M1019.468,605.978c.13,4.209-1.327,8-4.468,10l.615,2.137a14.878,14.878,0,0,1,5.342.518V616.5a.649.649,0,0,1,.647-.648h17.061v-9.68l-1.068-.194a7.769,7.769,0,0,1-2.655,1.522l-.971,2.719a.633.633,0,0,1-.615.421h-1.942a.592.592,0,0,1-.583-.421l-.971-2.719a7.769,7.769,0,0,1-2.655-1.522l-2.817.518a.707.707,0,0,1-.68-.324c-1.327-2.331-1.392-1.845-.259-3.173h-2.363A6.1,6.1,0,0,1,1019.468,605.978Z" transform="translate(-839.899 -405.435)" fill="#c2c2f6" fill-rule="evenodd"/>
        <path id="Path_1043831" data-name="Path 1043831" d="M1256.061,1040H1239v10.554h18.583V1040Zm-13.824,5.277,2.558,2.1a.642.642,0,0,1-.421,1.133.65.65,0,0,1-.421-.129l-3.173-2.622a.626.626,0,0,1,0-.971l3.173-2.59c.68-.55,1.489.453.842.971Zm4.63,2.849,1.619-6.022a.652.652,0,0,1,1.262.324l-1.619,6.054a.66.66,0,0,1-.648.453A.641.641,0,0,1,1246.867,1048.126Zm5.374.388a.636.636,0,0,1-.421-1.133l2.558-2.1-2.558-2.1c-.68-.518.162-1.522.809-1l3.173,2.59a.64.64,0,0,1,0,1l-3.173,2.59A.471.471,0,0,1,1252.241,1048.514Z" transform="translate(-1056.647 -828.288)" fill="#ff3e1a" fill-rule="evenodd"/>
        <path id="Path_1043832" data-name="Path 1043832" d="M1303.77,243.583h1.036l.939-2.558c.259-.712,1.392-.291,3.108-1.975a.664.664,0,0,1,.55-.162l1.845.324.842.162.518-.874c-2.784-3.3-1.716-1.651-1.716-4.209,0-2.59-1.068-.906,1.716-4.209l-.518-.874-2.687.453c-.745.162-.907-1-3.237-1.683a.679.679,0,0,1-.421-.421l-.939-2.558h-1.036l-.906,2.558c-.259.68-1.392.291-3.108,1.942a.735.735,0,0,1-.583.162l-2.687-.486-.486.906c2.784,3.3,1.683,1.619,1.683,4.209,0,2.558,1.1.874-1.683,4.176l.486.906,2.687-.486c.745-.13.907,1.036,3.27,1.716a.632.632,0,0,1,.421.388Zm.518-4.727a4.581,4.581,0,1,1,4.6-4.565A4.587,4.587,0,0,1,1304.288,238.856Z" transform="translate(-1111.802 -39.673)" fill="#ffa721" fill-rule="evenodd"/>
      </g>
    </g>
  </g>
</svg>
