<svg xmlns="http://www.w3.org/2000/svg" xmlns:xlink="http://www.w3.org/1999/xlink" width="113" height="113" viewBox="0 0 113 113">
  <defs>
    <filter id="Path_982547" x="0" y="0" width="113" height="113" filterUnits="userSpaceOnUse">
      <feOffset dy="3" input="SourceAlpha"/>
      <feGaussianBlur stdDeviation="3" result="blur"/>
      <feFlood flood-opacity="0.161"/>
      <feComposite operator="in" in2="blur"/>
      <feComposite in="SourceGraphic"/>
    </filter>
  </defs>
  <g id="Group_1210343" data-name="Group 1210343" transform="translate(-902.088 -7812.479)">
    <g id="Group_1210279" data-name="Group 1210279">
      <g id="Group_1210204" data-name="Group 1210204" transform="translate(0 1380.707)">
        <g id="Group_1202605" data-name="Group 1202605" transform="translate(631.088 5561.358)">
          <g id="Group_1174813" data-name="Group 1174813" transform="translate(280 876.414)">
            <g id="Group_1201680" data-name="Group 1201680">
              <g id="Group_1201330" data-name="Group 1201330">
                <g id="Group_1172010" data-name="Group 1172010">
                  <g id="Group_1171046" data-name="Group 1171046">
                    <g id="Group_1148525" data-name="Group 1148525">
                      <g transform="matrix(1, 0, 0, 1, -9, -6)" filter="url(#Path_982547)">
                        <g id="Path_982547-2" data-name="Path 982547" transform="translate(9 6)" fill="#f6ecfe">
                          <path d="M 47.5 93.5 C 41.28937149047852 93.5 35.26533508300781 92.28397369384766 29.59518623352051 89.88570404052734 C 24.11771965026855 87.56893157958984 19.19813346862793 84.25196075439453 14.97309303283691 80.02691650390625 C 10.74804019927979 75.80186462402344 7.431066513061523 70.88229370117188 5.114293098449707 65.40481567382812 C 2.716026782989502 59.73468017578125 1.5 53.71062850952148 1.5 47.5 C 1.5 41.28937149047852 2.716026782989502 35.26533508300781 5.114293098449707 29.59518623352051 C 7.431066513061523 24.11771965026855 10.74804019927979 19.19813346862793 14.97309303283691 14.97309303283691 C 19.19813346862793 10.74804019927979 24.11771965026855 7.431066513061523 29.59518623352051 5.114293098449707 C 35.26533508300781 2.716026782989502 41.28937149047852 1.5 47.5 1.5 C 53.71062850952148 1.5 59.73468017578125 2.716026782989502 65.40481567382812 5.114293098449707 C 70.88229370117188 7.431066513061523 75.80186462402344 10.74804019927979 80.02691650390625 14.97309303283691 C 84.25196075439453 19.19813346862793 87.56893157958984 24.11771965026855 89.88570404052734 29.59518623352051 C 92.28397369384766 35.26533508300781 93.5 41.28937149047852 93.5 47.5 C 93.5 53.71062850952148 92.28397369384766 59.73468017578125 89.88570404052734 65.40481567382812 C 87.56893157958984 70.88229370117188 84.25196075439453 75.80186462402344 80.02691650390625 80.02691650390625 C 75.80186462402344 84.25196075439453 70.88229370117188 87.56893157958984 65.40481567382812 89.88570404052734 C 59.73468017578125 92.28397369384766 53.71062850952148 93.5 47.5 93.5 Z" stroke="none"/>
                          <path d="M 47.5 3 C 41.49121475219727 3 35.66376876831055 4.176155090332031 30.17950439453125 6.495796203613281 C 24.88084411621094 8.736953735351562 20.12152099609375 11.94598388671875 16.03375244140625 16.03375244140625 C 11.94598388671875 20.12152099609375 8.736953735351562 24.88084411621094 6.495796203613281 30.17950439453125 C 4.176155090332031 35.66376876831055 3 41.49121475219727 3 47.5 C 3 53.50878524780273 4.176155090332031 59.33623123168945 6.495796203613281 64.82049560546875 C 8.736953735351562 70.11915588378906 11.94598388671875 74.87847900390625 16.03375244140625 78.96624755859375 C 20.12152099609375 83.05401611328125 24.88084411621094 86.26304626464844 30.17950439453125 88.50419616699219 C 35.66376876831055 90.82384490966797 41.49121475219727 92 47.5 92 C 53.50878524780273 92 59.33623123168945 90.82384490966797 64.82049560546875 88.50419616699219 C 70.11915588378906 86.26304626464844 74.87847900390625 83.05401611328125 78.96624755859375 78.96624755859375 C 83.05401611328125 74.87847900390625 86.26304626464844 70.11915588378906 88.50419616699219 64.82049560546875 C 90.82384490966797 59.33623123168945 92 53.50878524780273 92 47.5 C 92 41.49121475219727 90.82384490966797 35.66376876831055 88.50419616699219 30.17950439453125 C 86.26304626464844 24.88084411621094 83.05401611328125 20.12152099609375 78.96624755859375 16.03375244140625 C 74.87847900390625 11.94598388671875 70.11915588378906 8.736953735351562 64.82049560546875 6.495796203613281 C 59.33623123168945 4.176155090332031 53.50878524780273 3 47.5 3 M 47.5 0 C 73.7335205078125 0 95 21.2664794921875 95 47.5 C 95 73.7335205078125 73.7335205078125 95 47.5 95 C 21.2664794921875 95 0 73.7335205078125 0 47.5 C 0 21.2664794921875 21.2664794921875 0 47.5 0 Z" stroke="none" fill="#aa52f9"/>
                        </g>
                      </g>
                    </g>
                  </g>
                </g>
              </g>
            </g>
          </g>
        </g>
      </g>
      <g id="communication_4072715" transform="translate(910.329 7809.333)">
        <path id="Path_1050041" data-name="Path 1050041" d="M51.958,312.732V296.6l8.311,9.7,3.175-8.963-8.075-8.075A4.3,4.3,0,0,0,52.327,288H32.194A8.194,8.194,0,0,0,24,296.193h0a8.194,8.194,0,0,0,1.457,4.664l.694,1v10.872Z" transform="translate(-6.925 -228.515)" fill="#ed6445"/>
        <path id="Path_1050042" data-name="Path 1050042" d="M142.452,367.527,140.3,360h-2.151L136,367.527Z" transform="translate(-103.871 -290.837)" fill="#f7c04a"/>
        <path id="Path_1050043" data-name="Path 1050043" d="M142.452,322.151l-2.151,3.226h-2.151L136,322.151,139.226,320Z" transform="translate(-103.871 -256.214)" fill="#f5a431"/>
        <path id="Path_1050044" data-name="Path 1050044" d="M192,448h11.828v3.226H192Z" transform="translate(-152.344 -367.009)" fill="#445496"/>
        <rect id="Rectangle_419610" data-name="Rectangle 419610" width="26.665" height="13.332" transform="translate(52.703 44.869)" fill="#4e96ed"/>
        <rect id="Rectangle_419611" data-name="Rectangle 419611" width="25.776" height="15.11" transform="translate(46.481 25.315)" fill="#4e96ed"/>
        <ellipse id="Ellipse_12667" data-name="Ellipse 12667" cx="2.222" cy="1.778" rx="2.222" ry="1.778" transform="translate(50.037 29.759)" fill="#96cffa"/>
        <circle id="Ellipse_12668" data-name="Ellipse 12668" cx="2.222" cy="2.222" r="2.222" transform="translate(70.479 48.424)" fill="#96cffa"/>
        <path id="Path_1050045" data-name="Path 1050045" d="M80,53.376,96.129,48V58.753Z" transform="translate(-55.398 -20.774)" fill="#f7c04a"/>
        <path id="Path_1050046" data-name="Path 1050046" d="M136.6,240v6.452l-4.3,4.3-4.3-4.3V240Z" transform="translate(-96.946 -186.967)" fill="#ffceb6"/>
        <path id="Path_1050047" data-name="Path 1050047" d="M128,184v8.6a5.376,5.376,0,1,0,10.753,0V184Z" transform="translate(-96.946 -138.494)" fill="#ffceb6"/>
        <path id="Path_1050048" data-name="Path 1050048" d="M116.3,164.3l1.444,1.444a6.083,6.083,0,0,0,4.3,1.782h0a6.083,6.083,0,0,0,6.083-6.083V160h-12a4.127,4.127,0,0,0-3.434,6.416l1.457,2.186Z" transform="translate(-83.097 -117.72)" fill="#b36f42"/>
        <path id="Path_1050049" data-name="Path 1050049" d="M93.433,388.648l-2.188-2.188a3.544,3.544,0,0,0-3.822-.785l-4.743,1.9H73l-3.09-4.414-6.693,5.577,2.161,3.122a7.527,7.527,0,0,0,6.189,3.243H83.755l4.3-3.226h5.377Z" transform="translate(-40.873 -310.883)" fill="#ffceb6"/>
        <path id="Path_1050050" data-name="Path 1050050" d="M287.184,312l-9.678,21.506H256L265.678,312Z" transform="translate(-207.741 -249.289)" fill="#56679c"/>
        <circle id="Ellipse_12669" data-name="Ellipse 12669" cx="2.222" cy="2.222" r="2.222" transform="translate(62.48 71.534)" fill="#2c3e91"/>
        <path id="Path_1050051" data-name="Path 1050051" d="M69.765,196.087a1.075,1.075,0,0,0,.981-.634l9.678-21.506a1.075,1.075,0,0,0-.981-1.517H57.936a1.075,1.075,0,0,0-.981.634l-1.7,3.77L49.2,170.78a5.341,5.341,0,0,0-3.8-1.575H41.234a6.425,6.425,0,0,0,1.648-4.3V160.5a7.156,7.156,0,0,0,3.226-5.977v-1.444A1.075,1.075,0,0,0,45.033,152h-12a5.2,5.2,0,0,0-4.328,8.088L29.979,162v7.2h-4.71a9.269,9.269,0,0,0-7.621,14.545l.5.726v11.612H20.3v-8.505l3.323,4.8a8.6,8.6,0,0,0,7.073,3.706Zm-23.657-2.151,1.434-1.075h.505l-.484,1.075Zm12.524-19.355H77.779l-8.71,19.355H49.922ZM47.683,172.3l6.632,6.632-2.693,5.985-5.773-6.735a1.075,1.075,0,0,0-1.892.7v6.584l-2.358.943H39.392L37.6,180.14l1.037-1.556,1.422,1.137a1.075,1.075,0,0,0,1.747-.84v-7.527H45.4a3.2,3.2,0,0,1,2.281.945Zm.556,11.975c-.123-.01-.248-.016-.373-.016a4.6,4.6,0,0,0-1.716.33l-.042.017v-2.817ZM31.054,171.8l2.691,2.691-2.691,2.153Zm1.075-2.094a6.443,6.443,0,0,0,4.965,1.614l-1.739,1.739-3.226-3.226Zm4.836,4.785,2.691-2.691v4.844Zm-1.61,1.466,1.6,1.278-1.1,1.646h-1l-1.1-1.646Zm-.264,5.075h.528l1.536,5.376h-3.6ZM33.03,154.151H43.958v.369a5.007,5.007,0,0,1-8.548,3.541l-1.444-1.444a1.075,1.075,0,0,0-1.722.279l-1.322,2.644-.43-.645a3.052,3.052,0,0,1,2.539-4.744Zm-.9,7.781,1.37-2.74.389.389a7.163,7.163,0,0,0,6.843,1.872v3.45a4.3,4.3,0,1,1-8.6,0Zm-6.861,9.424H28.9v7.527a1.075,1.075,0,0,0,1.747.84l1.422-1.137,1.037,1.556-1.394,4.878-6.232-8.9-1.762,1.233,3.87,5.529-5.03,4.192-3.145-4.543a7.118,7.118,0,0,1,5.853-11.17ZM30.7,193.937a6.452,6.452,0,0,1-5.3-2.779l-1.6-2.314,5.038-4.2,2.419,3.456a1.075,1.075,0,0,0,.881.459h9.678a1.076,1.076,0,0,0,.4-.077l4.743-1.9a2.469,2.469,0,0,1,2.663.546l.7.7-1.3,2.879H47.184a1.075,1.075,0,0,0-.645.215l-4.014,3.011Z" transform="translate(0 -110.795)"/>
        <path id="Path_1050052" data-name="Path 1050052" d="M355.226,374.452A3.226,3.226,0,1,0,352,371.226,3.226,3.226,0,0,0,355.226,374.452Zm0-4.3a1.075,1.075,0,1,1-1.075,1.075A1.075,1.075,0,0,1,355.226,370.151Z" transform="translate(-290.838 -297.762)"/>
        <path id="Path_1050053" data-name="Path 1050053" d="M305.807,168H283.226A3.23,3.23,0,0,0,280,171.226V180.9a3.23,3.23,0,0,0,3.226,3.226h22.581a3.23,3.23,0,0,0,3.226-3.226v-9.678A3.23,3.23,0,0,0,305.807,168Zm1.075,12.9a1.077,1.077,0,0,1-1.075,1.075H283.226a1.077,1.077,0,0,1-1.075-1.075v-9.678a1.076,1.076,0,0,1,1.075-1.075h22.581a1.077,1.077,0,0,1,1.075,1.075Z" transform="translate(-228.515 -124.645)"/>
        <path id="Path_1050054" data-name="Path 1050054" d="M259.958,37.979V27.226A3.23,3.23,0,0,0,256.732,24H235.226A3.23,3.23,0,0,0,232,27.226V37.979a3.23,3.23,0,0,0,3.226,3.226h21.506A3.23,3.23,0,0,0,259.958,37.979Zm-25.807,0V27.226a1.077,1.077,0,0,1,1.075-1.075h21.506a1.076,1.076,0,0,1,1.075,1.075V37.979a1.076,1.076,0,0,1-1.075,1.075H235.226A1.077,1.077,0,0,1,234.151,37.979Z" transform="translate(-186.967)"/>
        <path id="Path_1050055" data-name="Path 1050055" d="M267.226,56a3.226,3.226,0,1,0,3.226,3.226A3.226,3.226,0,0,0,267.226,56Zm0,4.3a1.075,1.075,0,1,1,1.075-1.075,1.075,1.075,0,0,1-1.075,1.075Z" transform="translate(-214.666 -27.699)"/>
        <path id="Path_1050056" data-name="Path 1050056" d="M328,64h2.151v2.151H328Z" transform="translate(-270.064 -34.624)"/>
        <path id="Path_1050057" data-name="Path 1050057" d="M360,64h6.452v2.151H360Z" transform="translate(-297.762 -34.624)"/>
        <path id="Path_1050058" data-name="Path 1050058" d="M328,96h6.452v2.151H328Z" transform="translate(-270.064 -62.322)"/>
        <path id="Path_1050059" data-name="Path 1050059" d="M419.226,200a3.226,3.226,0,1,0,3.226,3.226A3.226,3.226,0,0,0,419.226,200Zm0,4.3a1.075,1.075,0,1,1,1.075-1.075A1.075,1.075,0,0,1,419.226,204.3Z" transform="translate(-346.235 -152.343)"/>
        <path id="Path_1050060" data-name="Path 1050060" d="M368,208h4.3v2.151H368Z" transform="translate(-304.687 -159.268)"/>
        <path id="Path_1050061" data-name="Path 1050061" d="M312,208h5.376v2.151H312Z" transform="translate(-256.214 -159.268)"/>
        <path id="Path_1050062" data-name="Path 1050062" d="M328,240h9.678v2.151H328Z" transform="translate(-270.064 -186.967)"/>
        <path id="Path_1050063" data-name="Path 1050063" d="M88.865,40.055,72.735,45.431a1.075,1.075,0,0,0,0,2.04l16.129,5.376a1.075,1.075,0,0,0,1.415-1.02V41.075a1.075,1.075,0,0,0-1.415-1.02Zm-12.389,6.4,11.654-3.885v2.809H82.753v2.151h5.376v2.809Z" transform="translate(-48.473 -13.849)"/>
      </g>
    </g>
  </g>
</svg>
