<svg xmlns="http://www.w3.org/2000/svg" xmlns:xlink="http://www.w3.org/1999/xlink" width="103" height="103" viewBox="0 0 103 103">
  <defs>
    <filter id="Path_978624" x="0" y="0" width="103" height="103" filterUnits="userSpaceOnUse">
      <feOffset dy="3" input="SourceAlpha"/>
      <feGaussianBlur stdDeviation="3" result="blur"/>
      <feFlood flood-opacity="0.161"/>
      <feComposite operator="in" in2="blur"/>
      <feComposite in="SourceGraphic"/>
    </filter>
  </defs>
  <g id="Group_1181711" data-name="Group 1181711" transform="translate(-185 -15463)">
    <g id="Group_1181501" data-name="Group 1181501" transform="translate(14 12597)">
      <g id="Group_1176881" data-name="Group 1176881">
        <g id="Group_1175148" data-name="Group 1175148" transform="translate(0 1580)">
          <g id="Group_1173798" data-name="Group 1173798" transform="translate(-3 -3520)">
            <g id="Group_1171925" data-name="Group 1171925" transform="translate(-22 -2246)">
              <g id="Group_1164524" data-name="Group 1164524" transform="translate(205 7058)">
                <g id="Group_1144123" data-name="Group 1144123">
                  <g transform="matrix(1, 0, 0, 1, -9, -6)" filter="url(#Path_978624)">
                    <g id="Path_978624-2" data-name="Path 978624" transform="translate(9 6)" fill="#e5ebfb">
                      <path d="M 42.5 83.5 C 36.96437835693359 83.5 31.59512901306152 82.41617584228516 26.54141235351562 80.27863311767578 C 21.65934181213379 78.21369171142578 17.27447128295898 75.25723266601562 13.50862312316895 71.49137878417969 C 9.742764472961426 67.72553253173828 6.786305904388428 63.34066009521484 4.721364498138428 58.45858764648438 C 2.583823442459106 53.40486907958984 1.5 48.03562164306641 1.5 42.5 C 1.5 36.96437835693359 2.583823442459106 31.59512901306152 4.721364498138428 26.54141235351562 C 6.786305904388428 21.65934181213379 9.742764472961426 17.27447128295898 13.50862312316895 13.50862312316895 C 17.27447128295898 9.742764472961426 21.65934181213379 6.786305904388428 26.54141235351562 4.721364498138428 C 31.59512901306152 2.583823442459106 36.96437835693359 1.5 42.5 1.5 C 48.03562164306641 1.5 53.40486907958984 2.583823442459106 58.45858764648438 4.721364498138428 C 63.34066009521484 6.786305904388428 67.72553253173828 9.742764472961426 71.49137878417969 13.50862312316895 C 75.25723266601562 17.27447128295898 78.21369171142578 21.65934181213379 80.27863311767578 26.54141235351562 C 82.41617584228516 31.59512901306152 83.5 36.96437835693359 83.5 42.5 C 83.5 48.03562164306641 82.41617584228516 53.40486907958984 80.27863311767578 58.45858764648438 C 78.21369171142578 63.34066009521484 75.25723266601562 67.72553253173828 71.49137878417969 71.49137878417969 C 67.72553253173828 75.25723266601562 63.34066009521484 78.21369171142578 58.45858764648438 80.27863311767578 C 53.40486907958984 82.41617584228516 48.03562164306641 83.5 42.5 83.5 Z" stroke="none"/>
                      <path d="M 42.5 3 C 37.16621398925781 3 31.99356079101562 4.043960571289062 27.125732421875 6.102882385253906 C 22.42246627807617 8.092185974121094 18.19785308837891 10.94070434570312 14.56928253173828 14.56928253173828 C 10.94070434570312 18.19785308837891 8.092185974121094 22.42246627807617 6.102882385253906 27.125732421875 C 4.043960571289062 31.99356079101562 3 37.16621398925781 3 42.5 C 3 47.83378601074219 4.043960571289062 53.00643920898438 6.102882385253906 57.87425231933594 C 8.092185974121094 62.57753372192383 10.94070434570312 66.80213165283203 14.56928253173828 70.43071746826172 C 18.19786834716797 74.05929565429688 22.42246627807617 76.90781402587891 27.125732421875 78.89711761474609 C 31.99356079101562 80.95603942871094 37.16621398925781 82 42.5 82 C 47.83378601074219 82 53.00642395019531 80.95603942871094 57.87425231933594 78.89711761474609 C 62.57753372192383 76.90781402587891 66.80213165283203 74.05929565429688 70.43071746826172 70.43071746826172 C 74.05929565429688 66.80213165283203 76.90781402587891 62.57753372192383 78.89711761474609 57.87425231933594 C 80.95603942871094 53.00642395019531 82 47.83378601074219 82 42.5 C 82 37.16621398925781 80.95603942871094 31.99356079101562 78.89711761474609 27.125732421875 C 76.90781402587891 22.42246627807617 74.05929565429688 18.19786834716797 70.43071746826172 14.56928253173828 C 66.80213165283203 10.94070434570312 62.57753372192383 8.092185974121094 57.87425231933594 6.102882385253906 C 53.00643920898438 4.043960571289062 47.83378601074219 3 42.5 3 M 42.5 0 C 65.97209167480469 0 85 19.02789306640625 85 42.5 C 85 65.97209167480469 65.97209167480469 85 42.5 85 C 19.02789306640625 85 0 65.97209167480469 0 42.5 C 0 19.02789306640625 19.02789306640625 0 42.5 0 Z" stroke="none" fill="#11f5d8"/>
                    </g>
                  </g>
                </g>
              </g>
            </g>
          </g>
        </g>
        <g id="programmer_1295847_1_" data-name="programmer_1295847 (1)" transform="translate(195.128 2887.13)">
          <path id="Path_1043737" data-name="Path 1043737" d="M421.306,231.678v1.339H411.7v-1.339a1.411,1.411,0,0,1,1.411-1.412H419.9A1.411,1.411,0,0,1,421.306,231.678Zm0,0" transform="translate(-367.68 -205.646)" fill="#ecebed"/>
          <path id="Path_1043738" data-name="Path 1043738" d="M413.161,347.625h8.145v1.719a1.411,1.411,0,0,1-1.411,1.412h-6.785a1.411,1.411,0,0,1-1.411-1.412v-1.719Zm0,0" transform="translate(-367.68 -310.456)" fill="#ecebed"/>
          <path id="Path_1043739" data-name="Path 1043739" d="M447.746,255.988H453.5v9.8h-5.753Zm0,0" transform="translate(-399.872 -228.617)" fill="#27b5f7"/>
          <path id="Path_1043740" data-name="Path 1043740" d="M93.305,221.273H76.653a1.478,1.478,0,0,0-1.442,1.511V239.92H94.747V222.784a1.477,1.477,0,0,0-1.442-1.511Zm0,0" transform="translate(-67.169 -197.614)" fill="#27b5f7"/>
          <g id="Group_1181675" data-name="Group 1181675" transform="translate(21.758 34.12)">
            <path id="Path_1043741" data-name="Path 1043741" d="M207.043,352.639c.018-.014.036-.027.054-.042C207.079,352.612,207.061,352.626,207.043,352.639Zm0,0" transform="translate(-206.664 -349.017)" fill="#febba0"/>
            <path id="Path_1043742" data-name="Path 1043742" d="M304.391,352.59l.051.04Zm0,0" transform="translate(-293.604 -349.01)" fill="#febba0"/>
            <path id="Path_1043743" data-name="Path 1043743" d="M204.945,353.975c.025-.013.049-.026.073-.04C204.994,353.948,204.97,353.962,204.945,353.975Zm0,0" transform="translate(-204.791 -350.211)" fill="#febba0"/>
            <path id="Path_1043744" data-name="Path 1043744" d="M301.383,349.453l.013.018Zm0,0" transform="translate(-290.917 -346.209)" fill="#febba0"/>
            <path id="Path_1043745" data-name="Path 1043745" d="M303.52,351.84l.044.039Zm0,0" transform="translate(-292.826 -348.34)" fill="#febba0"/>
            <path id="Path_1043746" data-name="Path 1043746" d="M302,350.238l.026.032Zm0,0" transform="translate(-291.468 -346.91)" fill="#febba0"/>
            <path id="Path_1043747" data-name="Path 1043747" d="M206.039,353.338l.062-.041Zm0,0" transform="translate(-205.768 -349.642)" fill="#febba0"/>
            <path id="Path_1043748" data-name="Path 1043748" d="M213.512,342.7c0-.006,0-.011,0-.017S213.513,342.7,213.512,342.7Zm0,0" transform="translate(-212.441 -340.167)" fill="#febba0"/>
            <path id="Path_1043749" data-name="Path 1043749" d="M213.242,343.77l.006-.023Zm0,0" transform="translate(-212.2 -341.112)" fill="#febba0"/>
            <path id="Path_1043750" data-name="Path 1043750" d="M210.391,349.6l.008-.012Zm0,0" transform="translate(-209.654 -346.331)" fill="#febba0"/>
            <path id="Path_1043751" data-name="Path 1043751" d="M212.035,346.913l.01-.019Zm0,0" transform="translate(-211.122 -343.923)" fill="#febba0"/>
            <path id="Path_1043752" data-name="Path 1043752" d="M212.9,344.838l.009-.025Zm0,0" transform="translate(-211.893 -342.065)" fill="#febba0"/>
            <path id="Path_1043753" data-name="Path 1043753" d="M209.648,350.277l.032-.038Zm0,0" transform="translate(-208.991 -346.91)" fill="#febba0"/>
            <path id="Path_1043754" data-name="Path 1043754" d="M212.488,345.892l.011-.024Zm0,0" transform="translate(-211.527 -343.006)" fill="#febba0"/>
            <path id="Path_1043755" data-name="Path 1043755" d="M207.973,351.89l.048-.043Zm0,0" transform="translate(-207.495 -348.347)" fill="#febba0"/>
            <path id="Path_1043756" data-name="Path 1043756" d="M218.225,327.387a4.531,4.531,0,0,0,4.518-4.518V321.5a1.79,1.79,0,0,1-.014-.213V319.11h-9.005v2.176a1.831,1.831,0,0,1-.017.24v1.343A4.531,4.531,0,0,0,218.225,327.387Zm0,0" transform="translate(-212.616 -319.11)" fill="#febba0"/>
            <path id="Path_1043757" data-name="Path 1043757" d="M306.309,353.93l.073.04Zm0,0" transform="translate(-295.317 -350.207)" fill="#febba0"/>
            <path id="Path_1043758" data-name="Path 1043758" d="M203.5,354.561c.04-.016.078-.035.117-.053C203.578,354.527,203.54,354.545,203.5,354.561Zm0,0" transform="translate(-203.5 -350.723)" fill="#febba0"/>
            <path id="Path_1043759" data-name="Path 1043759" d="M307.355,354.5c.038.019.077.038.117.054C307.432,354.542,307.393,354.523,307.355,354.5Zm0,0" transform="translate(-296.251 -350.72)" fill="#febba0"/>
            <path id="Path_1043760" data-name="Path 1043760" d="M302.755,351.087l-.036-.037Zm0,0" transform="translate(-292.11 -347.635)" fill="#febba0"/>
            <path id="Path_1043761" data-name="Path 1043761" d="M208.885,351.051l-.041.043Zm0,0" transform="translate(-208.273 -347.636)" fill="#febba0"/>
            <path id="Path_1043762" data-name="Path 1043762" d="M305.32,353.289l.06.04Zm0,0" transform="translate(-294.433 -349.635)" fill="#febba0"/>
          </g>
          <path id="Path_1043763" data-name="Path 1043763" d="M140.905,345.894l-7.19-3c-.04-.016-.079-.035-.117-.054l-.039-.021c-.025-.013-.049-.026-.073-.04l-.046-.029-.06-.04-.048-.035-.051-.039-.049-.041-.044-.039-.05-.048-.036-.037c-.018-.018-.034-.036-.051-.055l-.026-.032c-.018-.022-.036-.043-.053-.066l-.013-.018a1.808,1.808,0,0,1-.32-.737h0c-.008-.039-.013-.079-.018-.119v1.37a4.518,4.518,0,1,1-9.036,0v-1.342c0,.035-.011.07-.018.1l0,.018c-.007.032-.015.064-.023.1l-.006.023c-.008.03-.018.061-.028.091l-.009.025c-.01.03-.021.058-.033.087l-.011.025c-.012.029-.025.057-.039.086l-.01.019a1.821,1.821,0,0,1-.167.269l-.008.012-.047.058-.032.038-.045.049-.041.042-.045.043-.048.043-.046.038-.054.041-.045.033-.062.041-.044.028-.073.041-.038.02c-.038.019-.076.037-.117.054l-7.189,3a4.412,4.412,0,0,0-2.508,4v8.67h30.617v-8.67a4.411,4.411,0,0,0-2.508-4Zm0,0" transform="translate(-100.736 -304.941)" fill="#fff"/>
          <path id="Path_1043764" data-name="Path 1043764" d="M200.445,346.079l-7.19-3c-.04-.016-.079-.035-.117-.054l-.039-.021c-.025-.013-.049-.026-.073-.04l-.046-.029-.06-.04-.048-.035-.051-.039-.049-.041-.044-.039-.05-.048-.036-.037c-.018-.018-.034-.036-.051-.055l-.026-.032c-.018-.022-.036-.043-.053-.066l-.013-.018a1.807,1.807,0,0,1-.32-.737h0c-.006-.032-.01-.064-.015-.1h0V343a4.515,4.515,0,0,1-8.387,2.325l-1.8.751a4.412,4.412,0,0,0-2.508,4v8.67h23.489v-8.67a4.411,4.411,0,0,0-2.508-4Zm0,0" transform="translate(-160.276 -305.126)" fill="#89cd37"/>
          <path id="Path_1043765" data-name="Path 1043765" d="M161.149,88.152V84.9a10.034,10.034,0,1,0-20.068,0h-.04v3.255a2.5,2.5,0,0,0,0,5v1.868a4.909,4.909,0,0,0,2.052,3.746l6.049,3.458a3.47,3.47,0,0,0,3.906,0l6.031-3.458a4.926,4.926,0,0,0,2.07-3.746V93.157a2.5,2.5,0,0,0,0-5Zm0,0" transform="translate(-123.726 -66.858)" fill="#fff"/>
          <path id="Path_1043766" data-name="Path 1043766" d="M226.508,91.135V87.88a10.038,10.038,0,0,0-7.373-9.677,10.039,10.039,0,0,0-7.373,9.677h-.039V98.007a4.909,4.909,0,0,0,2.052,3.746l5.34,3.053,5.324-3.053a4.926,4.926,0,0,0,2.07-3.746V96.139a2.5,2.5,0,1,0,0-5Zm0,0" transform="translate(-189.085 -69.841)" fill="#febba0"/>
          <path id="Path_1043767" data-name="Path 1043767" d="M202.214,42.581c.6,1.554,3.484,2.206,4.618,3.208a13.411,13.411,0,0,1,3.021,3.537s3.538-6.955-.476-12.069c-1.893-2.412-3.895-2.927-5.381-2.2a7.973,7.973,0,0,0-3.3-1.711,9.739,9.739,0,0,0-7.617,9.351,17.773,17.773,0,0,0,.289,3.195,5.958,5.958,0,0,1,2.1-.357,8.323,8.323,0,0,0,6.75-2.95Zm0,0" transform="translate(-172.431 -29.778)" fill="#703e41"/>
          <path id="Path_1043768" data-name="Path 1043768" d="M104.112,251.953H104.1a1.117,1.117,0,1,1,0-2.234h.015a1.117,1.117,0,1,1,0,2.234Zm0,0" transform="translate(-91.969 -223.018)"/>
          <path id="Path_1043769" data-name="Path 1043769" d="M43.672,251.953H40.484a1.117,1.117,0,1,1,0-2.234h3.188a1.117,1.117,0,0,1,0,2.234Zm0,0" transform="translate(-35.158 -223.018)"/>
          <path id="Path_1043770" data-name="Path 1043770" d="M49.509,312.9H40.485a1.117,1.117,0,1,1,0-2.234h9.024a1.117,1.117,0,1,1,0,2.234Zm0,0" transform="translate(-35.158 -277.448)"/>
          <path id="Path_1043771" data-name="Path 1043771" d="M104.112,282.426H104.1a1.117,1.117,0,1,1,0-2.234h.015a1.117,1.117,0,1,1,0,2.234Zm0,0" transform="translate(-91.969 -250.233)"/>
          <path id="Path_1043772" data-name="Path 1043772" d="M43.672,282.426H40.484a1.117,1.117,0,0,1,0-2.234h3.188a1.117,1.117,0,0,1,0,2.234Zm0,0" transform="translate(-35.158 -250.233)"/>
          <path id="Path_1043773" data-name="Path 1043773" d="M134.62,282.426h-.1a1.117,1.117,0,1,1,0-2.234h.1a1.117,1.117,0,0,1,0,2.234Zm0,0" transform="translate(-119.135 -250.233)"/>
          <path id="Path_1043774" data-name="Path 1043774" d="M1.132,493.3H1.117a1.117,1.117,0,1,1,0-2.234h.015a1.117,1.117,0,0,1,0,2.234Zm0,0" transform="translate(0 -438.561)"/>
          <path id="Path_1043775" data-name="Path 1043775" d="M492.049,493.3h-.015a1.117,1.117,0,0,1,0-2.234h.015a1.117,1.117,0,1,1,0,2.234Zm0,0" transform="translate(-438.428 -438.561)"/>
          <path id="Path_1043776" data-name="Path 1043776" d="M283.647,214.6a1.249,1.249,0,1,1,1.248-1.249A1.25,1.25,0,0,1,283.647,214.6Zm0,0" transform="translate(-252.204 -189.427)"/>
          <path id="Path_1043777" data-name="Path 1043777" d="M207.44,214.6a1.249,1.249,0,1,1,1.249-1.249A1.251,1.251,0,0,1,207.44,214.6Zm0,0" transform="translate(-184.145 -189.427)"/>
          <path id="Path_1043778" data-name="Path 1043778" d="M237.569,264.658a2.211,2.211,0,0,1-2.209-2.209,1.117,1.117,0,0,1,1.117-1.117h2.183a1.117,1.117,0,0,1,1.117,1.117,2.211,2.211,0,0,1-2.209,2.209Zm0,0" transform="translate(-210.195 -233.39)"/>
          <path id="Path_1043779" data-name="Path 1043779" d="M192.634,418.526a1.114,1.114,0,0,1-.79-.327l-2.509-2.509a1.118,1.118,0,0,1,0-1.58l2.509-2.509a1.117,1.117,0,0,1,1.58,1.58L191.7,414.9l1.719,1.719a1.117,1.117,0,0,1-.79,1.907Zm0,0" transform="translate(-168.799 -367.3)"/>
          <path id="Path_1043780" data-name="Path 1043780" d="M279.4,418.523a1.117,1.117,0,0,1-.79-1.907l1.719-1.719-1.719-1.719a1.117,1.117,0,0,1,1.58-1.58l2.509,2.509a1.117,1.117,0,0,1,0,1.58l-2.509,2.509A1.114,1.114,0,0,1,279.4,418.523Zm0,0" transform="translate(-248.528 -367.297)"/>
          <path id="Path_1043781" data-name="Path 1043781" d="M242.487,418.311a1.132,1.132,0,0,1-.2-.019,1.117,1.117,0,0,1-.9-1.3l.928-5.044a1.117,1.117,0,1,1,2.2.4l-.928,5.043A1.118,1.118,0,0,1,242.487,418.311Zm0,0" transform="translate(-215.561 -367.085)"/>
          <path id="Path_1043782" data-name="Path 1043782" d="M53.557,73.351a3.374,3.374,0,0,1-3.37-3.37v-2.2a3.37,3.37,0,0,1,6.74,0v2.2A3.374,3.374,0,0,1,53.557,73.351Zm0-6.7a1.137,1.137,0,0,0-1.136,1.136v2.2a1.136,1.136,0,0,0,2.272,0v-2.2A1.137,1.137,0,0,0,53.557,66.648Zm0,0" transform="translate(-44.821 -57.527)"/>
          <path id="Path_1043783" data-name="Path 1043783" d="M3.438,73.348a1.117,1.117,0,0,1-1.117-1.117V68.226l-.363.363a1.117,1.117,0,0,1-1.58-1.58l2.27-2.27a1.117,1.117,0,0,1,1.907.79v6.7a1.117,1.117,0,0,1-1.117,1.117Zm0,0" transform="translate(-0.045 -57.525)"/>
          <path id="Path_1043784" data-name="Path 1043784" d="M402.706,8.937a3.374,3.374,0,0,1-3.37-3.37V3.37a3.37,3.37,0,1,1,6.74,0v2.2A3.373,3.373,0,0,1,402.706,8.937Zm0-6.7A1.137,1.137,0,0,0,401.57,3.37v2.2a1.136,1.136,0,0,0,2.272,0V3.37a1.137,1.137,0,0,0-1.136-1.136Zm0,0" transform="translate(-356.638)"/>
          <path id="Path_1043785" data-name="Path 1043785" d="M473.262,8.938a1.117,1.117,0,0,1-1.117-1.117V3.815l-.363.363A1.117,1.117,0,0,1,470.2,2.6l2.27-2.27a1.117,1.117,0,0,1,1.907.79v6.7a1.117,1.117,0,0,1-1.117,1.117Zm0,0" transform="translate(-419.636 -0.001)"/>
          <path id="Path_1043786" data-name="Path 1043786" d="M410.563,219.82h-6.785a2.531,2.531,0,0,0-2.529,2.529V235.2a2.532,2.532,0,0,0,2.529,2.529h6.785a2.531,2.531,0,0,0,2.528-2.529V222.349A2.531,2.531,0,0,0,410.563,219.82Zm-7.079,4.984h7.373v7.564h-7.373Zm0-2.456a.3.3,0,0,1,.294-.294h6.785a.3.3,0,0,1,.294.294v.221h-7.373Zm7.373,12.855a.3.3,0,0,1-.294.294h-6.785a.3.3,0,0,1-.294-.294v-.6h7.373Zm0,0" transform="translate(-358.347 -196.317)"/>
          <path id="Path_1043787" data-name="Path 1043787" d="M50.038,70.433h-6.2V62.88a5.5,5.5,0,0,0-3.2-5.029l-7.19-3a.68.68,0,0,1-.412-.525c0-.005,0-.011,0-.016a.63.63,0,0,1-.007-.089v-1.74l2.92-1.674.06-.037a6.034,6.034,0,0,0,2.568-4.593c0-.028,0-.057,0-.085v-.928a3.62,3.62,0,0,0,0-6.886v-.554c.637-1.387,3.284-7.913-.716-13.008-1.848-2.355-4.065-3.356-6.061-2.783a9.875,9.875,0,0,0-6.092-1.861A10.986,10.986,0,0,0,14.294,30.843a18.038,18.038,0,0,0,1.613,7.567,3.639,3.639,0,0,0-1.939,2.059H2.61A2.6,2.6,0,0,0,.051,43.1V60.234a1.117,1.117,0,0,0,1.117,1.117h6.3v2.267H6.642a1.117,1.117,0,1,0,0,2.234h4.347v4.58h-6.2a1.117,1.117,0,1,0,0,2.234H50.038a1.117,1.117,0,1,0,0-2.234ZM38.854,41.723a1.387,1.387,0,0,1-1.385,1.385,1.117,1.117,0,0,0-1.117,1.117v1.823A3.846,3.846,0,0,1,34.81,48.89l-6,3.439-.06.037a2.364,2.364,0,0,1-2.675,0l-.061-.038L20,48.89a3.786,3.786,0,0,1-1.523-2.841V44.226a1.117,1.117,0,0,0-1.117-1.117,1.384,1.384,0,0,1-.226-2.75l1.237.626a4.634,4.634,0,0,0,9.042,2.032A4.634,4.634,0,0,0,36.458,41l1.24-.639a1.387,1.387,0,0,1,1.155,1.364ZM30.8,53.765v2.042a3.385,3.385,0,1,1-6.771,0v-2.04l.849.485a4.594,4.594,0,0,0,5.074,0Zm1.131-16.412a4.642,4.642,0,0,0-4.518,3.6,4.631,4.631,0,0,0-8.045-1.972l-.823-.416A4.626,4.626,0,0,1,23.078,34.8a9.549,9.549,0,0,0,6.643-2.366,10.667,10.667,0,0,0,2.44,1.469,8.167,8.167,0,0,1,1.545.875,13.977,13.977,0,0,1,2.645,3v.764L35.467,39a4.626,4.626,0,0,0-3.536-1.643Zm2.4,4.634a2.4,2.4,0,1,1-2.4-2.4A2.4,2.4,0,0,1,34.331,41.987Zm-9.036,0a2.4,2.4,0,1,1-2.4-2.4A2.4,2.4,0,0,1,25.3,41.987Zm.421-19.679a7.4,7.4,0,0,1,5.167,1.745,1.117,1.117,0,0,0,1.215.155c1.147-.558,2.648.148,4.014,1.889,2.346,2.99,1.735,6.8,1.059,9.029A18.972,18.972,0,0,0,35.186,33.1a9.211,9.211,0,0,0-2.047-1.21c-.915-.445-2.053-1-2.268-1.561A1.117,1.117,0,0,0,28.983,30a7.256,7.256,0,0,1-5.9,2.563A6.4,6.4,0,0,0,17.4,35.633c-.039.062-.077.124-.114.186a16.384,16.384,0,0,1-.762-4.976c0-4.2,3.437-8.535,9.189-8.535ZM10.989,62.88v.739H9.7V61.351h1.505a5.583,5.583,0,0,0-.216,1.529Zm1.442-3.763H2.285V43.1A.369.369,0,0,1,2.61,42.7H13.879a3.633,3.633,0,0,0,2.365,2.463v.927c0,.028,0,.057,0,.085a6.027,6.027,0,0,0,2.55,4.593l.061.038L21.8,52.489v1.734a.682.682,0,0,1-.421.631l-7.19,3a4.891,4.891,0,0,0-1.754,1.267ZM41.606,70.433H13.223V62.88a3.311,3.311,0,0,1,1.821-2.967l6.874-2.864a5.634,5.634,0,0,0,10.991,0l6.877,2.865a3.311,3.311,0,0,1,1.821,2.967v7.553Zm0,0" transform="translate(-0.045 -17.928)"/>
        </g>
      </g>
    </g>
  </g>
</svg>
