<svg xmlns="http://www.w3.org/2000/svg" xmlns:xlink="http://www.w3.org/1999/xlink" width="113" height="113" viewBox="0 0 113 113">
  <defs>
    <filter id="Path_982547" x="0" y="0" width="113" height="113" filterUnits="userSpaceOnUse">
      <feOffset dy="3" input="SourceAlpha"/>
      <feGaussianBlur stdDeviation="3" result="blur"/>
      <feFlood flood-opacity="0.161"/>
      <feComposite operator="in" in2="blur"/>
      <feComposite in="SourceGraphic"/>
    </filter>
  </defs>
  <g id="Group_1210317" data-name="Group 1210317" transform="translate(-813 -9492.849)">
    <g id="Group_1210232" data-name="Group 1210232">
      <g id="Group_1209802" data-name="Group 1209802" transform="translate(0 5659.869)">
        <g id="Group_1209739" data-name="Group 1209739" transform="translate(822 3838.98)">
          <g id="Group_1209277" data-name="Group 1209277" transform="translate(0 0)">
            <g id="Group_1208028" data-name="Group 1208028">
              <g id="Group_1177675" data-name="Group 1177675">
                <g id="Group_1176928" data-name="Group 1176928">
                  <g id="Group_1172322" data-name="Group 1172322">
                    <g id="Group_1164700" data-name="Group 1164700">
                      <g id="Group_1160931" data-name="Group 1160931">
                        <g id="Group_1160749" data-name="Group 1160749">
                          <g id="Group_1158891" data-name="Group 1158891">
                            <g id="Group_1157406" data-name="Group 1157406">
                              <g id="Group_1155793" data-name="Group 1155793">
                                <g id="Group_1154704" data-name="Group 1154704">
                                  <g id="Group_1150790" data-name="Group 1150790">
                                    <g id="Group_1154214" data-name="Group 1154214">
                                      <g id="Group_1152583" data-name="Group 1152583">
                                        <g id="Group_1146973" data-name="Group 1146973">
                                          <g id="Group_1146954" data-name="Group 1146954">
                                            <g transform="matrix(1, 0, 0, 1, -9, -6)" filter="url(#Path_982547)">
                                              <g id="Path_982547-2" data-name="Path 982547" transform="translate(9 6)" fill="#fdf4ce">
                                                <path d="M 47.5000114440918 93.49987030029297 C 41.28938293457031 93.49987030029297 35.26534652709961 92.28384399414062 29.5951976776123 89.88558959960938 C 24.11773109436035 87.56881713867188 19.19814491271973 84.25183868408203 14.97310447692871 80.02680206298828 C 10.74805164337158 75.80176544189453 7.43107795715332 70.88218688964844 5.114304542541504 65.40472412109375 C 2.716038227081299 59.73458862304688 1.500011444091797 53.71054840087891 1.500011444091797 47.49993515014648 C 1.500011444091797 41.28932189941406 2.716038227081299 35.26528167724609 5.114304542541504 29.59514808654785 C 7.43107795715332 24.1176815032959 10.74805164337158 19.1981086730957 14.97310447692871 14.97306823730469 C 19.19814491271973 10.74802875518799 24.11773109436035 7.431055068969727 29.5951976776123 5.11428165435791 C 35.26534652709961 2.716028451919556 41.28938293457031 1.500001788139343 47.5000114440918 1.500001788139343 C 53.71063995361328 1.500001788139343 59.73467636108398 2.716028451919556 65.40482330322266 5.11428165435791 C 70.88229370117188 7.431055068969727 75.8018798828125 10.74802875518799 80.02691650390625 14.97306823730469 C 84.25196838378906 19.1981086730957 87.56894683837891 24.1176815032959 89.88571929931641 29.59514808654785 C 92.28398132324219 35.26528167724609 93.50001525878906 41.28932189941406 93.50001525878906 47.49993515014648 C 93.50001525878906 53.71054840087891 92.28398132324219 59.73458862304688 89.88571929931641 65.40472412109375 C 87.56894683837891 70.88218688964844 84.25196838378906 75.80176544189453 80.02691650390625 80.02680206298828 C 75.8018798828125 84.25183868408203 70.88229370117188 87.56881713867188 65.40482330322266 89.88558959960938 C 59.73467636108398 92.28384399414062 53.71063995361328 93.49987030029297 47.5000114440918 93.49987030029297 Z" stroke="none"/>
                                                <path d="M 47.5000114440918 3 C 41.49122619628906 3 35.66378021240234 4.1761474609375 30.17951965332031 6.495796203613281 C 24.880859375 8.7369384765625 20.12153625488281 11.94596862792969 16.03376770019531 16.03373718261719 C 11.94598388671875 20.12149047851562 8.736968994140625 24.88081359863281 6.495811462402344 30.17947387695312 C 4.176162719726562 35.66371917724609 3.000007629394531 41.49116516113281 3.000007629394531 47.49993515014648 C 3.000007629394531 53.50870513916016 4.176162719726562 59.33615112304688 6.495811462402344 64.82039642333984 C 8.736968994140625 70.11905670166016 11.94598388671875 74.87837982177734 16.03376770019531 78.96613311767578 C 20.12153625488281 83.05390167236328 24.880859375 86.26293182373047 30.17951965332031 88.50407409667969 C 35.66378021240234 90.82372283935547 41.49122619628906 91.99987030029297 47.5000114440918 91.99987030029297 C 53.50879669189453 91.99987030029297 59.33624267578125 90.82372283935547 64.82050323486328 88.50407409667969 C 70.11916351318359 86.26293182373047 74.87848663330078 83.05390167236328 78.96625518798828 78.96613311767578 C 83.05403900146484 74.87837982177734 86.2630615234375 70.11905670166016 88.50421142578125 64.82039642333984 C 90.82386016845703 59.33615112304688 92.00001525878906 53.50870513916016 92.00001525878906 47.49993515014648 C 92.00001525878906 41.49116516113281 90.82386016845703 35.66371917724609 88.50421142578125 30.17947387695312 C 86.2630615234375 24.88081359863281 83.05403900146484 20.12149047851562 78.96625518798828 16.03373718261719 C 74.87848663330078 11.94596862792969 70.11916351318359 8.7369384765625 64.82050323486328 6.495796203613281 C 59.33624267578125 4.1761474609375 53.50879669189453 3 47.5000114440918 3 M 47.5000114440918 0 C 73.73353576660156 0 95.00001525878906 21.26644134521484 95.00001525878906 47.49993515014648 C 95.00001525878906 73.73342895507812 73.73353576660156 94.99987030029297 47.5000114440918 94.99987030029297 C 21.26648712158203 94.99987030029297 7.62939453125e-06 73.73342895507812 7.62939453125e-06 47.49993515014648 C 7.62939453125e-06 21.26644134521484 21.26648712158203 0 47.5000114440918 0 Z" stroke="none" fill="#f6c810"/>
                                              </g>
                                            </g>
                                          </g>
                                        </g>
                                      </g>
                                    </g>
                                  </g>
                                </g>
                              </g>
                            </g>
                          </g>
                        </g>
                      </g>
                    </g>
                  </g>
                </g>
              </g>
            </g>
          </g>
        </g>
      </g>
      <g id="software-development_3309913_1_" data-name="software-development_3309913 (1)" transform="translate(824.892 9501.741)">
        <path id="Path_1049874" data-name="Path 1049874" d="M61.19,274.49v9.536L49.747,272.582v19.072H24V269.722A5.722,5.722,0,0,1,29.722,264h19a4.768,4.768,0,0,1,3.372,1.4Z" transform="translate(-7.046 -218.439)" fill="#ef5e3b"/>
        <path id="Path_1049875" data-name="Path 1049875" d="M336,336h18.118v18.118H336Z" transform="translate(-281.856 -281.856)" fill="#ffc431"/>
        <path id="Path_1049876" data-name="Path 1049876" d="M208,456h15.258v3.814h-13.35A1.907,1.907,0,0,1,208,457.907Z" transform="translate(-169.114 -387.552)" fill="#ffa100"/>
        <g id="Group_1210231" data-name="Group 1210231" transform="translate(22.675 42.701)">
          <path id="Path_1049877" data-name="Path 1049877" d="M125.722,240v5.722a2.813,2.813,0,0,1-.164.954,2.861,2.861,0,0,1-5.557-.954V240Z" transform="translate(-114.278 -240)" fill="#ffceb6"/>
          <path id="Path_1049878" data-name="Path 1049878" d="M72,377.245,77.245,372l4.291,4.291h10.49l2.957-1.478a4.06,4.06,0,0,1,4.936,1.032l3.226,3.871a1.4,1.4,0,0,1-1.076,2.3,1.52,1.52,0,0,1-.913-.3l-3.409-2.556-3.814,2.861h-14a7.629,7.629,0,0,1-5.394-2.234Z" transform="translate(-72 -356.266)" fill="#ffceb6"/>
          <path id="Path_1049879" data-name="Path 1049879" d="M279.629,330.861V340.4L272,332.768,276.768,328Z" transform="translate(-248.16 -317.51)" fill="#ffceb6"/>
        </g>
        <circle id="Ellipse_12661" data-name="Ellipse 12661" cx="2.583" cy="2.583" r="2.583" transform="translate(61.137 60.104)" fill="#ffe28f"/>
        <path id="Path_1049880" data-name="Path 1049880" d="M232,25.907A1.907,1.907,0,0,1,233.907,24h26.7a1.907,1.907,0,0,1,1.907,1.907V50.7a1.907,1.907,0,0,1-1.907,1.907h-7.629v4.768L246.3,52.608h-12.4A1.907,1.907,0,0,1,232,50.7Z" transform="translate(-190.253 -7.046)" fill="#4f5dff"/>
        <path id="Path_1049881" data-name="Path 1049881" d="M123.814,216.582A3.814,3.814,0,0,1,120,212.768v-1.907L122.861,208h4.768v4.768A3.814,3.814,0,0,1,123.814,216.582Z" transform="translate(-91.603 -169.114)" fill="#ffceb6"/>
        <path id="Path_1049882" data-name="Path 1049882" d="M127.629,179.814l.93-.465a1.768,1.768,0,0,0-.791-3.349h-3.953A3.814,3.814,0,0,0,120,179.814v2.861l2.861-2.861Z" transform="translate(-91.603 -140.928)" fill="#c47220"/>
        <path id="Path_1049883" data-name="Path 1049883" d="M72.262,187.072H54.144a.954.954,0,0,0-.892.62l-7.526-7.526a5.684,5.684,0,0,0-4.046-1.676h-4.8a4.772,4.772,0,0,0,.1-.954v-4.179l.4-.2A2.722,2.722,0,0,0,36.165,168H32.211a4.773,4.773,0,0,0-4.768,4.768v4.768a4.771,4.771,0,0,0,.1.954H22.675A6.683,6.683,0,0,0,16,185.165V207.1h1.907V194.142l6.627,6.627a8.526,8.526,0,0,0,6.068,2.513h7.33v.954a2.864,2.864,0,0,0,2.861,2.861H72.262a.954.954,0,0,0,.954-.954V188.025A.954.954,0,0,0,72.262,187.072ZM53.19,197.166l-5.327-5.327,3.419-3.419,1.907,1.907Zm-6.1-3.4a5.044,5.044,0,0,0-1.86.513l-1.577.789v-4.737ZM29.35,181.348a4.764,4.764,0,0,0,3.814.86v.1a1.907,1.907,0,0,1-3.814,0Zm0-3.812v-1.512l2.3-2.3h3.419v3.814a2.861,2.861,0,0,1-5.722,0Zm2.861-7.629h3.953a.814.814,0,0,1,.364,1.543l-.729.364H31.258a.954.954,0,0,0-.674.279l-1.233,1.233v-.559A2.864,2.864,0,0,1,32.211,169.907Zm-14.3,15.258a4.773,4.773,0,0,1,4.768-4.768h4.768V182.3a3.814,3.814,0,0,0,7.629,0v-.956a4.805,4.805,0,0,0,.951-.951h5.656a3.79,3.79,0,0,1,2.7,1.117l5.558,5.558-3.419,3.419-3.14-3.14a.954.954,0,0,0-1.628.674v7.629H32.606L23.349,186.4,22,187.746l4.57,4.57-3.9,3.9-4.768-4.768Zm7.976,14.256-1.859-1.859,3.9-3.9,3.617,3.617a.954.954,0,0,0,.674.279H42.7a.953.953,0,0,0,.427-.1l2.957-1.478a3.107,3.107,0,0,1,3.777.79l3.226,3.871a.447.447,0,0,1-.343.732.571.571,0,0,1-.34-.113l-3.409-2.557a.954.954,0,0,0-1.144,0l-3.56,2.67H30.6a6.631,6.631,0,0,1-4.72-1.955Zm23.493,1.955H47.469l.954-.715Zm-9.536,2.861v-.954H53.19v1.907h-12.4A.955.955,0,0,1,39.84,204.237Zm31.469.954H55.1V188.979H71.308Z" transform="translate(0 -133.882)"/>
        <path id="Path_1049884" data-name="Path 1049884" d="M387.814,383.629A3.814,3.814,0,1,0,384,379.814,3.814,3.814,0,0,0,387.814,383.629Zm0-5.722a1.907,1.907,0,1,1-1.907,1.907,1.907,1.907,0,0,1,1.907-1.907Z" transform="translate(-324.135 -317.088)"/>
        <path id="Path_1049885" data-name="Path 1049885" d="M253.561,16h-26.7A2.864,2.864,0,0,0,224,18.861V42.7h1.907V18.861a.955.955,0,0,1,.954-.954h26.7a.955.955,0,0,1,.954.954V43.654a.955.955,0,0,1-.954.954h-7.629a.954.954,0,0,0-.954.954v2.915l-5.167-3.691a.954.954,0,0,0-.554-.178h-8.582v1.907h8.277l6.426,4.59a.954.954,0,0,0,1.508-.776V46.515h6.675a2.864,2.864,0,0,0,2.861-2.861V18.861A2.864,2.864,0,0,0,253.561,16Z" transform="translate(-183.207 0)"/>
        <circle id="Ellipse_12662" data-name="Ellipse 12662" cx="1.033" cy="1.033" r="1.033" transform="translate(43.575 18.782)"/>
        <ellipse id="Ellipse_12663" data-name="Ellipse 12663" cx="1.55" cy="1.033" rx="1.55" ry="1.033" transform="translate(45.641 18.782)"/>
        <ellipse id="Ellipse_12664" data-name="Ellipse 12664" cx="1.55" cy="1.033" rx="1.55" ry="1.033" transform="translate(48.74 18.782)"/>
        <path id="Path_1049886" data-name="Path 1049886" d="M264,80h1.907v1.907H264Z" transform="translate(-218.439 -56.371)"/>
        <path id="Path_1049887" data-name="Path 1049887" d="M304,80h5.722v1.907H304Z" transform="translate(-253.671 -56.371)"/>
        <path id="Path_1049888" data-name="Path 1049888" d="M368,80h1.907v1.907H368Z" transform="translate(-310.042 -56.371)"/>
        <path id="Path_1049889" data-name="Path 1049889" d="M264,112h1.907v1.907H264Z" transform="translate(-218.439 -84.557)"/>
        <path id="Path_1049890" data-name="Path 1049890" d="M304,112h2.861v1.907H304Z" transform="translate(-253.671 -84.557)"/>
        <path id="Path_1049891" data-name="Path 1049891" d="M344,112h10.49v1.907H344Z" transform="translate(-288.903 -84.557)"/>
        <path id="Path_1049892" data-name="Path 1049892" d="M264,144h1.907v1.907H264Z" transform="translate(-218.439 -112.742)"/>
        <path id="Path_1049893" data-name="Path 1049893" d="M304,144h7.629v1.907H304Z" transform="translate(-253.671 -112.742)"/>
        <path id="Path_1049894" data-name="Path 1049894" d="M384,144h1.907v1.907H384Z" transform="translate(-324.135 -112.742)"/>
        <path id="Path_1049895" data-name="Path 1049895" d="M264,176h1.907v1.907H264Z" transform="translate(-218.439 -140.928)"/>
        <path id="Path_1049896" data-name="Path 1049896" d="M304,176h13.35v1.907H304Z" transform="translate(-253.671 -140.928)"/>
        <path id="Path_1049897" data-name="Path 1049897" d="M432,176h1.907v1.907H432Z" transform="translate(-366.413 -140.928)"/>
        <path id="Path_1049898" data-name="Path 1049898" d="M264,208h1.907v1.907H264Z" transform="translate(-218.439 -169.114)"/>
        <path id="Path_1049899" data-name="Path 1049899" d="M304,208h8.582v1.907H304Z" transform="translate(-253.671 -169.114)"/>
        <path id="Path_1049900" data-name="Path 1049900" d="M392,208h1.907v1.907H392Z" transform="translate(-331.181 -169.114)"/>
      </g>
    </g>
  </g>
</svg>
