<svg xmlns="http://www.w3.org/2000/svg" xmlns:xlink="http://www.w3.org/1999/xlink" width="113" height="113" viewBox="0 0 113 113">
  <defs>
    <filter id="Path_982547" x="0" y="0" width="113" height="113" filterUnits="userSpaceOnUse">
      <feOffset dy="3" input="SourceAlpha"/>
      <feGaussianBlur stdDeviation="3" result="blur"/>
      <feFlood flood-opacity="0.161"/>
      <feComposite operator="in" in2="blur"/>
      <feComposite in="SourceGraphic"/>
    </filter>
  </defs>
  <g id="Group_1210318" data-name="Group 1210318" transform="translate(-1131.5 -9492.849)">
    <g id="Group_1210236" data-name="Group 1210236">
      <g id="Group_1209803" data-name="Group 1209803" transform="translate(318.5 5659.869)">
        <g id="Group_1209739" data-name="Group 1209739" transform="translate(822 3838.98)">
          <g id="Group_1209277" data-name="Group 1209277" transform="translate(0 0)">
            <g id="Group_1208028" data-name="Group 1208028">
              <g id="Group_1177675" data-name="Group 1177675">
                <g id="Group_1176928" data-name="Group 1176928">
                  <g id="Group_1172322" data-name="Group 1172322">
                    <g id="Group_1164700" data-name="Group 1164700">
                      <g id="Group_1160931" data-name="Group 1160931">
                        <g id="Group_1160749" data-name="Group 1160749">
                          <g id="Group_1158891" data-name="Group 1158891">
                            <g id="Group_1157406" data-name="Group 1157406">
                              <g id="Group_1155793" data-name="Group 1155793">
                                <g id="Group_1154704" data-name="Group 1154704">
                                  <g id="Group_1150790" data-name="Group 1150790">
                                    <g id="Group_1154214" data-name="Group 1154214">
                                      <g id="Group_1152583" data-name="Group 1152583">
                                        <g id="Group_1146973" data-name="Group 1146973">
                                          <g id="Group_1146954" data-name="Group 1146954">
                                            <g transform="matrix(1, 0, 0, 1, -9, -6)" filter="url(#Path_982547)">
                                              <g id="Path_982547-2" data-name="Path 982547" transform="translate(9 6)" fill="#fdf4ce">
                                                <path d="M 47.5000114440918 93.49987030029297 C 41.28938293457031 93.49987030029297 35.26534652709961 92.28384399414062 29.5951976776123 89.88558959960938 C 24.11773109436035 87.56881713867188 19.19814491271973 84.25183868408203 14.97310447692871 80.02680206298828 C 10.74805164337158 75.80176544189453 7.43107795715332 70.88218688964844 5.114304542541504 65.40472412109375 C 2.716038227081299 59.73458862304688 1.500011444091797 53.71054840087891 1.500011444091797 47.49993515014648 C 1.500011444091797 41.28932189941406 2.716038227081299 35.26528167724609 5.114304542541504 29.59514808654785 C 7.43107795715332 24.1176815032959 10.74805164337158 19.1981086730957 14.97310447692871 14.97306823730469 C 19.19814491271973 10.74802875518799 24.11773109436035 7.431055068969727 29.5951976776123 5.11428165435791 C 35.26534652709961 2.716028451919556 41.28938293457031 1.500001788139343 47.5000114440918 1.500001788139343 C 53.71063995361328 1.500001788139343 59.73467636108398 2.716028451919556 65.40482330322266 5.11428165435791 C 70.88229370117188 7.431055068969727 75.8018798828125 10.74802875518799 80.02691650390625 14.97306823730469 C 84.25196838378906 19.1981086730957 87.56894683837891 24.1176815032959 89.88571929931641 29.59514808654785 C 92.28398132324219 35.26528167724609 93.50001525878906 41.28932189941406 93.50001525878906 47.49993515014648 C 93.50001525878906 53.71054840087891 92.28398132324219 59.73458862304688 89.88571929931641 65.40472412109375 C 87.56894683837891 70.88218688964844 84.25196838378906 75.80176544189453 80.02691650390625 80.02680206298828 C 75.8018798828125 84.25183868408203 70.88229370117188 87.56881713867188 65.40482330322266 89.88558959960938 C 59.73467636108398 92.28384399414062 53.71063995361328 93.49987030029297 47.5000114440918 93.49987030029297 Z" stroke="none"/>
                                                <path d="M 47.5000114440918 3 C 41.49122619628906 3 35.66378021240234 4.1761474609375 30.17951965332031 6.495796203613281 C 24.880859375 8.7369384765625 20.12153625488281 11.94596862792969 16.03376770019531 16.03373718261719 C 11.94598388671875 20.12149047851562 8.736968994140625 24.88081359863281 6.495811462402344 30.17947387695312 C 4.176162719726562 35.66371917724609 3.000007629394531 41.49116516113281 3.000007629394531 47.49993515014648 C 3.000007629394531 53.50870513916016 4.176162719726562 59.33615112304688 6.495811462402344 64.82039642333984 C 8.736968994140625 70.11905670166016 11.94598388671875 74.87837982177734 16.03376770019531 78.96613311767578 C 20.12153625488281 83.05390167236328 24.880859375 86.26293182373047 30.17951965332031 88.50407409667969 C 35.66378021240234 90.82372283935547 41.49122619628906 91.99987030029297 47.5000114440918 91.99987030029297 C 53.50879669189453 91.99987030029297 59.33624267578125 90.82372283935547 64.82050323486328 88.50407409667969 C 70.11916351318359 86.26293182373047 74.87848663330078 83.05390167236328 78.96625518798828 78.96613311767578 C 83.05403900146484 74.87837982177734 86.2630615234375 70.11905670166016 88.50421142578125 64.82039642333984 C 90.82386016845703 59.33615112304688 92.00001525878906 53.50870513916016 92.00001525878906 47.49993515014648 C 92.00001525878906 41.49116516113281 90.82386016845703 35.66371917724609 88.50421142578125 30.17947387695312 C 86.2630615234375 24.88081359863281 83.05403900146484 20.12149047851562 78.96625518798828 16.03373718261719 C 74.87848663330078 11.94596862792969 70.11916351318359 8.7369384765625 64.82050323486328 6.495796203613281 C 59.33624267578125 4.1761474609375 53.50879669189453 3 47.5000114440918 3 M 47.5000114440918 0 C 73.73353576660156 0 95.00001525878906 21.26644134521484 95.00001525878906 47.49993515014648 C 95.00001525878906 73.73342895507812 73.73353576660156 94.99987030029297 47.5000114440918 94.99987030029297 C 21.26648712158203 94.99987030029297 7.62939453125e-06 73.73342895507812 7.62939453125e-06 47.49993515014648 C 7.62939453125e-06 21.26644134521484 21.26648712158203 0 47.5000114440918 0 Z" stroke="none" fill="#f6c810"/>
                                              </g>
                                            </g>
                                          </g>
                                        </g>
                                      </g>
                                    </g>
                                  </g>
                                </g>
                              </g>
                            </g>
                          </g>
                        </g>
                      </g>
                    </g>
                  </g>
                </g>
              </g>
            </g>
          </g>
        </g>
      </g>
      <g id="coder_4941482" transform="translate(1157.936 9516.284)">
        <path id="Path_1049901" data-name="Path 1049901" d="M76.669,18.334a10.334,10.334,0,1,0-20.669,0v7.046c0,7,.939,16.441,10.334,16.441,8.455,0,10.334-9.436,10.334-16.441Z" transform="translate(-49.424 -7.061)" fill="#fa5d3f"/>
        <path id="Path_1049902" data-name="Path 1049902" d="M23.971,256C14.576,256,8,266.319,8,281.366v3.758H39.943v-3.758C39.943,266.319,33.366,256,23.971,256Z" transform="translate(-7.061 -225.937)" fill="#25b1fa"/>
        <path id="Path_1049903" data-name="Path 1049903" d="M23.971,256C14.576,256,8,266.319,8,281.366v3.758H39.943v-3.758C39.943,266.319,33.366,256,23.971,256Z" transform="translate(-7.061 -225.937)" fill="#fdbf44"/>
        <g id="Group_1210234" data-name="Group 1210234" transform="translate(4.697 7.516)">
          <g id="Group_1210233" data-name="Group 1210233" transform="translate(0 5.637)">
            <path id="Path_1049904" data-name="Path 1049904" d="M208,112h2.349a2.349,2.349,0,0,1,2.349,2.349v1.879a2.349,2.349,0,0,1-2.349,2.349H208Z" transform="translate(-188.271 -112)" fill="#ffd4cf"/>
            <path id="Path_1049905" data-name="Path 1049905" d="M0,0H2.349A2.349,2.349,0,0,1,4.7,2.349V4.228A2.349,2.349,0,0,1,2.349,6.576H0Z" transform="translate(4.697 6.576) rotate(180)" fill="#ffd4cf"/>
            <path id="Path_1049906" data-name="Path 1049906" d="M104,212.781a6.115,6.115,0,0,0,9.395,0l-1.879-7.516h-5.637Z" transform="translate(-96.484 -194.312)" fill="#ffd4cf"/>
          </g>
          <path id="Path_1049907" data-name="Path 1049907" d="M120.548,208.373l-.777-3.108h-5.637l-.781,3.123.127.078a6.576,6.576,0,0,0,6.946-.017Z" transform="translate(-104.739 -188.675)" fill="#fbb8b0"/>
          <path id="Path_1049908" data-name="Path 1049908" d="M95.032,68.7l-4.7-4.7-.082.136A9.4,9.4,0,0,1,82.2,68.7H80v7.11A5.872,5.872,0,0,0,82.783,80.8l2.249,1.392a4.7,4.7,0,0,0,4.961-.012l2.279-1.425a5.872,5.872,0,0,0,2.76-4.979Z" transform="translate(-75.303 -64)" fill="#ffd4cf"/>
        </g>
        <g id="Group_1210235" data-name="Group 1210235" transform="translate(27.245 31.942)">
          <path id="Path_1049909" data-name="Path 1049909" d="M232,272h31.943v20.669H232Z" transform="translate(-232 -272)" fill="#f2faff"/>
          <path id="Path_1049910" data-name="Path 1049910" d="M330.334,454.576H320V452.7l1.879-4.7h6.576l1.879,4.7Z" transform="translate(-309.666 -427.331)" fill="#25b1fa"/>
        </g>
        <path id="Path_1049911" data-name="Path 1049911" d="M293.153,24C285.889,24,280,28.206,280,33.395a6.831,6.831,0,0,0,1.879,4.7L280,47.487l9.954-4.977a18.218,18.218,0,0,0,3.2.28c7.264,0,13.153-4.206,13.153-9.395S300.417,24,293.153,24Z" transform="translate(-247.118 -21.182)" fill="#f2faff"/>
        <rect id="Rectangle_419609" data-name="Rectangle 419609" width="26.813" height="11.344" rx="5.672" transform="translate(7.376 47.596)" fill="#25b1fa"/>
        <path id="Path_1049912" data-name="Path 1049912" d="M122.818,182.349A2.588,2.588,0,0,0,125.637,180h-1.879c0,.166-.357.47-.939.47s-.939-.3-.939-.47H120A2.588,2.588,0,0,0,122.818,182.349Z" transform="translate(-105.908 -158.862)"/>
        <path id="Path_1049913" data-name="Path 1049913" d="M168,128h1.879v1.879H168Z" transform="translate(-148.271 -112.968)"/>
        <path id="Path_1049914" data-name="Path 1049914" d="M104,128h1.879v1.879H104Z" transform="translate(-91.787 -112.968)"/>
        <path id="Path_1049915" data-name="Path 1049915" d="M59.188,31H27.245a.939.939,0,0,0-.939.939V33.01a15.424,15.424,0,0,0-1.494-1.257c2.371-3.229,3.13-7.8,3.319-11.376a3.293,3.293,0,0,0,1.933-3V15.5a3.292,3.292,0,0,0-1.879-2.971V11.274a11.245,11.245,0,0,0-4.1-8.7l-1.2,1.449a9.371,9.371,0,0,1,3.417,7.248v.939h-.939a.94.94,0,0,0-.275-.664l-4.7-4.7a.939.939,0,0,0-1.47.181l-.082.136a8.5,8.5,0,0,1-7.25,4.105h-2.2a.939.939,0,0,0-.939.939H7.516v-.939a9.406,9.406,0,0,1,9.395-9.395A9.292,9.292,0,0,1,21.181,2.9l.855-1.673A11.154,11.154,0,0,0,16.911,0,11.287,11.287,0,0,0,5.637,11.274V12.53A3.292,3.292,0,0,0,3.758,15.5V17.38a3.293,3.293,0,0,0,1.91,2.985c.115,3.6.625,8.334,3.079,11.585A19.845,19.845,0,0,0,2.9,39.844l1.721.754c1.7-3.886,4.1-6.718,6.971-8.26a7.054,7.054,0,0,0,10.643,0,13.655,13.655,0,0,1,4.074,3.434v11.2H17.85v1.879h14.8a.235.235,0,0,1,.235.235v8.925a.235.235,0,0,1-.235.235H8.69a.235.235,0,0,1-.235-.235V49.088a.235.235,0,0,1,.235-.235h7.281V46.974H10.334V40.4H8.455v6.589a2.117,2.117,0,0,0-1.879,2.1v8.925a2.125,2.125,0,0,0,.013.235H1.879V55.43A39.207,39.207,0,0,1,3.841,42.585l-1.775-.617A41.066,41.066,0,0,0,0,55.43v3.758a.939.939,0,0,0,.939.939H32.647a2.116,2.116,0,0,0,2.114-2.114V53.551h3.31L36.707,56.96a.939.939,0,0,0-.067.349v1.879a.939.939,0,0,0,.939.939H47.914a.939.939,0,0,0,.939-.939V57.309a.94.94,0,0,0-.067-.349l-1.364-3.409H59.188a.939.939,0,0,0,.939-.939V38.519H58.249V51.672H34.761V49.088a2.116,2.116,0,0,0-2.114-2.114H28.185V32.882H58.249V36.64h1.879v-4.7A.939.939,0,0,0,59.188,31ZM25.366,14.092h1.409A1.411,1.411,0,0,1,28.185,15.5V17.38a1.411,1.411,0,0,1-1.409,1.409H25.366Zm-15.032-.939h1.257a10.4,10.4,0,0,0,8.286-4.16l3.61,3.61v6.691a4.9,4.9,0,0,1-2.318,4.182L18.89,24.9a3.734,3.734,0,0,1-3.969.009l-2.25-1.391a4.9,4.9,0,0,1-2.337-4.195Zm-4.7,4.228V15.5a1.411,1.411,0,0,1,1.409-1.409H8.455v4.7H7.046A1.411,1.411,0,0,1,5.637,17.38Zm5.952,12.866a13.479,13.479,0,0,0-1.28.654c-2.117-2.728-2.621-6.922-2.75-10.232H8.587a6.762,6.762,0,0,0,3.1,4.447l1.029.637Zm5.322,2.635a5.159,5.159,0,0,1-3.664-1.52l1.149-4.6a5.59,5.59,0,0,0,5.027-.012l1.152,4.608A5.159,5.159,0,0,1,16.911,32.882Zm5.322-2.635L21.1,25.732l1.061-.663a6.767,6.767,0,0,0,3.063-4.4h1c-.334,5.312-1.719,8.357-3.008,10.069q-.487-.267-.991-.491ZM38.519,57.49l1.576-3.939h5.3l1.576,3.939v.759H38.519Z" transform="translate(0 0)"/>
        <path id="Path_1049916" data-name="Path 1049916" d="M299.523,309.637a2.116,2.116,0,0,0,2.114-2.114v-1.409A2.116,2.116,0,0,0,299.523,304h-1.409A2.116,2.116,0,0,0,296,306.114v1.409a2.116,2.116,0,0,0,2.114,2.114Zm-1.644-2.114v-1.409a.238.238,0,0,1,.235-.235h1.409a.238.238,0,0,1,.235.235v1.409a.238.238,0,0,1-.235.235h-1.409A.238.238,0,0,1,297.879,307.523Z" transform="translate(-261.239 -268.3)"/>
        <path id="Path_1049917" data-name="Path 1049917" d="M360,304h1.879v5.637H360Z" transform="translate(-317.723 -268.3)"/>
        <path id="Path_1049918" data-name="Path 1049918" d="M264,304h1.879v5.637H264Z" transform="translate(-232.997 -268.3)"/>
        <path id="Path_1049919" data-name="Path 1049919" d="M395.523,309.637a2.116,2.116,0,0,0,2.114-2.114v-1.409A2.116,2.116,0,0,0,395.523,304h-1.409A2.116,2.116,0,0,0,392,306.114v1.409a2.116,2.116,0,0,0,2.114,2.114Zm-1.644-2.114v-1.409a.238.238,0,0,1,.235-.235h1.409a.238.238,0,0,1,.235.235v1.409a.238.238,0,0,1-.235.235h-1.409A.238.238,0,0,1,393.879,307.523Z" transform="translate(-345.965 -268.3)"/>
        <path id="Path_1049920" data-name="Path 1049920" d="M456,304h1.879v5.637H456Z" transform="translate(-402.449 -268.3)"/>
        <path id="Path_1049921" data-name="Path 1049921" d="M306.114,373.637h1.409a2.116,2.116,0,0,0,2.114-2.114v-1.409A2.116,2.116,0,0,0,307.523,368h-1.409A2.116,2.116,0,0,0,304,370.114v1.409A2.116,2.116,0,0,0,306.114,373.637Zm-.235-3.523a.238.238,0,0,1,.235-.235h1.409a.238.238,0,0,1,.235.235v1.409a.238.238,0,0,1-.235.235h-1.409a.238.238,0,0,1-.235-.235Z" transform="translate(-268.299 -324.784)"/>
        <path id="Path_1049922" data-name="Path 1049922" d="M368,368h1.879v5.637H368Z" transform="translate(-324.783 -324.784)"/>
        <path id="Path_1049923" data-name="Path 1049923" d="M402.114,373.637h1.409a2.116,2.116,0,0,0,2.114-2.114v-1.409A2.116,2.116,0,0,0,403.523,368h-1.409A2.116,2.116,0,0,0,400,370.114v1.409A2.116,2.116,0,0,0,402.114,373.637Zm-.235-3.523a.238.238,0,0,1,.235-.235h1.409a.238.238,0,0,1,.235.235v1.409a.238.238,0,0,1-.235.235h-1.409a.238.238,0,0,1-.235-.235Z" transform="translate(-353.025 -324.784)"/>
        <path id="Path_1049924" data-name="Path 1049924" d="M464,368h1.879v5.637H464Z" transform="translate(-409.509 -324.784)"/>
        <path id="Path_1049925" data-name="Path 1049925" d="M295.938,18.927a18.027,18.027,0,0,0-19.693,0A9.165,9.165,0,0,0,272,26.334a7.629,7.629,0,0,0,1.809,4.953l-1.791,8.955a.939.939,0,0,0,1.341,1.025l9.679-4.84a19.255,19.255,0,0,0,3.053.242,17.026,17.026,0,0,0,9.847-2.927,9.165,9.165,0,0,0,4.246-7.408A9.165,9.165,0,0,0,295.938,18.927ZM286.092,34.79a17.316,17.316,0,0,1-3.033-.265.937.937,0,0,0-.585.085l-8.236,4.118,1.5-7.511a.94.94,0,0,0-.211-.8,5.924,5.924,0,0,1-1.649-4.082c0-4.662,5.479-8.455,12.213-8.455s12.213,3.793,12.213,8.455S292.826,34.79,286.092,34.79Z" transform="translate(-240.057 -14.121)"/>
        <path id="Path_1049926" data-name="Path 1049926" d="M323.962,59,320.2,63.7a.94.94,0,0,0,0,1.174l3.758,4.7,1.467-1.174-3.288-4.11,3.288-4.11Z" transform="translate(-282.418 -52.072)"/>
        <path id="Path_1049927" data-name="Path 1049927" d="M419.22,59l-1.467,1.174,3.288,4.11-3.288,4.11,1.467,1.174,3.758-4.7a.939.939,0,0,0,0-1.174Z" transform="translate(-368.694 -52.072)"/>
        <path id="Path_1049928" data-name="Path 1049928" d="M0,0H9.581V1.879H0Z" transform="matrix(0.196, -0.981, 0.981, 0.196, 44.175, 16.708)"/>
        <path id="Path_1049929" data-name="Path 1049929" d="M88,432h1.879v1.879H88Z" transform="translate(-77.666 -381.268)"/>
        <path id="Path_1049930" data-name="Path 1049930" d="M88,464h1.879v1.879H88Z" transform="translate(-77.666 -409.51)"/>
        <path id="Path_1049931" data-name="Path 1049931" d="M120,464h1.879v1.879H120Z" transform="translate(-105.908 -409.51)"/>
        <path id="Path_1049932" data-name="Path 1049932" d="M120,432h1.879v1.879H120Z" transform="translate(-105.908 -381.268)"/>
        <path id="Path_1049933" data-name="Path 1049933" d="M152,432h1.879v1.879H152Z" transform="translate(-134.15 -381.268)"/>
        <path id="Path_1049934" data-name="Path 1049934" d="M152,464h1.879v1.879H152Z" transform="translate(-134.15 -409.51)"/>
        <path id="Path_1049935" data-name="Path 1049935" d="M184,464h1.879v1.879H184Z" transform="translate(-162.392 -409.51)"/>
        <path id="Path_1049936" data-name="Path 1049936" d="M184,432h1.879v1.879H184Z" transform="translate(-162.392 -381.268)"/>
        <path id="Path_1049937" data-name="Path 1049937" d="M216,432h1.879v1.879H216Z" transform="translate(-190.634 -381.268)"/>
        <path id="Path_1049938" data-name="Path 1049938" d="M216,464h1.879v1.879H216Z" transform="translate(-190.634 -409.51)"/>
        <path id="Path_1049939" data-name="Path 1049939" d="M248,464h1.879v1.879H248Z" transform="translate(-218.876 -409.51)"/>
        <path id="Path_1049940" data-name="Path 1049940" d="M248,432h1.879v1.879H248Z" transform="translate(-218.876 -381.268)"/>
      </g>
    </g>
  </g>
</svg>
