<svg xmlns="http://www.w3.org/2000/svg" xmlns:xlink="http://www.w3.org/1999/xlink" width="108" height="108" viewBox="0 0 108 108">
  <defs>
    <filter id="Path_904820" x="0" y="0" width="108" height="108" filterUnits="userSpaceOnUse">
      <feOffset dy="3" input="SourceAlpha"/>
      <feGaussianBlur stdDeviation="3" result="blur"/>
      <feFlood flood-opacity="0.161"/>
      <feComposite operator="in" in2="blur"/>
      <feComposite in="SourceGraphic"/>
    </filter>
  </defs>
  <g id="Group_1210325" data-name="Group 1210325" transform="translate(-200 -459)">
    <g id="Group_1210211" data-name="Group 1210211">
      <g id="Group_1174741" data-name="Group 1174741" transform="translate(209 465)">
        <g id="Group_1173585" data-name="Group 1173585" transform="translate(0 0)">
          <g id="Group_1173428" data-name="Group 1173428">
            <g id="Group_1171958" data-name="Group 1171958">
              <g id="Group_1167341" data-name="Group 1167341">
                <g id="Group_1166792" data-name="Group 1166792">
                  <g transform="matrix(1, 0, 0, 1, -9, -6)" filter="url(#Path_904820)">
                    <g id="Path_904820-2" data-name="Path 904820" transform="translate(9 6)" fill="#fef9e5">
                      <path d="M 44.99999618530273 88.50003051757812 C 39.12687301635742 88.50003051757812 33.43022155761719 87.35010528564453 28.06829643249512 85.08219146728516 C 22.88852119445801 82.89134216308594 18.23629570007324 79.75461578369141 14.24084663391113 75.75916290283203 C 10.24540901184082 71.76371765136719 7.108683586120605 67.11148834228516 4.917821407318115 61.93171691894531 C 2.649921178817749 56.56978988647461 1.499996185302734 50.87313842773438 1.499996185302734 45.00001525878906 C 1.499996185302734 39.12689208984375 2.649921178817749 33.43024063110352 4.917821407318115 28.06830215454102 C 7.108683586120605 22.88852691650391 10.24540901184082 18.23631477355957 14.24084663391113 14.24086570739746 C 18.23629570007324 10.24541568756104 22.88852119445801 7.10869026184082 28.06829643249512 4.917827606201172 C 33.43022155761719 2.649927854537964 39.12687301635742 1.50000274181366 44.99999618530273 1.50000274181366 C 50.87311935424805 1.50000274181366 56.56977081298828 2.649927854537964 61.93169784545898 4.917827606201172 C 67.11147308349609 7.10869026184082 71.76369476318359 10.24541568756104 75.75914764404297 14.24086570739746 C 79.75458526611328 18.23631477355957 82.89131164550781 22.88852691650391 85.08216857910156 28.06830215454102 C 87.35007476806641 33.43024063110352 88.5 39.12689208984375 88.5 45.00001525878906 C 88.5 50.87313842773438 87.35007476806641 56.56978988647461 85.08216857910156 61.93171691894531 C 82.89131164550781 67.11148834228516 79.75458526611328 71.76371765136719 75.75914764404297 75.75916290283203 C 71.76369476318359 79.75461578369141 67.11147308349609 82.89134216308594 61.93169784545898 85.08219146728516 C 56.56977081298828 87.35010528564453 50.87311935424805 88.50003051757812 44.99999618530273 88.50003051757812 Z" stroke="none"/>
                      <path d="M 44.99999618530273 3 C 39.32870864868164 3 33.82865142822266 4.110061645507812 28.65262603759766 6.299346923828125 C 23.65165710449219 8.414573669433594 19.15968322753906 11.44334411621094 15.301513671875 15.301513671875 C 11.44333648681641 19.15968322753906 8.414566040039062 23.65165710449219 6.299339294433594 28.65262985229492 C 4.110054016113281 33.82867050170898 2.999992370605469 39.32872772216797 2.999992370605469 45.00001525878906 C 2.999992370605469 50.67130279541016 4.110054016113281 56.17136001586914 6.299339294433594 61.34738922119141 C 8.414566040039062 66.34837341308594 11.44333648681641 70.84033203125 15.301513671875 74.69850158691406 C 19.15968322753906 78.55668640136719 23.65165710449219 81.58545684814453 28.65262603759766 83.70068359375 C 33.82865142822266 85.88996887207031 39.32870864868164 87.00003051757812 44.99999618530273 87.00003051757812 C 50.67128372192383 87.00003051757812 56.17134094238281 85.88996887207031 61.34736633300781 83.70068359375 C 66.34834289550781 81.58545684814453 70.84030914306641 78.55668640136719 74.69847869873047 74.69850158691406 C 78.55665588378906 70.84033203125 81.58542633056641 66.34837341308594 83.70065307617188 61.34738922119141 C 85.88993835449219 56.17136001586914 87 50.67130279541016 87 45.00001525878906 C 87 39.32872772216797 85.88993835449219 33.82867050170898 83.70065307617188 28.65262985229492 C 81.58542633056641 23.65165710449219 78.55665588378906 19.15968322753906 74.69847869873047 15.301513671875 C 70.84030914306641 11.44334411621094 66.34834289550781 8.414573669433594 61.34736633300781 6.299346923828125 C 56.17134094238281 4.110061645507812 50.67128372192383 3 44.99999618530273 3 M 44.99999618530273 0 C 69.85281372070312 0 90 20.14718627929688 90 45.00001525878906 C 90 69.85282897949219 69.85281372070312 90.00003051757812 44.99999618530273 90.00003051757812 C 20.14717864990234 90.00003051757812 -7.62939453125e-06 69.85282897949219 -7.62939453125e-06 45.00001525878906 C -7.62939453125e-06 20.14718627929688 20.14717864990234 0 44.99999618530273 0 Z" stroke="none" fill="#866d08"/>
                    </g>
                  </g>
                </g>
              </g>
            </g>
          </g>
        </g>
      </g>
      <g id="programmer_6454280" transform="translate(205.887 471.84)">
        <g id="Group_1210209" data-name="Group 1210209" transform="translate(21.011 7.5)">
          <path id="Path_1049794" data-name="Path 1049794" d="M76.581,308.281l-.741-9.221-.832-2.489-1.36-.4-2.278-.265-4.758-2.129-2.45-3.316-.789-.554-4.612,1.8h0l-1,.618-1.87,3.229-.211,1.634V305.8h2.946v7.674l.865,1.186h16.3l3.919-4.185v-1.1Z" transform="translate(-51.678 -257.337)" fill="#60b9fe"/>
          <path id="Path_1049795" data-name="Path 1049795" d="M25.338,311.416a7.711,7.711,0,0,1,2.759-5.891l-2.581,1.008a7.71,7.71,0,0,0-4.5,6.984v5.62l1.038.476h3.287Z" transform="translate(-21.013 -271.153)" fill="#1ca8ff"/>
          <path id="Path_1049796" data-name="Path 1049796" d="M134.051,283.292l-1.187-.095-2.134-.192-2.211-.827-2.134-2.845-.731-.4-3.239,1.265a10.031,10.031,0,0,0,9.681,6.856h.012a9.824,9.824,0,0,0,1.943-.194l.313-.4V283.6Z" transform="translate(-110.721 -247.631)" fill="#8bcaff"/>
          <path id="Path_1049797" data-name="Path 1049797" d="M160.244,11.523H158.77L153.388,15.2,151.2,18.842l-.454,7.783h17.331l.252-.618V22.333A11.318,11.318,0,0,0,160.244,11.523Z" transform="translate(-135.781 -11.059)" fill="#7b6c79"/>
          <path id="Path_1049798" data-name="Path 1049798" d="M114.077,18.774a11.318,11.318,0,0,1,8.082-10.81,11.185,11.185,0,0,0-3.192-.464h0a11.307,11.307,0,0,0-11.274,11.274v3.674l.469.618h6.385l-.469-.618Z" transform="translate(-97.695 -7.5)" fill="#665e68"/>
          <path id="Path_1049799" data-name="Path 1049799" d="M276.066,135.975l1.067-1.158.454-.757a3.3,3.3,0,0,0-4.041-1.6l-.536.477v3.034Z" transform="translate(-243.946 -117.882)" fill="#e99c8c"/>
          <path id="Path_1049800" data-name="Path 1049800" d="M98.845,133.919v.555l1.538,1.5h3.095v-3.047l-.667-.464a3.3,3.3,0,0,0-3.965,1.456Z" transform="translate(-89.868 -117.881)" fill="#e99c8c"/>
          <path id="Path_1049801" data-name="Path 1049801" d="M274.657,148.211a3.292,3.292,0,0,1-1.12-.2l-.527-.667v3.3l.527.667a3.3,3.3,0,0,0,3.974-4.75A3.3,3.3,0,0,1,274.657,148.211Z" transform="translate(-243.946 -130.524)" fill="#d78778"/>
          <path id="Path_1049802" data-name="Path 1049802" d="M98.309,148.211a3.3,3.3,0,0,1-2.855-1.648,3.3,3.3,0,0,0,3.972,4.75l.66-.754v-3.3l-.66.754A3.291,3.291,0,0,1,98.309,148.211Z" transform="translate(-86.477 -130.524)" fill="#d78778"/>
          <path id="Path_1049803" data-name="Path 1049803" d="M209,244.8l0-2.736-.355-.352h-4.383v8.354l.253.6a6.321,6.321,0,0,0,1.943-.306l.486-.675.365-3.014,1.557-.788.358-.52A.832.832,0,0,1,209,244.8Z" transform="translate(-183.124 -214.699)" fill="#e99c8c"/>
          <path id="Path_1049804" data-name="Path 1049804" d="M156.957,241.712h-4.031l-.695.34V244.8a.766.766,0,0,1-.355.674l-1.373.536a6.442,6.442,0,0,0,6.446,4.661h.008Z" transform="translate(-135.569 -214.699)" fill="#d78778"/>
          <path id="Path_1049805" data-name="Path 1049805" d="M55.676,432.17l.759.71h2.187v-9.337H55.676Z" transform="translate(-51.678 -375.56)" fill="#e99c8c"/>
          <path id="Path_1049806" data-name="Path 1049806" d="M25.338,431.808v-8.264H21.013v7.836a1.5,1.5,0,0,0,1.5,1.5h3.37A1.327,1.327,0,0,1,25.338,431.808Z" transform="translate(-21.013 -375.56)" fill="#d78778"/>
          <path id="Path_1049807" data-name="Path 1049807" d="M280.663,273.343H261.136l-1.448,1-.52,1.158v18.031l.635,1.192,3,1.615h15.551l2.31-.87a2.9,2.9,0,0,0,2.9-2.9v-16.32A2.9,2.9,0,0,0,280.663,273.343Z" transform="translate(-231.701 -242.682)" fill="#dbedff"/>
          <path id="Path_1049808" data-name="Path 1049808" d="M228.007,292.565v-16.32a2.9,2.9,0,0,1,2.9-2.9H226.2a2.9,2.9,0,0,0-2.9,2.9v16.32a2.9,2.9,0,0,0,2.9,2.9l.664.869h4.707l-.664-.869A2.9,2.9,0,0,1,228.007,292.565Z" transform="translate(-199.969 -242.681)" fill="#b5dcff"/>
          <path id="Path_1049809" data-name="Path 1049809" d="M312.249,310.843h-14.58l-.41.59V323.8l.418.515h14.572a.689.689,0,0,0,.689-.689v-12.1A.689.689,0,0,0,312.249,310.843Z" transform="translate(-265.398 -275.857)" fill="#8896e0"/>
          <path id="Path_1049810" data-name="Path 1049810" d="M265.276,323.629v-12.1a.689.689,0,0,1,.689-.689h-4.477a.689.689,0,0,0-.689.689v12.1a.689.689,0,0,0,.689.689h4.477A.689.689,0,0,1,265.276,323.629Z" transform="translate(-233.143 -275.857)" fill="#6b7ed9"/>
          <path id="Path_1049811" data-name="Path 1049811" d="M269.305,465.173h-26.15l-.771.307-.375.721v1.081l.591,1.225.952.865.926.336h23.131a3.116,3.116,0,0,0,3.116-3.116h0A1.419,1.419,0,0,0,269.305,465.173Z" transform="translate(-216.521 -412.388)" fill="#b5dcff"/>
          <path id="Path_1049812" data-name="Path 1049812" d="M207.723,466.592h0a1.419,1.419,0,0,1,1.419-1.419h-4.707a1.419,1.419,0,0,0-1.419,1.419h0a3.116,3.116,0,0,0,3.116,3.116h4.707A3.116,3.116,0,0,1,207.723,466.592Z" transform="translate(-182.025 -412.388)" fill="#8bcaff"/>
          <path id="Path_1049813" data-name="Path 1049813" d="M179.79,93.907a5.976,5.976,0,0,1-2.6.673,5.19,5.19,0,0,1-1.57-.26h-.786l-1.326,2.545v9.2l2.047,3.893,2.134,1.7,1.846.306a8.319,8.319,0,0,0,5.985-7.955V97.444A3.966,3.966,0,0,0,179.79,93.907Z" transform="translate(-155.921 -83.578)" fill="#f1afa2"/>
          <g id="Group_1210208" data-name="Group 1210208" transform="translate(12.942 9.918)">
            <path id="Path_1049814" data-name="Path 1049814" d="M138.444,104.069V97.444a3.886,3.886,0,0,1,1.539-3.124,7.673,7.673,0,0,1-1.027-.413,3.966,3.966,0,0,0-5.731,3.537v6.625a8.218,8.218,0,0,0,8.436,8.21,8.042,8.042,0,0,0,2.523-.4A8.156,8.156,0,0,1,138.444,104.069Z" transform="translate(-133.225 -93.496)" fill="#e99c8c"/>
          </g>
        </g>
        <g id="Group_1210210" data-name="Group 1210210" transform="translate(21.011 7.5)">
          <path id="Path_1049815" data-name="Path 1049815" d="M109.524,21.89a3.289,3.289,0,0,1,1.111.192v-.716a3.966,3.966,0,0,1,5.731-3.537,5.351,5.351,0,0,0,5.2,0,3.966,3.966,0,0,1,5.731,3.537v.716a3.3,3.3,0,0,1,2.945.365V18.774A11.307,11.307,0,0,0,118.964,7.5h0A11.307,11.307,0,0,0,107.69,18.774v3.674A3.281,3.281,0,0,1,109.524,21.89Z" transform="translate(-97.693 -7.5)" fill="none" stroke="#000" stroke-linecap="round" stroke-linejoin="round" stroke-miterlimit="10" stroke-width="1"/>
          <path id="Path_1049816" data-name="Path 1049816" d="M144.152,93.907a5.351,5.351,0,0,1-5.2,0,3.966,3.966,0,0,0-5.731,3.537v6.625a8.33,8.33,0,0,0,16.658-.061V97.444A3.966,3.966,0,0,0,144.152,93.907Z" transform="translate(-120.283 -83.578)" fill="none" stroke="#000" stroke-linecap="round" stroke-linejoin="round" stroke-miterlimit="10" stroke-width="1"/>
          <path id="Path_1049817" data-name="Path 1049817" d="M278.7,132.271a3.289,3.289,0,0,0-1.111.192v5.848c0,.12,0,.239-.009.358a3.3,3.3,0,1,0,1.12-6.4Z" transform="translate(-247.988 -117.881)" fill="none" stroke="#000" stroke-linecap="round" stroke-linejoin="round" stroke-miterlimit="10" stroke-width="1"/>
          <path id="Path_1049818" data-name="Path 1049818" d="M99.418,138.372v-5.909a3.3,3.3,0,1,0,.007,6.206C99.422,138.571,99.418,138.472,99.418,138.372Z" transform="translate(-86.476 -117.881)" fill="none" stroke="#000" stroke-linecap="round" stroke-linejoin="round" stroke-miterlimit="10" stroke-width="1"/>
          <path id="Path_1049819" data-name="Path 1049819" d="M81.219,367.157v15.609" transform="translate(-74.275 -325.676)" fill="none" stroke="#000" stroke-linecap="round" stroke-linejoin="round" stroke-miterlimit="10" stroke-width="1"/>
          <path id="Path_1049820" data-name="Path 1049820" d="M132.108,256.733a9.824,9.824,0,0,0,1.943-.194v-5.671a2.9,2.9,0,0,1,2.765-2.9.832.832,0,0,1-.222-.563l0-2.736a8.159,8.159,0,0,1-4.482,1.337,8.614,8.614,0,0,1-4.727-1.349V247.4a.766.766,0,0,1-.355.674l-4.613,1.8a10.031,10.031,0,0,0,9.681,6.856Z" transform="translate(-110.72 -217.306)" fill="none" stroke="#000" stroke-linecap="round" stroke-linejoin="round" stroke-miterlimit="10" stroke-width="1"/>
          <path id="Path_1049821" data-name="Path 1049821" d="M156.955,253.272a6.322,6.322,0,0,0,1.943-.306v-2.1a2.9,2.9,0,0,1,2.765-2.9.832.832,0,0,1-.222-.563l0-2.736a8.16,8.16,0,0,1-4.482,1.337,8.613,8.613,0,0,1-4.727-1.349V247.4a.766.766,0,0,1-.355.674l-1.373.536a6.442,6.442,0,0,0,6.446,4.661Z" transform="translate(-135.567 -217.305)" fill="none" stroke="#000" stroke-linecap="round" stroke-linejoin="round" stroke-miterlimit="10" stroke-width="1"/>
          <path id="Path_1049822" data-name="Path 1049822" d="M27.955,423.544H21.011v7.836a1.5,1.5,0,0,0,1.5,1.5h5.444Z" transform="translate(-21.011 -375.56)" fill="none" stroke="#000" stroke-linecap="round" stroke-linejoin="round" stroke-miterlimit="10" stroke-width="1"/>
          <path id="Path_1049823" data-name="Path 1049823" d="M234.808,465.173H204.434a1.419,1.419,0,0,0-1.419,1.419h0a3.116,3.116,0,0,0,3.116,3.116h26.981a3.116,3.116,0,0,0,3.116-3.116h0A1.419,1.419,0,0,0,234.808,465.173Z" transform="translate(-182.024 -412.388)" fill="none" stroke="#000" stroke-linecap="round" stroke-linejoin="round" stroke-miterlimit="10" stroke-width="1"/>
          <path id="Path_1049824" data-name="Path 1049824" d="M248.93,273.343H226.2a2.9,2.9,0,0,0-2.9,2.9v16.32a2.9,2.9,0,0,0,2.9,2.9h22.73a2.9,2.9,0,0,0,2.9-2.9v-16.32A2.9,2.9,0,0,0,248.93,273.343Z" transform="translate(-199.967 -242.682)" fill="none" stroke="#000" stroke-linecap="round" stroke-linejoin="round" stroke-miterlimit="10" stroke-width="1"/>
          <path id="Path_1049825" data-name="Path 1049825" d="M291.969,353.993l-2.288-2.288,2.288-2.288" transform="translate(-258.694 -309.981)" fill="none" stroke="#000" stroke-linecap="round" stroke-linejoin="round" stroke-miterlimit="10" stroke-width="1"/>
          <line id="Line_1536" data-name="Line 1536" x1="3.101" y2="6.622" transform="translate(36.047 38.412)" fill="none" stroke="#000" stroke-linecap="round" stroke-linejoin="round" stroke-miterlimit="10" stroke-width="1"/>
          <path id="Path_1049826" data-name="Path 1049826" d="M384.476,353.993l2.288-2.288-2.288-2.288" transform="translate(-342.556 -309.981)" fill="none" stroke="#000" stroke-linecap="round" stroke-linejoin="round" stroke-miterlimit="10" stroke-width="1"/>
          <path id="Path_1049827" data-name="Path 1049827" d="M37.964,274.625h7.154A3.116,3.116,0,0,1,42,271.509a1.419,1.419,0,0,1,1.419-1.419h3.822a2.9,2.9,0,0,1-2.9-2.9V250.867a2.9,2.9,0,0,1,2.765-2.9.832.832,0,0,1-.222-.563l0-2.736a8.16,8.16,0,0,1-4.482,1.337,8.614,8.614,0,0,1-4.727-1.349V247.4a.766.766,0,0,1-.355.674l-11.805,4.611a7.71,7.71,0,0,0-4.5,6.984v13.456a1.5,1.5,0,0,0,1.5,1.5H33.927" transform="translate(-21.011 -217.305)" fill="none" stroke="#000" stroke-linecap="round" stroke-linejoin="round" stroke-miterlimit="10" stroke-width="1"/>
          <path id="Path_1049828" data-name="Path 1049828" d="M280.682,315.562v-4.03a.689.689,0,0,0-.689-.689H261.487a.689.689,0,0,0-.689.689v12.1a.689.689,0,0,0,.689.689h18.506a.689.689,0,0,0,.689-.689V319.6" transform="translate(-233.142 -275.857)" fill="none" stroke="#000" stroke-linecap="round" stroke-linejoin="round" stroke-miterlimit="10" stroke-width="1"/>
        </g>
      </g>
    </g>
  </g>
</svg>
