<svg xmlns="http://www.w3.org/2000/svg" xmlns:xlink="http://www.w3.org/1999/xlink" width="103" height="103" viewBox="0 0 103 103">
  <defs>
    <filter id="Path_978624" x="0" y="0" width="103" height="103" filterUnits="userSpaceOnUse">
      <feOffset dy="3" input="SourceAlpha"/>
      <feGaussianBlur stdDeviation="3" result="blur"/>
      <feFlood flood-opacity="0.161"/>
      <feComposite operator="in" in2="blur"/>
      <feComposite in="SourceGraphic"/>
    </filter>
  </defs>
  <g id="Group_1181708" data-name="Group 1181708" transform="translate(-185 -13704)">
    <g id="Group_1181500" data-name="Group 1181500" transform="translate(14 10838)">
      <g id="Group_1176881" data-name="Group 1176881">
        <g id="Group_1175148" data-name="Group 1175148" transform="translate(0 1580)">
          <g id="Group_1173798" data-name="Group 1173798" transform="translate(-3 -3520)">
            <g id="Group_1171925" data-name="Group 1171925" transform="translate(-22 -2246)">
              <g id="Group_1164524" data-name="Group 1164524" transform="translate(205 7058)">
                <g id="Group_1144123" data-name="Group 1144123">
                  <g transform="matrix(1, 0, 0, 1, -9, -6)" filter="url(#Path_978624)">
                    <g id="Path_978624-2" data-name="Path 978624" transform="translate(9 6)" fill="#e5ebfb">
                      <path d="M 42.5 83.5 C 36.96437835693359 83.5 31.59512901306152 82.41617584228516 26.54141235351562 80.27863311767578 C 21.65934181213379 78.21369171142578 17.27447128295898 75.25723266601562 13.50862312316895 71.49137878417969 C 9.742764472961426 67.72553253173828 6.786305904388428 63.34066009521484 4.721364498138428 58.45858764648438 C 2.583823442459106 53.40486907958984 1.5 48.03562164306641 1.5 42.5 C 1.5 36.96437835693359 2.583823442459106 31.59512901306152 4.721364498138428 26.54141235351562 C 6.786305904388428 21.65934181213379 9.742764472961426 17.27447128295898 13.50862312316895 13.50862312316895 C 17.27447128295898 9.742764472961426 21.65934181213379 6.786305904388428 26.54141235351562 4.721364498138428 C 31.59512901306152 2.583823442459106 36.96437835693359 1.5 42.5 1.5 C 48.03562164306641 1.5 53.40486907958984 2.583823442459106 58.45858764648438 4.721364498138428 C 63.34066009521484 6.786305904388428 67.72553253173828 9.742764472961426 71.49137878417969 13.50862312316895 C 75.25723266601562 17.27447128295898 78.21369171142578 21.65934181213379 80.27863311767578 26.54141235351562 C 82.41617584228516 31.59512901306152 83.5 36.96437835693359 83.5 42.5 C 83.5 48.03562164306641 82.41617584228516 53.40486907958984 80.27863311767578 58.45858764648438 C 78.21369171142578 63.34066009521484 75.25723266601562 67.72553253173828 71.49137878417969 71.49137878417969 C 67.72553253173828 75.25723266601562 63.34066009521484 78.21369171142578 58.45858764648438 80.27863311767578 C 53.40486907958984 82.41617584228516 48.03562164306641 83.5 42.5 83.5 Z" stroke="none"/>
                      <path d="M 42.5 3 C 37.16621398925781 3 31.99356079101562 4.043960571289062 27.125732421875 6.102882385253906 C 22.42246627807617 8.092185974121094 18.19785308837891 10.94070434570312 14.56928253173828 14.56928253173828 C 10.94070434570312 18.19785308837891 8.092185974121094 22.42246627807617 6.102882385253906 27.125732421875 C 4.043960571289062 31.99356079101562 3 37.16621398925781 3 42.5 C 3 47.83378601074219 4.043960571289062 53.00643920898438 6.102882385253906 57.87425231933594 C 8.092185974121094 62.57753372192383 10.94070434570312 66.80213165283203 14.56928253173828 70.43071746826172 C 18.19786834716797 74.05929565429688 22.42246627807617 76.90781402587891 27.125732421875 78.89711761474609 C 31.99356079101562 80.95603942871094 37.16621398925781 82 42.5 82 C 47.83378601074219 82 53.00642395019531 80.95603942871094 57.87425231933594 78.89711761474609 C 62.57753372192383 76.90781402587891 66.80213165283203 74.05929565429688 70.43071746826172 70.43071746826172 C 74.05929565429688 66.80213165283203 76.90781402587891 62.57753372192383 78.89711761474609 57.87425231933594 C 80.95603942871094 53.00642395019531 82 47.83378601074219 82 42.5 C 82 37.16621398925781 80.95603942871094 31.99356079101562 78.89711761474609 27.125732421875 C 76.90781402587891 22.42246627807617 74.05929565429688 18.19786834716797 70.43071746826172 14.56928253173828 C 66.80213165283203 10.94070434570312 62.57753372192383 8.092185974121094 57.87425231933594 6.102882385253906 C 53.00643920898438 4.043960571289062 47.83378601074219 3 42.5 3 M 42.5 0 C 65.97209167480469 0 85 19.02789306640625 85 42.5 C 85 65.97209167480469 65.97209167480469 85 42.5 85 C 19.02789306640625 85 0 65.97209167480469 0 42.5 C 0 19.02789306640625 19.02789306640625 0 42.5 0 Z" stroke="none" fill="#11f5d8"/>
                    </g>
                  </g>
                </g>
              </g>
            </g>
          </g>
        </g>
        <g id="programmer_10061736" transform="translate(177.381 2884.438)">
          <path id="Path_1043720" data-name="Path 1043720" d="M31.332,409.537V403.9h2.76v9.152Z" transform="translate(-10.595 -356.467)" fill="#f7a166"/>
          <path id="Path_1043721" data-name="Path 1043721" d="M259.868,403.9h2.76v5.641l-2.76,3.512Z" transform="translate(-212.295 -356.467)" fill="#f7a166"/>
          <path id="Path_1043722" data-name="Path 1043722" d="M64.838,393.64V380.207a.727.727,0,0,1,.717-.717H85.848a.718.718,0,0,1,.717.717V393.64H64.838Z" transform="translate(-40.167 -334.926)" fill="#4f5d99"/>
          <g id="Group_1181674" data-name="Group 1181674" transform="translate(22.714 13.726)">
            <path id="Path_1043723" data-name="Path 1043723" d="M84.034,194c-2.5,0-4.879-1.389-6.7-3.912a17.731,17.731,0,0,1-3.046-9.433l-.012-.246h1.079v1.09a3,3,0,0,0,3,3h1.961a3,3,0,0,0,2.952-2.466l.035-.193h1.206l.035.193a3,3,0,0,0,2.953,2.466h1.961a3,3,0,0,0,3-3V180.4h1.335l-.012.246a17.729,17.729,0,0,1-3.047,9.433C88.914,192.607,86.535,194,84.034,194Zm-3-5.386a3.633,3.633,0,0,0,6.006,0l.373-.454-.907-.747-.373.454a2.474,2.474,0,0,1-4.193,0l-.374-.453-.905.749Z" transform="translate(-71.213 -172.946)" fill="#f7a166"/>
            <path id="Path_1043724" data-name="Path 1043724" d="M95.292,177.789a1.825,1.825,0,0,1-1.823-1.823V174.14h5.609v1.826a1.826,1.826,0,0,1-1.826,1.823Zm1.569-1.105v-1.438H95.686v1.438Z" transform="translate(-88.15 -167.417)" fill="#f7a166"/>
            <path id="Path_1043725" data-name="Path 1043725" d="M123.713,300.394a4.482,4.482,0,0,1-4.476-4.479V294.8l.352.2a8.092,8.092,0,0,0,8.251,0l.352-.2v1.116A4.484,4.484,0,0,1,123.713,300.394Z" transform="translate(-110.892 -273.907)" fill="#f7a166"/>
            <path id="Path_1043726" data-name="Path 1043726" d="M83.241,124.6v-1.576a.588.588,0,0,0-.587-.587H75.87a.586.586,0,0,0-.584.525l-.022.21h-1.07l.007-.242a19.816,19.816,0,0,1,.936-5.53l.081-.249.239.107a19.809,19.809,0,0,0,7.911,1.536c.4,0,.808-.01,1.211-.031a22.232,22.232,0,0,0,7.8-1.772l.234-.1.083.242a19.721,19.721,0,0,1,1.026,5.8l.007.242H92.4l-.022-.21a.585.585,0,0,0-.584-.525H85.007a.588.588,0,0,0-.587.587V124.6H83.241Z" transform="translate(-71.138 -116.885)" fill="#f7a166"/>
            <path id="Path_1043727" data-name="Path 1043727" d="M173.108,177.789a1.826,1.826,0,0,1-1.826-1.823V174.14h5.613v1.826a1.826,1.826,0,0,1-1.826,1.823Zm1.569-1.105v-1.438H173.5v1.438Z" transform="translate(-156.825 -167.417)" fill="#f7a166"/>
            <path id="Path_1043728" data-name="Path 1043728" d="M50.31,189.163c-.766,0-1.809-1.2-2.079-2.934a4.514,4.514,0,0,1-.019-1.333l.454-.045a16.206,16.206,0,0,0,1.987,3.884l.024.035.07.272-.194.076A.651.651,0,0,1,50.31,189.163Z" transform="translate(-48.171 -176.87)" fill="#f7a166"/>
          </g>
          <path id="Path_1043729" data-name="Path 1043729" d="M65.08,25.082c-4.224,0-7.977-1.169-10.037-3.127A4.4,4.4,0,0,1,53.5,18.741c0-2.252,1.873-4.449,4.888-5.734a12.244,12.244,0,0,1,4.691-.97,7.912,7.912,0,0,1,5.588,2.019l.007.006.006.007a4.914,4.914,0,0,0,3.682,1.492c.145,0,.292-.005.437-.016a5.782,5.782,0,0,0,3.873-1.8l.147-.162.172.135a4.72,4.72,0,0,1,2.074,3.67c0,1.812-1.291,3.607-3.637,5.054a19.651,19.651,0,0,1-9.175,2.608c-.39.02-.785.03-1.173.03Z" transform="translate(-30.159 -10.623)" fill="#6c3315"/>
          <path id="Path_1043730" data-name="Path 1043730" d="M58.169,297.31v-.974a1.894,1.894,0,0,0-1.892-1.892H35.984a1.894,1.894,0,0,0-1.892,1.892v.974h-2.76v-8.147l.087-.07a24.8,24.8,0,0,1,8.56-4.6l.127-.038.1.09c.065.059.13.117.195.174l.08.07v2a5.652,5.652,0,1,0,11.3,0v-2l.08-.07c.064-.056.129-.113.192-.172l.1-.09.128.038a24.79,24.79,0,0,1,8.559,4.594l.087.071v8.147h-2.76Z" transform="translate(-10.595 -251.055)" fill="#0cb4fb"/>
          <path id="Path_1043731" data-name="Path 1043731" d="M54.547,110.93a16.661,16.661,0,0,1-.765-5.01,13.678,13.678,0,0,1,.4-3.4l.1-.381.289.267A9.388,9.388,0,0,0,56,103.484l.159.1-.06.177A21.291,21.291,0,0,0,55,110.55c0,.061,0,.122,0,.184l0,.122Z" transform="translate(-30.409 -90.149)" fill="#53290e"/>
          <path id="Path_1043732" data-name="Path 1043732" d="M245.053,189.173a.671.671,0,0,1-.238-.044l-.2-.074.067-.265.027-.045a16.2,16.2,0,0,0,1.986-3.883l.454.044a4.451,4.451,0,0,1-.021,1.331C246.862,187.968,245.82,189.173,245.053,189.173Z" transform="translate(-198.836 -163.155)" fill="#f7a166"/>
          <path id="Path_1043733" data-name="Path 1043733" d="M225.472,191.164V182.74a.586.586,0,0,0-.212-.452,26.345,26.345,0,0,0-8.5-4.82l-.322-.108.215-.264c.229-.281.449-.574.655-.872a16.67,16.67,0,0,0,2.025-4.061l.075-.216.218.069a1.845,1.845,0,0,0,.556.086c1.5,0,2.889-1.689,3.24-3.929a4.113,4.113,0,0,0-.861-3.578l-.43-.406h25.335v26.973H225.472Zm17.083-2.953v-1.175H228.818v1.175Zm0-3.1v-1.175h-8.408v1.175Zm-10.032-3.8,3.59-13.4-1.135-.3-3.59,13.4Zm-7.4-7.566a.591.591,0,0,0-.172.415.584.584,0,0,0,.172.416l4.377,4.373.83-.831-3.961-3.958,3.961-3.958-.83-.831Zm12.891,5.187,4.373-4.373a.588.588,0,0,0,0-.83l-4.373-4.377-.831.83,3.958,3.961L237.18,178.1Z" transform="translate(-173.965 -144.91)" fill="#e9e9ff"/>
          <path id="Path_1043734" data-name="Path 1043734" d="M241.253,110.292c0-.041,0-.082,0-.124,0-.061,0-.121,0-.182a21.2,21.2,0,0,0-1.173-7.02l-.066-.186.171-.1c.169-.1.323-.187.472-.278.354-.218.7-.451,1.014-.691l.277-.209.091.335a13.528,13.528,0,0,1,.433,3.516,16.657,16.657,0,0,1-.765,5.01Z" transform="translate(-194.777 -89.585)" fill="#53290e"/>
          <path id="Path_1043735" data-name="Path 1043735" d="M269.669,123.436l.03-.262a18.118,18.118,0,0,0,.12-2.074c0-.507-.022-1.012-.066-1.5l-.023-.256h24.716v4.091H269.669Zm21.5-1.458V120.8H289.8v1.175Zm-3.462,0V120.8h-1.378v1.175Zm-3.462,0V120.8h-1.378v1.175Z" transform="translate(-220.945 -105.33)" fill="#293d7c"/>
          <path id="Path_1043736" data-name="Path 1043736" d="M40.8,23.227H39.157V21.32H40.8Zm21.635-.4-1.588-.426L57.137,36.258l1.588.426ZM31.66,21.32H30.016v1.907H31.66Zm3.875,9.893a4.119,4.119,0,0,0,3.185-1.674l.522-.635-1.27-1.045-.523.635a2.6,2.6,0,0,1-1.915,1.075,2.614,2.614,0,0,1-1.916-1.077l-.524-.634-1.267,1.048.524.634A4.13,4.13,0,0,0,35.535,31.213ZM74.911,13.427V46.841a.822.822,0,0,1-.822.822H51.743v5.609a.822.822,0,0,1-.176.508l-3.692,4.7h3.868v1.644H19.327V58.479h3.868l-3.692-4.7a.822.822,0,0,1-.176-.508V37.831a.823.823,0,0,1,.3-.632A26.568,26.568,0,0,1,28.2,32.337q-.344-.422-.666-.887a16.922,16.922,0,0,1-2.054-4.119,2.084,2.084,0,0,1-.63.1c-1.611,0-3.1-1.774-3.472-4.127a4.278,4.278,0,0,1,.968-3.814,18.237,18.237,0,0,1-.385-3.716,14.1,14.1,0,0,1,.782-4.846,5.344,5.344,0,0,1-.816-2.807c0-2.826,2.2-5.52,5.745-7.031A13.354,13.354,0,0,1,33.809.034a9.085,9.085,0,0,1,5.7,2.4c.016.016.032.032.047.049a3.621,3.621,0,0,0,2.987,1.029,4.221,4.221,0,0,0,3.272-1.8.822.822,0,0,1,1.148-.261c2.163,1.4,3.354,3.287,3.354,5.307a6.348,6.348,0,0,1-1.922,4.35A12.174,12.174,0,0,1,48.8,12.6H74.089a.822.822,0,0,1,.822.822Zm-49.9,12.327L25,25.725a16.459,16.459,0,0,1-2.016-3.94,4.307,4.307,0,0,0,.018,1.263c.265,1.694,1.254,2.735,1.847,2.735A.413.413,0,0,0,25.011,25.755Zm.452-12.22A9.584,9.584,0,0,1,24,12.434a13.4,13.4,0,0,0-.393,3.337,16.484,16.484,0,0,0,.754,4.939c0-.1-.005-.205-.005-.309a21.406,21.406,0,0,1,1.107-6.867Zm10.619.66a19.415,19.415,0,0,0,9.063-2.574c2.273-1.4,3.525-3.126,3.525-4.854a4.534,4.534,0,0,0-1.983-3.485,6.039,6.039,0,0,1-4.03,1.875A5.27,5.27,0,0,1,38.345,3.6a7.726,7.726,0,0,0-5.426-1.955,11.955,11.955,0,0,0-4.6.952c-2.927,1.247-4.745,3.362-4.745,5.518a4.172,4.172,0,0,0,1.471,3.043C27.26,13.266,31.489,14.428,36.082,14.194ZM46.716,20.4c0,.1,0,.206-.005.309a16.484,16.484,0,0,0,.754-4.939,13.266,13.266,0,0,0-.424-3.454q-.483.364-1.032.7-.235.145-.479.283a21.369,21.369,0,0,1,1.186,7.1Zm-.655,5.354a.432.432,0,0,0,.155.028c.593,0,1.582-1.041,1.847-2.737a4.217,4.217,0,0,0,.021-1.26,16.456,16.456,0,0,1-2.016,3.939Zm-20.05-5.98h.617a.822.822,0,0,1,.818-.736H34.23a.822.822,0,0,1,.822.822V21.2h.709V19.862a.822.822,0,0,1,.822-.822h6.787a.822.822,0,0,1,.818.736h.873a19.625,19.625,0,0,0-1.013-5.731,22.474,22.474,0,0,1-7.883,1.792q-.615.031-1.223.031a19.905,19.905,0,0,1-8.007-1.557A19.689,19.689,0,0,0,26.012,19.775Zm11.394.909v1.591A1.591,1.591,0,0,0,39,23.863h1.961a1.591,1.591,0,0,0,1.591-1.588V20.684Zm-9.137,0v1.591a1.59,1.59,0,0,0,1.588,1.588h1.961a1.591,1.591,0,0,0,1.591-1.588V20.684Zm7.267,13.858c5.028,0,9.159-5.8,9.512-13.122h-.854v.855a3.238,3.238,0,0,1-3.236,3.232H39a3.239,3.239,0,0,1-3.184-2.66H35a3.239,3.239,0,0,1-3.184,2.66H29.856a3.236,3.236,0,0,1-3.232-3.232V21.42h-.6C26.379,28.743,30.509,34.542,35.535,34.542Zm0,1.644a8.449,8.449,0,0,1-4.241-1.161v.709a4.242,4.242,0,1,0,8.485,0v-.71a8.456,8.456,0,0,1-4.244,1.162ZM23.262,47.664h-2.29v5.325l2.29,2.914Zm22.9-2.383a.483.483,0,0,0-.483-.483H25.389a.489.489,0,0,0-.483.483v13.2H46.164V45.28ZM50.1,47.664h-2.29V55.9l2.29-2.914Zm0-9.444a24.534,24.534,0,0,0-8.478-4.552c-.065.06-.131.118-.2.175v1.89a5.887,5.887,0,1,1-11.774,0v-1.89q-.1-.087-.2-.177a24.542,24.542,0,0,0-8.479,4.553v7.8h2.29V45.28a2.13,2.13,0,0,1,2.127-2.127H45.681a2.13,2.13,0,0,1,2.127,2.127v.739H50.1Zm23.168-18.7H48.758a4.3,4.3,0,0,1,.931,3.785c-.368,2.353-1.861,4.127-3.472,4.127a2.076,2.076,0,0,1-.627-.1,16.921,16.921,0,0,1-2.054,4.118q-.322.465-.666.887A26.55,26.55,0,0,1,51.446,37.2a.822.822,0,0,1,.3.632v8.189H73.266v-26.5Zm0-5.266H49.042q.067.739.067,1.521a18.286,18.286,0,0,1-.122,2.1H73.266ZM55.531,34.366,56.694,33.2l-3.961-3.957,3.961-3.957-1.162-1.163-4.543,4.539a.822.822,0,0,0,0,1.163ZM63.54,15.238H61.692v1.644H63.54Zm3.462,0H65.154v1.644H67Zm3.462,0H68.616v1.644h1.848Zm-10.516,25.2h8.878V38.789H59.948Zm-5.329,3.1H68.826V41.892H54.619Zm9.427-9.186,4.539-4.539a.822.822,0,0,0,0-1.163L64.046,24.1l-1.163,1.162,3.958,3.962-3.958,3.958Z" transform="translate(0 0)"/>
        </g>
      </g>
    </g>
  </g>
</svg>
