<svg xmlns="http://www.w3.org/2000/svg" xmlns:xlink="http://www.w3.org/1999/xlink" width="103" height="103" viewBox="0 0 103 103">
  <defs>
    <filter id="Path_978624" x="0" y="0" width="103" height="103" filterUnits="userSpaceOnUse">
      <feOffset dy="3" input="SourceAlpha"/>
      <feGaussianBlur stdDeviation="3" result="blur"/>
      <feFlood flood-opacity="0.161"/>
      <feComposite operator="in" in2="blur"/>
      <feComposite in="SourceGraphic"/>
    </filter>
  </defs>
  <g id="Group_1181714" data-name="Group 1181714" transform="translate(-185 -17336)">
    <g id="Group_1181503" data-name="Group 1181503" transform="translate(14 14470)">
      <g id="Group_1176881" data-name="Group 1176881">
        <g id="Group_1175148" data-name="Group 1175148" transform="translate(0 1580)">
          <g id="Group_1173798" data-name="Group 1173798" transform="translate(-3 -3520)">
            <g id="Group_1171925" data-name="Group 1171925" transform="translate(-22 -2246)">
              <g id="Group_1164524" data-name="Group 1164524" transform="translate(205 7058)">
                <g id="Group_1144123" data-name="Group 1144123">
                  <g transform="matrix(1, 0, 0, 1, -9, -6)" filter="url(#Path_978624)">
                    <g id="Path_978624-2" data-name="Path 978624" transform="translate(9 6)" fill="#e5ebfb">
                      <path d="M 42.5 83.5 C 36.96437835693359 83.5 31.59512901306152 82.41617584228516 26.54141235351562 80.27863311767578 C 21.65934181213379 78.21369171142578 17.27447128295898 75.25723266601562 13.50862312316895 71.49137878417969 C 9.742764472961426 67.72553253173828 6.786305904388428 63.34066009521484 4.721364498138428 58.45858764648438 C 2.583823442459106 53.40486907958984 1.5 48.03562164306641 1.5 42.5 C 1.5 36.96437835693359 2.583823442459106 31.59512901306152 4.721364498138428 26.54141235351562 C 6.786305904388428 21.65934181213379 9.742764472961426 17.27447128295898 13.50862312316895 13.50862312316895 C 17.27447128295898 9.742764472961426 21.65934181213379 6.786305904388428 26.54141235351562 4.721364498138428 C 31.59512901306152 2.583823442459106 36.96437835693359 1.5 42.5 1.5 C 48.03562164306641 1.5 53.40486907958984 2.583823442459106 58.45858764648438 4.721364498138428 C 63.34066009521484 6.786305904388428 67.72553253173828 9.742764472961426 71.49137878417969 13.50862312316895 C 75.25723266601562 17.27447128295898 78.21369171142578 21.65934181213379 80.27863311767578 26.54141235351562 C 82.41617584228516 31.59512901306152 83.5 36.96437835693359 83.5 42.5 C 83.5 48.03562164306641 82.41617584228516 53.40486907958984 80.27863311767578 58.45858764648438 C 78.21369171142578 63.34066009521484 75.25723266601562 67.72553253173828 71.49137878417969 71.49137878417969 C 67.72553253173828 75.25723266601562 63.34066009521484 78.21369171142578 58.45858764648438 80.27863311767578 C 53.40486907958984 82.41617584228516 48.03562164306641 83.5 42.5 83.5 Z" stroke="none"/>
                      <path d="M 42.5 3 C 37.16621398925781 3 31.99356079101562 4.043960571289062 27.125732421875 6.102882385253906 C 22.42246627807617 8.092185974121094 18.19785308837891 10.94070434570312 14.56928253173828 14.56928253173828 C 10.94070434570312 18.19785308837891 8.092185974121094 22.42246627807617 6.102882385253906 27.125732421875 C 4.043960571289062 31.99356079101562 3 37.16621398925781 3 42.5 C 3 47.83378601074219 4.043960571289062 53.00643920898438 6.102882385253906 57.87425231933594 C 8.092185974121094 62.57753372192383 10.94070434570312 66.80213165283203 14.56928253173828 70.43071746826172 C 18.19786834716797 74.05929565429688 22.42246627807617 76.90781402587891 27.125732421875 78.89711761474609 C 31.99356079101562 80.95603942871094 37.16621398925781 82 42.5 82 C 47.83378601074219 82 53.00642395019531 80.95603942871094 57.87425231933594 78.89711761474609 C 62.57753372192383 76.90781402587891 66.80213165283203 74.05929565429688 70.43071746826172 70.43071746826172 C 74.05929565429688 66.80213165283203 76.90781402587891 62.57753372192383 78.89711761474609 57.87425231933594 C 80.95603942871094 53.00642395019531 82 47.83378601074219 82 42.5 C 82 37.16621398925781 80.95603942871094 31.99356079101562 78.89711761474609 27.125732421875 C 76.90781402587891 22.42246627807617 74.05929565429688 18.19786834716797 70.43071746826172 14.56928253173828 C 66.80213165283203 10.94070434570312 62.57753372192383 8.092185974121094 57.87425231933594 6.102882385253906 C 53.00643920898438 4.043960571289062 47.83378601074219 3 42.5 3 M 42.5 0 C 65.97209167480469 0 85 19.02789306640625 85 42.5 C 85 65.97209167480469 65.97209167480469 85 42.5 85 C 19.02789306640625 85 0 65.97209167480469 0 42.5 C 0 19.02789306640625 19.02789306640625 0 42.5 0 Z" stroke="none" fill="#11f5d8"/>
                    </g>
                  </g>
                </g>
              </g>
            </g>
          </g>
        </g>
      </g>
      <g id="Coding" transform="translate(193.415 2885.416)">
        <path id="Path_1043788" data-name="Path 1043788" d="M50.142,17H8.611A3.611,3.611,0,0,0,5,20.611V45.891A3.611,3.611,0,0,0,8.611,49.5h41.53a3.611,3.611,0,0,0,3.611-3.611V20.611A3.611,3.611,0,0,0,50.142,17Z" transform="translate(-0.292 -1.458)" fill="#57a4ff"/>
        <path id="Path_1043789" data-name="Path 1043789" d="M54.806,17H53a3.611,3.611,0,0,1,3.611,3.611V45.891A3.611,3.611,0,0,1,53,49.5h1.806a3.611,3.611,0,0,0,3.611-3.611V20.611A3.611,3.611,0,0,0,54.806,17Z" transform="translate(-4.956 -1.458)" fill="#2488ff"/>
        <path id="Path_1043790" data-name="Path 1043790" d="M8.417,53H3v3.611a3.611,3.611,0,0,0,3.611,3.611H51.753a3.611,3.611,0,0,0,3.611-3.611V53Z" transform="translate(-0.097 -4.956)" fill="#005ece"/>
        <path id="Path_1043791" data-name="Path 1043791" d="M58.611,53v3.611A3.611,3.611,0,0,1,55,60.223h1.806a3.611,3.611,0,0,0,3.611-3.611V53Z" transform="translate(-5.15 -4.956)" fill="#004fac"/>
        <path id="Path_1043792" data-name="Path 1043792" d="M27,54.806a1.806,1.806,0,0,0,1.806,1.806h5.417a1.806,1.806,0,0,0,1.806-1.806V53H27Z" transform="translate(-2.429 -4.956)" fill="#ffcd00"/>
        <path id="Path_1043793" data-name="Path 1043793" d="M9,21H50.53V46.279H9Z" transform="translate(-0.68 -1.846)" fill="#ffdaaa"/>
        <path id="Path_1043794" data-name="Path 1043794" d="M40.474,3H20.611A3.611,3.611,0,0,0,17,6.611v9.931a3.611,3.611,0,0,0,3.611,3.611H23.32v6.32l5.417-6.32H40.474a3.611,3.611,0,0,0,3.611-3.611V6.611A3.611,3.611,0,0,0,40.474,3Z" transform="translate(-1.458 -0.097)" fill="#ffcd00"/>
        <path id="Path_1043795" data-name="Path 1043795" d="M26,46.279H52.182V21C52.182,35.971,40.471,46.279,26,46.279Z" transform="translate(-2.332 -1.846)" fill="#ffc477"/>
        <path id="Path_1043796" data-name="Path 1043796" d="M55.267,47.141H53.438a4.467,4.467,0,0,0,.926-2.708V19.154A4.52,4.52,0,0,0,49.85,14.64H43.53V6.514A4.52,4.52,0,0,0,39.016,2H19.154A4.52,4.52,0,0,0,14.64,6.514V14.64H8.32a4.52,4.52,0,0,0-4.514,4.514V44.433a4.467,4.467,0,0,0,.926,2.708H2.9a.9.9,0,0,0-.9.9v3.611A4.52,4.52,0,0,0,6.514,56.17H51.656a4.52,4.52,0,0,0,4.514-4.514V48.044A.9.9,0,0,0,55.267,47.141ZM16.445,6.514a2.708,2.708,0,0,1,2.708-2.708H39.016a2.708,2.708,0,0,1,2.708,2.708v9.931a2.708,2.708,0,0,1-2.708,2.708H27.279a.9.9,0,0,0-.685.315l-3.829,4.47V20.057a.9.9,0,0,0-.9-.9H19.154a2.708,2.708,0,0,1-2.708-2.708ZM5.611,44.433V19.154A2.708,2.708,0,0,1,8.32,16.445h6.32a4.52,4.52,0,0,0,4.514,4.514h1.806v5.417a.9.9,0,0,0,1.588.588l5.147-6H39.016a4.52,4.52,0,0,0,4.514-4.514h6.32a2.708,2.708,0,0,1,2.708,2.708V44.433a2.708,2.708,0,0,1-2.708,2.708H8.32A2.708,2.708,0,0,1,5.611,44.433Zm19.862,4.514H32.7v.9a.9.9,0,0,1-.9.9H26.376a.9.9,0,0,1-.9-.9Zm28.891,2.708a2.708,2.708,0,0,1-2.708,2.708H6.514a2.708,2.708,0,0,1-2.708-2.708V48.947H23.668v.9a2.708,2.708,0,0,0,2.708,2.708h5.417A2.708,2.708,0,0,0,34.5,49.85v-.9H54.364Z"/>
        <path id="Path_1043797" data-name="Path 1043797" d="M51.336,46.182V20.9a.9.9,0,0,0-.9-.9H45.919a.9.9,0,0,0,0,1.806H49.53V45.279H9.806V21.806h3.611a.9.9,0,1,0,0-1.806H8.9a.9.9,0,0,0-.9.9V46.182a.9.9,0,0,0,.9.9h41.53A.9.9,0,0,0,51.336,46.182Z" transform="translate(-0.583 -1.749)"/>
        <path id="Path_1043798" data-name="Path 1043798" d="M14,28.9a.9.9,0,0,0,.9.9h1.806a.9.9,0,1,0,0-1.806H14.9A.9.9,0,0,0,14,28.9Z" transform="translate(-1.166 -2.526)"/>
        <path id="Path_1043799" data-name="Path 1043799" d="M16.708,32H14.9a.9.9,0,1,0,0,1.806h1.806a.9.9,0,1,0,0-1.806Z" transform="translate(-1.166 -2.915)"/>
        <path id="Path_1043800" data-name="Path 1043800" d="M16.708,36H14.9a.9.9,0,1,0,0,1.806h1.806a.9.9,0,1,0,0-1.806Z" transform="translate(-1.166 -3.304)"/>
        <path id="Path_1043801" data-name="Path 1043801" d="M16.708,40H14.9a.9.9,0,1,0,0,1.806h1.806a.9.9,0,1,0,0-1.806Z" transform="translate(-1.166 -3.692)"/>
        <path id="Path_1043802" data-name="Path 1043802" d="M16.708,44H14.9a.9.9,0,0,0,0,1.806h1.806a.9.9,0,0,0,0-1.806Z" transform="translate(-1.166 -4.081)"/>
        <path id="Path_1043803" data-name="Path 1043803" d="M29.9,29.806H47.057a.9.9,0,0,0,0-1.806H29.9a.9.9,0,1,0,0,1.806Z" transform="translate(-2.624 -2.526)"/>
        <path id="Path_1043804" data-name="Path 1043804" d="M28.9,33.806H43.348a.9.9,0,1,0,0-1.806H28.9a.9.9,0,1,0,0,1.806Z" transform="translate(-2.526 -2.915)"/>
        <path id="Path_1043805" data-name="Path 1043805" d="M20.9,37.806H31.737a.9.9,0,1,0,0-1.806H20.9a.9.9,0,1,0,0,1.806Z" transform="translate(-1.749 -3.304)"/>
        <path id="Path_1043806" data-name="Path 1043806" d="M20.9,41.806H31.737a.9.9,0,1,0,0-1.806H20.9a.9.9,0,1,0,0,1.806Z" transform="translate(-1.749 -3.692)"/>
        <path id="Path_1043807" data-name="Path 1043807" d="M20.9,45.806H31.737a.9.9,0,0,0,0-1.806H20.9a.9.9,0,0,0,0,1.806Z" transform="translate(-1.749 -4.081)"/>
        <path id="Path_1043808" data-name="Path 1043808" d="M20.4,12.363l5.417,3.611a.9.9,0,1,0,1-1.5L22.7,11.724l4.026-2.008A.9.9,0,0,0,25.916,8.1L20.5,10.808a.9.9,0,0,0-.1,1.559Z" transform="translate(-1.749 -0.583)"/>
        <path id="Path_1043809" data-name="Path 1043809" d="M36.5,9.716l4.026,2.012L36.4,14.476a.9.9,0,0,0,1,1.5l5.417-3.611a.9.9,0,0,0-.1-1.559L37.306,8.1A.9.9,0,1,0,36.5,9.716Z" transform="translate(-3.304 -0.583)"/>
        <path id="Path_1043810" data-name="Path 1043810" d="M29.594,17.679a.9.9,0,0,0,1.157-.542l3.611-9.931a.9.9,0,1,0-1.7-.618L29.055,16.52a.9.9,0,0,0,.539,1.159Z" transform="translate(-2.624 -0.385)"/>
        <path id="Path_1043811" data-name="Path 1043811" d="M20.9,33.806h3.611a.9.9,0,1,0,0-1.806H20.9a.9.9,0,1,0,0,1.806Z" transform="translate(-1.749 -2.915)"/>
        <path id="Path_1043812" data-name="Path 1043812" d="M45.028,36.9a.9.9,0,0,0-.9-.9H36.9a.9.9,0,0,0,0,1.806h7.223A.9.9,0,0,0,45.028,36.9Z" transform="translate(-3.304 -3.304)"/>
        <path id="Path_1043813" data-name="Path 1043813" d="M38.708,40H36.9a.9.9,0,0,0,0,1.806h1.806a.9.9,0,1,0,0-1.806Z" transform="translate(-3.304 -3.692)"/>
        <path id="Path_1043814" data-name="Path 1043814" d="M38.708,44H36.9a.9.9,0,0,0,0,1.806h1.806a.9.9,0,0,0,0-1.806Z" transform="translate(-3.304 -4.081)"/>
      </g>
    </g>
  </g>
</svg>
