<svg xmlns="http://www.w3.org/2000/svg" xmlns:xlink="http://www.w3.org/1999/xlink" width="108" height="108" viewBox="0 0 108 108">
  <defs>
    <filter id="Path_904820" x="0" y="0" width="108" height="108" filterUnits="userSpaceOnUse">
      <feOffset dy="3" input="SourceAlpha"/>
      <feGaussianBlur stdDeviation="3" result="blur"/>
      <feFlood flood-opacity="0.161"/>
      <feComposite operator="in" in2="blur"/>
      <feComposite in="SourceGraphic"/>
    </filter>
  </defs>
  <g id="Group_1181682" data-name="Group 1181682" transform="translate(-200 -543)">
    <g id="Group_1174741" data-name="Group 1174741" transform="translate(209 549)">
      <g id="Group_1173585" data-name="Group 1173585" transform="translate(0 0)">
        <g id="Group_1173428" data-name="Group 1173428">
          <g id="Group_1171958" data-name="Group 1171958">
            <g id="Group_1167341" data-name="Group 1167341">
              <g id="Group_1166792" data-name="Group 1166792">
                <g transform="matrix(1, 0, 0, 1, -9, -6)" filter="url(#Path_904820)">
                  <g id="Path_904820-2" data-name="Path 904820" transform="translate(9 6)" fill="#e5fdfa">
                    <path d="M 44.99999618530273 88.50003051757812 C 39.12687301635742 88.50003051757812 33.43022155761719 87.35010528564453 28.06829643249512 85.08219146728516 C 22.88852119445801 82.89134216308594 18.23629570007324 79.75461578369141 14.24084663391113 75.75916290283203 C 10.24540901184082 71.76371765136719 7.108683586120605 67.11148834228516 4.917821407318115 61.93171691894531 C 2.649921178817749 56.56978988647461 1.499996185302734 50.87313842773438 1.499996185302734 45.00001525878906 C 1.499996185302734 39.12689208984375 2.649921178817749 33.43024063110352 4.917821407318115 28.06830215454102 C 7.108683586120605 22.88852691650391 10.24540901184082 18.23631477355957 14.24084663391113 14.24086570739746 C 18.23629570007324 10.24541568756104 22.88852119445801 7.10869026184082 28.06829643249512 4.917827606201172 C 33.43022155761719 2.649927854537964 39.12687301635742 1.50000274181366 44.99999618530273 1.50000274181366 C 50.87311935424805 1.50000274181366 56.56977081298828 2.649927854537964 61.93169784545898 4.917827606201172 C 67.11147308349609 7.10869026184082 71.76369476318359 10.24541568756104 75.75914764404297 14.24086570739746 C 79.75458526611328 18.23631477355957 82.89131164550781 22.88852691650391 85.08216857910156 28.06830215454102 C 87.35007476806641 33.43024063110352 88.5 39.12689208984375 88.5 45.00001525878906 C 88.5 50.87313842773438 87.35007476806641 56.56978988647461 85.08216857910156 61.93171691894531 C 82.89131164550781 67.11148834228516 79.75458526611328 71.76371765136719 75.75914764404297 75.75916290283203 C 71.76369476318359 79.75461578369141 67.11147308349609 82.89134216308594 61.93169784545898 85.08219146728516 C 56.56977081298828 87.35010528564453 50.87311935424805 88.50003051757812 44.99999618530273 88.50003051757812 Z" stroke="none"/>
                    <path d="M 44.99999618530273 3 C 39.32870864868164 3 33.82865142822266 4.110061645507812 28.65262603759766 6.299346923828125 C 23.65165710449219 8.414573669433594 19.15968322753906 11.44334411621094 15.301513671875 15.301513671875 C 11.44333648681641 19.15968322753906 8.414566040039062 23.65165710449219 6.299339294433594 28.65262985229492 C 4.110054016113281 33.82867050170898 2.999992370605469 39.32872772216797 2.999992370605469 45.00001525878906 C 2.999992370605469 50.67130279541016 4.110054016113281 56.17136001586914 6.299339294433594 61.34738922119141 C 8.414566040039062 66.34837341308594 11.44333648681641 70.84033203125 15.301513671875 74.69850158691406 C 19.15968322753906 78.55668640136719 23.65165710449219 81.58545684814453 28.65262603759766 83.70068359375 C 33.82865142822266 85.88996887207031 39.32870864868164 87.00003051757812 44.99999618530273 87.00003051757812 C 50.67128372192383 87.00003051757812 56.17134094238281 85.88996887207031 61.34736633300781 83.70068359375 C 66.34834289550781 81.58545684814453 70.84030914306641 78.55668640136719 74.69847869873047 74.69850158691406 C 78.55665588378906 70.84033203125 81.58542633056641 66.34837341308594 83.70065307617188 61.34738922119141 C 85.88993835449219 56.17136001586914 87 50.67130279541016 87 45.00001525878906 C 87 39.32872772216797 85.88993835449219 33.82867050170898 83.70065307617188 28.65262985229492 C 81.58542633056641 23.65165710449219 78.55665588378906 19.15968322753906 74.69847869873047 15.301513671875 C 70.84030914306641 11.44334411621094 66.34834289550781 8.414573669433594 61.34736633300781 6.299346923828125 C 56.17134094238281 4.110061645507812 50.67128372192383 3 44.99999618530273 3 M 44.99999618530273 0 C 69.85281372070312 0 90 20.14718627929688 90 45.00001525878906 C 90 69.85282897949219 69.85281372070312 90.00003051757812 44.99999618530273 90.00003051757812 C 20.14717864990234 90.00003051757812 -7.62939453125e-06 69.85282897949219 -7.62939453125e-06 45.00001525878906 C -7.62939453125e-06 20.14718627929688 20.14717864990234 0 44.99999618530273 0 Z" stroke="none" fill="#098576"/>
                  </g>
                </g>
              </g>
            </g>
          </g>
        </g>
      </g>
      <g id="programmer_360487_3_" data-name="programmer_360487 (3)" transform="translate(16.771 17.525)">
        <g id="Group_1181509" data-name="Group 1181509" transform="translate(44.778 25.064)">
          <path id="Path_1043545" data-name="Path 1043545" d="M421.473,231.722v1.362H411.7v-1.362a1.435,1.435,0,0,1,1.435-1.436h6.9a1.436,1.436,0,0,1,1.435,1.436Z" transform="translate(-411.7 -230.286)" fill="#ecebed"/>
          <path id="Path_1043546" data-name="Path 1043546" d="M413.186,347.646h8.285v1.748a1.436,1.436,0,0,1-1.435,1.436h-6.9a1.435,1.435,0,0,1-1.435-1.436v-1.748Z" transform="translate(-411.699 -334.882)" fill="#ecebed"/>
        </g>
        <g id="Group_1181510" data-name="Group 1181510" transform="translate(1.142 24.085)">
          <rect id="Rectangle_417986" data-name="Rectangle 417986" width="9.773" height="9.967" transform="translate(43.636 3.776)" fill="#27b5f7"/>
          <path id="Path_1043547" data-name="Path 1043547" d="M37.411,222.829v17.432H10.5V222.829a1.5,1.5,0,0,1,1.467-1.537H35.944a1.5,1.5,0,0,1,1.467,1.537Z" transform="translate(-10.499 -221.292)" fill="#27b5f7"/>
        </g>
        <path id="Path_1043548" data-name="Path 1043548" d="M123.791,319.126v2.214a1.832,1.832,0,0,1-1.127,1.691l-7.313,3.047a4.488,4.488,0,0,0-2.551,4.067v8.82h31.145v-8.82a4.488,4.488,0,0,0-2.551-4.067l-7.313-3.047a1.832,1.832,0,0,1-1.127-1.691v-2.214Z" transform="translate(-100.531 -284.4)" fill="#febba0"/>
        <path id="Path_1043549" data-name="Path 1043549" d="M141.39,345.989l-7.313-3.047a1.831,1.831,0,0,1-1.113-1.475v1.394a4.609,4.609,0,0,1-4.6,4.6h0a4.609,4.609,0,0,1-4.6-4.6V341.5a1.831,1.831,0,0,1-1.11,1.447l-7.313,3.047a4.488,4.488,0,0,0-2.551,4.067v8.82h31.145v-8.82A4.488,4.488,0,0,0,141.39,345.989Z" transform="translate(-100.529 -304.311)" fill="#89cd37"/>
        <path id="Path_1043550" data-name="Path 1043550" d="M161.539,88.4V85.087a10.207,10.207,0,0,0-20.414,0h-.04V88.4a2.545,2.545,0,0,0,0,5.091v1.9a4.992,4.992,0,0,0,2.087,3.811l6.153,3.518a3.531,3.531,0,0,0,3.973,0l6.135-3.518a5.01,5.01,0,0,0,2.106-3.811v-1.9a2.545,2.545,0,1,0,0-5.091Z" transform="translate(-123.471 -66.719)" fill="#febba0"/>
        <path id="Path_1043551" data-name="Path 1043551" d="M165.66,34.828c-1.926-2.454-3.962-2.978-5.474-2.242a8.7,8.7,0,0,0-5.995-2.048,10.04,10.04,0,0,0-10.483,9.819,16.245,16.245,0,0,0,1.983,8.073s.739-5.186,5.816-5.186a8.465,8.465,0,0,0,6.867-3c.607,1.58,3.544,2.244,4.7,3.264a13.635,13.635,0,0,1,3.072,3.6S169.743,40.03,165.66,34.828Z" transform="translate(-128.078 -27.201)" fill="#703e41"/>
        <path id="Path_1043552" data-name="Path 1043552" d="M104.132,252.011h-.015a1.136,1.136,0,1,1,0-2.273h.015a1.136,1.136,0,1,1,0,2.273Z" transform="translate(-91.78 -222.559)"/>
        <path id="Path_1043553" data-name="Path 1043553" d="M43.747,252.011H40.5a1.136,1.136,0,1,1,0-2.273h3.242a1.136,1.136,0,0,1,0,2.273Z" transform="translate(-35.086 -222.559)"/>
        <path id="Path_1043554" data-name="Path 1043554" d="M49.684,312.957H40.5a1.136,1.136,0,0,1,0-2.273h9.18a1.136,1.136,0,0,1,0,2.273Z" transform="translate(-35.086 -276.876)"/>
        <path id="Path_1043555" data-name="Path 1043555" d="M104.132,282.483h-.015a1.136,1.136,0,0,1,0-2.273h.015a1.136,1.136,0,1,1,0,2.273Z" transform="translate(-91.78 -249.716)"/>
        <path id="Path_1043556" data-name="Path 1043556" d="M43.747,282.484H40.5a1.136,1.136,0,1,1,0-2.273h3.242a1.136,1.136,0,1,1,0,2.273Z" transform="translate(-35.086 -249.717)"/>
        <path id="Path_1043557" data-name="Path 1043557" d="M134.642,282.484h-.106a1.136,1.136,0,1,1,0-2.273h.106a1.136,1.136,0,1,1,0,2.273Z" transform="translate(-118.89 -249.717)"/>
        <path id="Path_1043558" data-name="Path 1043558" d="M1.151,493.358H1.136a1.136,1.136,0,1,1,0-2.273h.015a1.136,1.136,0,1,1,0,2.273Z" transform="translate(0 -437.656)"/>
        <path id="Path_1043559" data-name="Path 1043559" d="M492.067,493.358h-.015a1.136,1.136,0,0,1,0-2.273h.015a1.136,1.136,0,0,1,0,2.273Z" transform="translate(-437.522 -437.656)"/>
        <path id="Path_1043560" data-name="Path 1043560" d="M283.668,214.665a1.27,1.27,0,1,1,1.27-1.27A1.272,1.272,0,0,1,283.668,214.665Z" transform="translate(-251.683 -189.037)"/>
        <path id="Path_1043561" data-name="Path 1043561" d="M207.463,214.665a1.27,1.27,0,1,1,1.27-1.27A1.272,1.272,0,0,1,207.463,214.665Z" transform="translate(-183.767 -189.037)"/>
        <path id="Path_1043562" data-name="Path 1043562" d="M237.607,264.733a2.249,2.249,0,0,1-2.247-2.247,1.136,1.136,0,0,1,1.136-1.136h2.221a1.136,1.136,0,0,1,1.136,1.136A2.249,2.249,0,0,1,237.607,264.733Z" transform="translate(-209.761 -232.908)"/>
        <path id="Path_1043563" data-name="Path 1043563" d="M192.7,418.668a1.133,1.133,0,0,1-.8-.333l-2.552-2.552a1.137,1.137,0,0,1,0-1.607l2.552-2.552a1.136,1.136,0,0,1,1.607,1.607l-1.749,1.749,1.749,1.749a1.136,1.136,0,0,1-.8,1.94Z" transform="translate(-168.45 -366.541)"/>
        <path id="Path_1043564" data-name="Path 1043564" d="M279.418,418.667a1.136,1.136,0,0,1-.8-1.94l1.749-1.749-1.749-1.749a1.136,1.136,0,0,1,1.607-1.607l2.552,2.552a1.136,1.136,0,0,1,0,1.607l-2.552,2.552A1.133,1.133,0,0,1,279.418,418.667Z" transform="translate(-248.015 -366.54)"/>
        <path id="Path_1043565" data-name="Path 1043565" d="M242.507,418.455a1.152,1.152,0,0,1-.207-.019,1.136,1.136,0,0,1-.912-1.323l.944-5.13a1.136,1.136,0,0,1,2.235.411l-.944,5.13A1.137,1.137,0,0,1,242.507,418.455Z" transform="translate(-215.117 -366.327)"/>
        <path id="Path_1043566" data-name="Path 1043566" d="M53.614,73.523a3.432,3.432,0,0,1-3.428-3.428V67.86a3.428,3.428,0,1,1,6.856,0v2.235A3.432,3.432,0,0,1,53.614,73.523Zm0-6.818a1.157,1.157,0,0,0-1.155,1.155v2.235a1.155,1.155,0,1,0,2.311,0V67.86A1.157,1.157,0,0,0,53.614,66.7Z" transform="translate(-44.728 -57.407)"/>
        <path id="Path_1043567" data-name="Path 1043567" d="M3.5,73.523a1.136,1.136,0,0,1-1.136-1.136V68.312l-.369.369A1.136,1.136,0,0,1,.383,67.074l2.309-2.309a1.136,1.136,0,0,1,1.94.8v6.818A1.136,1.136,0,0,1,3.5,73.523Z" transform="translate(-0.045 -57.408)"/>
        <path id="Path_1043568" data-name="Path 1043568" d="M402.764,9.11a3.432,3.432,0,0,1-3.428-3.428V3.447a3.428,3.428,0,0,1,6.856,0V5.682A3.432,3.432,0,0,1,402.764,9.11Zm0-6.818a1.157,1.157,0,0,0-1.155,1.155V5.682a1.155,1.155,0,0,0,2.311,0V3.447A1.157,1.157,0,0,0,402.764,2.292Z" transform="translate(-355.903)"/>
        <path id="Path_1043569" data-name="Path 1043569" d="M473.319,9.11a1.136,1.136,0,0,1-1.136-1.136V3.9l-.369.369a1.136,1.136,0,0,1-1.607-1.607L472.516.352a1.136,1.136,0,0,1,1.94.8V7.974A1.136,1.136,0,0,1,473.319,9.11Z" transform="translate(-418.769 0)"/>
        <path id="Path_1043570" data-name="Path 1043570" d="M410.725,219.838h-6.9a2.575,2.575,0,0,0-2.572,2.572v13.077a2.575,2.575,0,0,0,2.572,2.572h6.9a2.575,2.575,0,0,0,2.572-2.572V222.41A2.575,2.575,0,0,0,410.725,219.838Zm-7.2,5.07h7.5V232.6h-7.5Zm0-2.5a.3.3,0,0,1,.3-.3h6.9a.3.3,0,0,1,.3.3v.225h-7.5v-.225Zm7.5,13.077a.3.3,0,0,1-.3.3h-6.9a.3.3,0,0,1-.3-.3v-.612h7.5v.612Z" transform="translate(-357.61 -195.911)"/>
        <path id="Path_1043571" data-name="Path 1043571" d="M50.9,71.317h-6.3V63.634a5.6,5.6,0,0,0-3.251-5.116L34.031,55.47a.693.693,0,0,1-.42-.535c0-.005,0-.011,0-.016a.684.684,0,0,1-.007-.091v-1.77l2.97-1.7.061-.038a6.137,6.137,0,0,0,2.612-4.673c0-.029,0-.058,0-.087v-.943a3.682,3.682,0,0,0,0-7v-.564c.648-1.411,3.34-8.049-.728-13.232-1.88-2.4-4.135-3.414-6.166-2.831a10.044,10.044,0,0,0-6.2-1.893,11.176,11.176,0,0,0-11.62,10.955,18.353,18.353,0,0,0,1.641,7.7,3.7,3.7,0,0,0-1.972,2.095H2.654a2.642,2.642,0,0,0-2.6,2.673V60.942a1.136,1.136,0,0,0,1.136,1.136H7.594v2.307H6.756a1.136,1.136,0,1,0,0,2.273h4.422v4.659h-6.3a1.136,1.136,0,0,0,0,2.273H50.9a1.136,1.136,0,1,0,0-2.273Zm-11.377-29.2a1.411,1.411,0,0,1-1.409,1.409,1.136,1.136,0,0,0-1.136,1.136v1.854a3.911,3.911,0,0,1-1.568,2.89l-6.1,3.5-.061.038a2.4,2.4,0,0,1-2.721,0c-.02-.013-.041-.026-.062-.038l-6.119-3.5a3.852,3.852,0,0,1-1.549-2.89V44.658a1.136,1.136,0,0,0-1.136-1.136,1.408,1.408,0,0,1-.23-2.8l1.258.636a4.714,4.714,0,0,0,9.2,2.067,4.714,4.714,0,0,0,9.2-2.053l1.262-.65A1.41,1.41,0,0,1,39.522,42.113ZM31.33,54.362v2.077a3.444,3.444,0,1,1-6.888,0V54.363l.863.494a4.673,4.673,0,0,0,5.161,0Zm1.15-16.7a4.722,4.722,0,0,0-4.6,3.667A4.71,4.71,0,0,0,19.7,39.327l-.837-.423a4.706,4.706,0,0,1,4.611-3.836,9.715,9.715,0,0,0,6.758-2.407,10.845,10.845,0,0,0,2.482,1.494,8.3,8.3,0,0,1,1.572.891,14.205,14.205,0,0,1,2.69,3.051v.777l-.9.463A4.7,4.7,0,0,0,32.48,37.666Zm2.442,4.714a2.442,2.442,0,1,1-2.442-2.442A2.444,2.444,0,0,1,34.922,42.38Zm-9.191,0a2.442,2.442,0,1,1-2.442-2.442A2.444,2.444,0,0,1,25.73,42.38Zm.429-20.018a7.524,7.524,0,0,1,5.256,1.775,1.137,1.137,0,0,0,1.236.158c1.167-.568,2.693.15,4.083,1.921h0c2.387,3.041,1.765,6.921,1.077,9.184a19.29,19.29,0,0,0-2.019-2.059,9.356,9.356,0,0,0-2.082-1.231c-.93-.453-2.088-1.017-2.308-1.588a1.136,1.136,0,0,0-1.921-.335A7.382,7.382,0,0,1,23.475,32.8,6.509,6.509,0,0,0,17.7,35.918c-.04.063-.078.126-.116.189a16.671,16.671,0,0,1-.775-5.061C16.812,26.777,20.308,22.363,26.159,22.363ZM11.177,63.634v.752H9.866V62.079H11.4A5.679,5.679,0,0,0,11.177,63.634Zm1.467-3.828H2.324V43.51a.376.376,0,0,1,.331-.4H14.117a3.7,3.7,0,0,0,2.405,2.505v.943c0,.029,0,.058,0,.087a6.13,6.13,0,0,0,2.594,4.673l.062.038,2.987,1.708v1.764a.694.694,0,0,1-.428.642l-7.313,3.047A4.983,4.983,0,0,0,12.644,59.806ZM42.322,71.317H13.45V63.634A3.369,3.369,0,0,1,15.3,60.615L22.294,57.7a5.731,5.731,0,0,0,11.18,0l7,2.915a3.368,3.368,0,0,1,1.852,3.019v7.683Z" transform="translate(-0.045 -17.888)"/>
      </g>
    </g>
  </g>
</svg>
