<svg xmlns="http://www.w3.org/2000/svg" xmlns:xlink="http://www.w3.org/1999/xlink" width="113" height="113" viewBox="0 0 113 113">
  <defs>
    <filter id="Path_982547" x="0" y="0" width="113" height="113" filterUnits="userSpaceOnUse">
      <feOffset dy="3" input="SourceAlpha"/>
      <feGaussianBlur stdDeviation="3" result="blur"/>
      <feFlood flood-opacity="0.161"/>
      <feComposite operator="in" in2="blur"/>
      <feComposite in="SourceGraphic"/>
    </filter>
  </defs>
  <g id="Group_1210341" data-name="Group 1210341" transform="translate(-271.088 -7812.479)">
    <g id="Group_1210275" data-name="Group 1210275">
      <g id="Group_1210202" data-name="Group 1210202" transform="translate(0 1380.707)">
        <g id="Group_1202185" data-name="Group 1202185" transform="translate(0.088 5561.358)">
          <g id="Group_1174813" data-name="Group 1174813" transform="translate(280 876.414)">
            <g id="Group_1201680" data-name="Group 1201680">
              <g id="Group_1201330" data-name="Group 1201330">
                <g id="Group_1172010" data-name="Group 1172010">
                  <g id="Group_1171046" data-name="Group 1171046">
                    <g id="Group_1148525" data-name="Group 1148525">
                      <g transform="matrix(1, 0, 0, 1, -9, -6)" filter="url(#Path_982547)">
                        <g id="Path_982547-2" data-name="Path 982547" transform="translate(9 6)" fill="#f6ecfe">
                          <path d="M 47.5 93.5 C 41.28937149047852 93.5 35.26533508300781 92.28397369384766 29.59518623352051 89.88570404052734 C 24.11771965026855 87.56893157958984 19.19813346862793 84.25196075439453 14.97309303283691 80.02691650390625 C 10.74804019927979 75.80186462402344 7.431066513061523 70.88229370117188 5.114293098449707 65.40481567382812 C 2.716026782989502 59.73468017578125 1.5 53.71062850952148 1.5 47.5 C 1.5 41.28937149047852 2.716026782989502 35.26533508300781 5.114293098449707 29.59518623352051 C 7.431066513061523 24.11771965026855 10.74804019927979 19.19813346862793 14.97309303283691 14.97309303283691 C 19.19813346862793 10.74804019927979 24.11771965026855 7.431066513061523 29.59518623352051 5.114293098449707 C 35.26533508300781 2.716026782989502 41.28937149047852 1.5 47.5 1.5 C 53.71062850952148 1.5 59.73468017578125 2.716026782989502 65.40481567382812 5.114293098449707 C 70.88229370117188 7.431066513061523 75.80186462402344 10.74804019927979 80.02691650390625 14.97309303283691 C 84.25196075439453 19.19813346862793 87.56893157958984 24.11771965026855 89.88570404052734 29.59518623352051 C 92.28397369384766 35.26533508300781 93.5 41.28937149047852 93.5 47.5 C 93.5 53.71062850952148 92.28397369384766 59.73468017578125 89.88570404052734 65.40481567382812 C 87.56893157958984 70.88229370117188 84.25196075439453 75.80186462402344 80.02691650390625 80.02691650390625 C 75.80186462402344 84.25196075439453 70.88229370117188 87.56893157958984 65.40481567382812 89.88570404052734 C 59.73468017578125 92.28397369384766 53.71062850952148 93.5 47.5 93.5 Z" stroke="none"/>
                          <path d="M 47.5 3 C 41.49121475219727 3 35.66376876831055 4.176155090332031 30.17950439453125 6.495796203613281 C 24.88084411621094 8.736953735351562 20.12152099609375 11.94598388671875 16.03375244140625 16.03375244140625 C 11.94598388671875 20.12152099609375 8.736953735351562 24.88084411621094 6.495796203613281 30.17950439453125 C 4.176155090332031 35.66376876831055 3 41.49121475219727 3 47.5 C 3 53.50878524780273 4.176155090332031 59.33623123168945 6.495796203613281 64.82049560546875 C 8.736953735351562 70.11915588378906 11.94598388671875 74.87847900390625 16.03375244140625 78.96624755859375 C 20.12152099609375 83.05401611328125 24.88084411621094 86.26304626464844 30.17950439453125 88.50419616699219 C 35.66376876831055 90.82384490966797 41.49121475219727 92 47.5 92 C 53.50878524780273 92 59.33623123168945 90.82384490966797 64.82049560546875 88.50419616699219 C 70.11915588378906 86.26304626464844 74.87847900390625 83.05401611328125 78.96624755859375 78.96624755859375 C 83.05401611328125 74.87847900390625 86.26304626464844 70.11915588378906 88.50419616699219 64.82049560546875 C 90.82384490966797 59.33623123168945 92 53.50878524780273 92 47.5 C 92 41.49121475219727 90.82384490966797 35.66376876831055 88.50419616699219 30.17950439453125 C 86.26304626464844 24.88084411621094 83.05401611328125 20.12152099609375 78.96624755859375 16.03375244140625 C 74.87847900390625 11.94598388671875 70.11915588378906 8.736953735351562 64.82049560546875 6.495796203613281 C 59.33623123168945 4.176155090332031 53.50878524780273 3 47.5 3 M 47.5 0 C 73.7335205078125 0 95 21.2664794921875 95 47.5 C 95 73.7335205078125 73.7335205078125 95 47.5 95 C 21.2664794921875 95 0 73.7335205078125 0 47.5 C 0 21.2664794921875 21.2664794921875 0 47.5 0 Z" stroke="none" fill="#aa52f9"/>
                        </g>
                      </g>
                    </g>
                  </g>
                </g>
              </g>
            </g>
          </g>
        </g>
      </g>
      <g id="software_5432836_1_" data-name="software_5432836 (1)" transform="translate(291.466 7804.253)">
        <g id="Layer_1" transform="translate(3.496 34.511)">
          <path id="Path_1049997" data-name="Path 1049997" d="M78.788,76.51v33.557H22.86V76.51a2.661,2.661,0,0,1,2.66-2.66h5.841V96.681a1.33,1.33,0,0,0,1.33,1.33H68.956a1.33,1.33,0,0,0,1.33-1.33V73.85h5.843A2.661,2.661,0,0,1,78.788,76.51Z" transform="translate(-18.198 -65.001)" fill="#aeaeae"/>
          <path id="Path_1049998" data-name="Path 1049998" d="M90.471,73.85V96.681a3.194,3.194,0,0,1-3.192,3.192H51.015a3.194,3.194,0,0,1-3.192-3.192V73.85h1.862V96.681a1.33,1.33,0,0,0,1.33,1.33H87.28a1.33,1.33,0,0,0,1.33-1.33V73.85Z" transform="translate(-36.522 -65.001)" fill="#878787"/>
          <path id="Path_1049999" data-name="Path 1049999" d="M22.86,203.016H78.788v1.862H22.86Z" transform="translate(-18.198 -159.813)" fill="#868686"/>
          <path id="Path_1050000" data-name="Path 1050000" d="M65.265,217.384H10.652a5.319,5.319,0,0,1-5.319-5.319v-1.513a.532.532,0,0,1,.532-.532H70.052a.532.532,0,0,1,.532.532v1.513A5.319,5.319,0,0,1,65.265,217.384Z" transform="translate(-5.333 -164.954)" fill="#aeaeae"/>
          <path id="Path_1050001" data-name="Path 1050001" d="M85.186,88.052v27.884a.534.534,0,0,1-.532.532H37.062a.533.533,0,0,1-.532-.532V88.052a.534.534,0,0,1,.532-.532H41.4v19.195a1.33,1.33,0,0,0,1.33,1.33H78.99a1.33,1.33,0,0,0,1.33-1.33V87.52h4.334A.534.534,0,0,1,85.186,88.052Z" transform="translate(-28.233 -75.035)" fill="#f0c020"/>
          <path id="Path_1050002" data-name="Path 1050002" d="M90.471,87.52v19.195a3.194,3.194,0,0,1-3.192,3.192H51.015a3.194,3.194,0,0,1-3.192-3.192V87.52h1.862v19.195a1.33,1.33,0,0,0,1.33,1.33H87.28a1.33,1.33,0,0,0,1.33-1.33V87.52Z" transform="translate(-36.522 -75.035)" fill="#e8a61e"/>
          <path id="Path_1050003" data-name="Path 1050003" d="M93.745,64V89.451a1.33,1.33,0,0,1-1.33,1.33H56.15a1.33,1.33,0,0,1-1.33-1.33V64Z" transform="translate(-41.658 -57.771)" fill="#efefef"/>
          <path id="Path_1050004" data-name="Path 1050004" d="M93.745,41.91v4.9H54.82v-4.9a1.33,1.33,0,0,1,1.33-1.33H92.415A1.33,1.33,0,0,1,93.745,41.91Z" transform="translate(-41.658 -40.58)" fill="#72c2e9"/>
        </g>
        <g id="Layer_2" transform="translate(2.83 33.846)">
          <g id="Group_1210272" data-name="Group 1210272" transform="translate(5.32 49.77)">
            <path id="Path_1050009" data-name="Path 1050009" d="M78.11,226.538h-.8a.665.665,0,0,1,0-1.33h.8a.665.665,0,0,1,0,1.33Zm-3.458,0H23.5a.665.665,0,0,1,0-1.33H74.653a.665.665,0,0,1,0,1.33Z" transform="translate(-22.833 -225.208)" fill="#efefef"/>
          </g>
          <g id="Group_1210273" data-name="Group 1210273" transform="translate(10.958 38.773)">
            <path id="Path_1050010" data-name="Path 1050010" d="M88.032,185.19H48.153a.665.665,0,1,1,0-1.33H88.032a.665.665,0,1,1,0,1.33Zm-42.539,0h-.8a.665.665,0,1,1,0-1.33h.8a.665.665,0,1,1,0,1.33Z" transform="translate(-44.03 -183.86)" fill="#f8e5b0"/>
          </g>
          <g id="Group_1210274" data-name="Group 1210274" transform="translate(15.823 8.49)">
            <path id="Path_1050011" data-name="Path 1050011" d="M96.593,93.19H66.446a.665.665,0,0,1,0-1.33H95.928v-21.2a.665.665,0,1,1,1.33,0v21.86A.665.665,0,0,1,96.593,93.19Zm-32.807,0h-.8a.665.665,0,0,1,0-1.33h.8a.665.665,0,0,1,0,1.33Z" transform="translate(-62.323 -70)" fill="#fff"/>
          </g>
          <circle id="Ellipse_12665" data-name="Ellipse 12665" cx="0.665" cy="0.665" r="0.665" transform="translate(30.943 52.43)"/>
          <path id="Path_1050012" data-name="Path 1050012" d="M68.216,83.146H64.75V50.253a3.328,3.328,0,0,0-3.325-3.325H56.247V40.075a2,2,0,0,0-1.995-1.995H17.988a2,2,0,0,0-1.995,1.995v6.854H10.817a3.329,3.329,0,0,0-3.325,3.325v12.28a.665.665,0,1,0,1.33,0V50.253a2,2,0,0,1,1.995-1.995h5.176v2.306H12.325a1.2,1.2,0,0,0-1.2,1.2V79.646a1.2,1.2,0,0,0,1.2,1.2H59.918a1.2,1.2,0,0,0,1.2-1.2V51.761a1.2,1.2,0,0,0-1.2-1.2h-3.67V48.259h5.178a2,2,0,0,1,1.995,1.995V83.146H8.822V67.853a.665.665,0,1,0-1.33,0V83.146H4.027a1.2,1.2,0,0,0-1.2,1.2v1.513A5.993,5.993,0,0,0,8.814,91.84H31.778a.665.665,0,0,0,0-1.33H8.814A4.673,4.673,0,0,1,4.16,85.856v-1.38H27.953v.632A2,2,0,0,0,29.947,87.1H42.3a2,2,0,0,0,1.995-1.995v-.632H68.083v1.38a4.673,4.673,0,0,1-4.654,4.654H37.1a.665.665,0,0,0,0,1.33H63.429a5.993,5.993,0,0,0,5.984-5.984V84.343A1.2,1.2,0,0,0,68.216,83.146ZM17.988,39.41H54.252a.666.666,0,0,1,.665.665v4.234H17.323V40.075A.666.666,0,0,1,17.988,39.41Zm-.665,11.829s0-.006,0-.009,0-.006,0-.009V45.639H54.917V70.424a.666.666,0,0,1-.665.665H17.988a.666.666,0,0,1-.665-.665Zm42.462.656V79.513H12.458V51.894h3.535v18.53a2,2,0,0,0,1.995,1.995H54.252a2,2,0,0,0,1.995-1.995V51.894ZM42.96,85.108a.666.666,0,0,1-.665.665H29.947a.666.666,0,0,1-.665-.665v-.632H42.96Z" transform="translate(-2.83 -38.08)"/>
          <circle id="Ellipse_12666" data-name="Ellipse 12666" cx="0.665" cy="0.665" r="0.665" transform="translate(4.662 26.448)"/>
          <path id="Path_1050013" data-name="Path 1050013" d="M187.614,51.118h.459a.665.665,0,0,0,0-1.33h-.459a.665.665,0,0,0,0,1.33Z" transform="translate(-137.979 -46.674)"/>
          <path id="Path_1050014" data-name="Path 1050014" d="M174.344,51.118h.459a.665.665,0,0,0,0-1.33h-.459a.665.665,0,0,0,0,1.33Z" transform="translate(-128.238 -46.674)"/>
          <path id="Path_1050015" data-name="Path 1050015" d="M161.073,51.118h.459a.665.665,0,1,0,0-1.33h-.459a.665.665,0,0,0,0,1.33Z" transform="translate(-118.497 -46.674)"/>
          <path id="Path_1050016" data-name="Path 1050016" d="M62.992,51.12h12.52a.665.665,0,1,0,0-1.33H62.992a.665.665,0,0,0,0,1.33Z" transform="translate(-46.503 -46.676)"/>
          <path id="Path_1050017" data-name="Path 1050017" d="M74.878,102.05a.665.665,0,1,0,.94-.94l-4.087-4.087,4.087-4.087a.665.665,0,0,0-.94-.94L70.32,96.553a.664.664,0,0,0,0,.94Z" transform="translate(-52.227 -77.512)"/>
          <path id="Path_1050018" data-name="Path 1050018" d="M163.934,102.051a.664.664,0,0,0,.94,0l4.557-4.557a.664.664,0,0,0,0-.94L164.874,92a.665.665,0,0,0-.94.94l4.087,4.087-4.087,4.087A.665.665,0,0,0,163.934,102.051Z" transform="translate(-120.942 -77.513)"/>
          <path id="Path_1050019" data-name="Path 1050019" d="M104.649,90.107a3.07,3.07,0,0,0,3.067-3.067V85.349a3.067,3.067,0,1,0-6.134,0V87.04A3.07,3.07,0,0,0,104.649,90.107Zm-1.737-4.758a1.737,1.737,0,1,1,3.474,0V87.04a1.737,1.737,0,1,1-3.474,0Z" transform="translate(-75.317 -70.526)"/>
          <path id="Path_1050020" data-name="Path 1050020" d="M132.011,88.775a.665.665,0,1,0,0,1.33h4.8a.665.665,0,1,0,0-1.33h-1.737V82.944a.665.665,0,0,0-1.084-.516l-2.4,1.951a.665.665,0,1,0,.839,1.032l1.318-1.07v4.434h-1.738Z" transform="translate(-97.165 -70.523)"/>
          <path id="Path_1050021" data-name="Path 1050021" d="M102.248,124.813h4.8a.665.665,0,1,0,0-1.33h-1.737v-5.831a.665.665,0,0,0-1.084-.516l-2.4,1.951a.665.665,0,1,0,.839,1.032l1.318-1.07v4.434h-1.737a.665.665,0,0,0,0,1.33Z" transform="translate(-75.318 -96.001)"/>
          <path id="Path_1050022" data-name="Path 1050022" d="M134.413,124.812a3.07,3.07,0,0,0,3.067-3.067v-1.692a3.067,3.067,0,0,0-6.134,0v1.692A3.07,3.07,0,0,0,134.413,124.812Zm-1.737-4.758a1.737,1.737,0,1,1,3.474,0v1.692a1.737,1.737,0,1,1-3.474,0Z" transform="translate(-97.165 -96)"/>
        </g>
      </g>
    </g>
  </g>
</svg>
