<svg xmlns="http://www.w3.org/2000/svg" xmlns:xlink="http://www.w3.org/1999/xlink" width="103" height="103" viewBox="0 0 103 103">
  <defs>
    <filter id="Path_978624" x="0" y="0" width="103" height="103" filterUnits="userSpaceOnUse">
      <feOffset dy="3" input="SourceAlpha"/>
      <feGaussianBlur stdDeviation="3" result="blur"/>
      <feFlood flood-opacity="0.161"/>
      <feComposite operator="in" in2="blur"/>
      <feComposite in="SourceGraphic"/>
    </filter>
  </defs>
  <g id="Group_1181692" data-name="Group 1181692" transform="translate(-185 -4324)">
    <g id="Group_1181690" data-name="Group 1181690">
      <g id="Group_1180883" data-name="Group 1180883" transform="translate(14 1458)">
        <g id="Group_1176881" data-name="Group 1176881">
          <g id="Group_1175148" data-name="Group 1175148" transform="translate(0 1580)">
            <g id="Group_1173798" data-name="Group 1173798" transform="translate(-3 -3520)">
              <g id="Group_1171925" data-name="Group 1171925" transform="translate(-22 -2246)">
                <g id="Group_1164524" data-name="Group 1164524" transform="translate(205 7058)">
                  <g id="Group_1144123" data-name="Group 1144123">
                    <g transform="matrix(1, 0, 0, 1, -9, -6)" filter="url(#Path_978624)">
                      <g id="Path_978624-2" data-name="Path 978624" transform="translate(9 6)" fill="#e5ebfb">
                        <path d="M 42.5 83.5 C 36.96437835693359 83.5 31.59512901306152 82.41617584228516 26.54141235351562 80.27863311767578 C 21.65934181213379 78.21369171142578 17.27447128295898 75.25723266601562 13.50862312316895 71.49137878417969 C 9.742764472961426 67.72553253173828 6.786305904388428 63.34066009521484 4.721364498138428 58.45858764648438 C 2.583823442459106 53.40486907958984 1.5 48.03562164306641 1.5 42.5 C 1.5 36.96437835693359 2.583823442459106 31.59512901306152 4.721364498138428 26.54141235351562 C 6.786305904388428 21.65934181213379 9.742764472961426 17.27447128295898 13.50862312316895 13.50862312316895 C 17.27447128295898 9.742764472961426 21.65934181213379 6.786305904388428 26.54141235351562 4.721364498138428 C 31.59512901306152 2.583823442459106 36.96437835693359 1.5 42.5 1.5 C 48.03562164306641 1.5 53.40486907958984 2.583823442459106 58.45858764648438 4.721364498138428 C 63.34066009521484 6.786305904388428 67.72553253173828 9.742764472961426 71.49137878417969 13.50862312316895 C 75.25723266601562 17.27447128295898 78.21369171142578 21.65934181213379 80.27863311767578 26.54141235351562 C 82.41617584228516 31.59512901306152 83.5 36.96437835693359 83.5 42.5 C 83.5 48.03562164306641 82.41617584228516 53.40486907958984 80.27863311767578 58.45858764648438 C 78.21369171142578 63.34066009521484 75.25723266601562 67.72553253173828 71.49137878417969 71.49137878417969 C 67.72553253173828 75.25723266601562 63.34066009521484 78.21369171142578 58.45858764648438 80.27863311767578 C 53.40486907958984 82.41617584228516 48.03562164306641 83.5 42.5 83.5 Z" stroke="none"/>
                        <path d="M 42.5 3 C 37.16621398925781 3 31.99356079101562 4.043960571289062 27.125732421875 6.102882385253906 C 22.42246627807617 8.092185974121094 18.19785308837891 10.94070434570312 14.56928253173828 14.56928253173828 C 10.94070434570312 18.19785308837891 8.092185974121094 22.42246627807617 6.102882385253906 27.125732421875 C 4.043960571289062 31.99356079101562 3 37.16621398925781 3 42.5 C 3 47.83378601074219 4.043960571289062 53.00643920898438 6.102882385253906 57.87425231933594 C 8.092185974121094 62.57753372192383 10.94070434570312 66.80213165283203 14.56928253173828 70.43071746826172 C 18.19786834716797 74.05929565429688 22.42246627807617 76.90781402587891 27.125732421875 78.89711761474609 C 31.99356079101562 80.95603942871094 37.16621398925781 82 42.5 82 C 47.83378601074219 82 53.00642395019531 80.95603942871094 57.87425231933594 78.89711761474609 C 62.57753372192383 76.90781402587891 66.80213165283203 74.05929565429688 70.43071746826172 70.43071746826172 C 74.05929565429688 66.80213165283203 76.90781402587891 62.57753372192383 78.89711761474609 57.87425231933594 C 80.95603942871094 53.00642395019531 82 47.83378601074219 82 42.5 C 82 37.16621398925781 80.95603942871094 31.99356079101562 78.89711761474609 27.125732421875 C 76.90781402587891 22.42246627807617 74.05929565429688 18.19786834716797 70.43071746826172 14.56928253173828 C 66.80213165283203 10.94070434570312 62.57753372192383 8.092185974121094 57.87425231933594 6.102882385253906 C 53.00643920898438 4.043960571289062 47.83378601074219 3 42.5 3 M 42.5 0 C 65.97209167480469 0 85 19.02789306640625 85 42.5 C 85 65.97209167480469 65.97209167480469 85 42.5 85 C 19.02789306640625 85 0 65.97209167480469 0 42.5 C 0 19.02789306640625 19.02789306640625 0 42.5 0 Z" stroke="none" fill="#11f5d8"/>
                      </g>
                    </g>
                  </g>
                </g>
              </g>
            </g>
          </g>
          <g id="programmer_5047071" transform="translate(189.669 2882.33)">
            <g id="Group_1181520" data-name="Group 1181520" transform="translate(8.11 4.17)">
              <g id="Group_1181512" data-name="Group 1181512" transform="translate(6.039 25.644)">
                <path id="Path_1043589" data-name="Path 1043589" d="M60.4,127.045a2.419,2.419,0,0,1-2.391,2.076h-.974a8.4,8.4,0,0,1-16.555,0v0H39.44a2.419,2.419,0,0,1,0-4.838h.907v-3.634H57.155l0,3.632h.849A2.423,2.423,0,0,1,60.4,127.045Z" transform="translate(-37.022 -120.646)" fill="#ffb69f"/>
              </g>
              <g id="Group_1181514" data-name="Group 1181514" transform="translate(32.476 0)">
                <g id="Group_1181513" data-name="Group 1181513">
                  <path id="Path_1043590" data-name="Path 1043590" d="M165.269,6.11a10.168,10.168,0,0,0-8.348,15.977l-1.587,4.129,4.129-1.587A10.17,10.17,0,1,0,165.269,6.11Z" transform="translate(-155.099 -6.11)" fill="#f0c020"/>
                </g>
              </g>
              <g id="Group_1181515" data-name="Group 1181515" transform="translate(22.797 25.644)">
                <path id="Path_1043591" data-name="Path 1043591" d="M111.869,120.646l3.376,4.751v-4.751Z" transform="translate(-111.869 -120.646)" fill="#afafaf"/>
              </g>
              <g id="Group_1181516" data-name="Group 1181516" transform="translate(0 42.401)">
                <path id="Path_1043592" data-name="Path 1043592" d="M45.584,204.923v2.744H10.052v-2.746a6.717,6.717,0,0,1,4.64-6.388l9.372-3.047h0v.526a3.755,3.755,0,0,0,7.51,0v-.526l9.371,3.049A6.716,6.716,0,0,1,45.584,204.923Z" transform="translate(-10.052 -195.487)" fill="#fc5d3d"/>
              </g>
              <g id="Group_1181517" data-name="Group 1181517" transform="translate(9.361 17.043)">
                <path id="Path_1043593" data-name="Path 1043593" d="M68.675,90.831H51.863v-2.44a3.817,3.817,0,0,1,3.817-3.815h9.068a2.884,2.884,0,0,0,2.832-2.346C71.6,85.49,71.038,88.736,68.675,90.831Z" transform="translate(-51.863 -82.229)" fill="#7c7b7a"/>
              </g>
              <g id="Group_1181518" data-name="Group 1181518" transform="translate(9.362 25.644)">
                <path id="Path_1043594" data-name="Path 1043594" d="M51.866,120.646V125.4l3.376-4.751Z" transform="translate(-51.866 -120.646)" fill="#afafaf"/>
              </g>
              <g id="Group_1181519" data-name="Group 1181519" transform="translate(14.014 40.207)">
                <path id="Path_1043595" data-name="Path 1043595" d="M80.152,185.687v2.72a3.755,3.755,0,1,1-7.51,0v-2.716A8.39,8.39,0,0,0,80.152,185.687Z" transform="translate(-72.642 -185.687)" fill="#ffb69f"/>
              </g>
            </g>
            <g id="Group_1181521" data-name="Group 1181521" transform="translate(32.977 23.25)">
              <path id="Path_1043596" data-name="Path 1043596" d="M121.28,96.5a.56.56,0,0,1,0-.791l.309-.313a.56.56,0,0,1,.8.787l-.309.313A.56.56,0,0,1,121.28,96.5Zm1.63-2.112a.56.56,0,0,1-.56-.557,1.887,1.887,0,0,0-.738-1.5.56.56,0,1,1,.683-.887,3,3,0,0,1,1.175,2.38.56.56,0,0,1-.557.562Z" transform="translate(-121.113 -91.327)" fill="#afafaf"/>
            </g>
            <g id="Group_1181522" data-name="Group 1181522" transform="translate(7.55 3.61)">
              <path id="Path_1043597" data-name="Path 1043597" d="M199.75,159.6H198.7v-4.256a.56.56,0,0,0-.811-.5l-1.511.757a.56.56,0,0,0-.249.752.567.567,0,0,0,.75.248l.7-.351v3.35H196.54a.56.56,0,1,0,0,1.119h3.211a.56.56,0,0,0,0-1.119Z" transform="translate(-153.791 -120.933)"/>
              <path id="Path_1043598" data-name="Path 1043598" d="M172.36,121.462h-1.046v-4.257a.561.561,0,0,0-.811-.5l-1.511.759a.56.56,0,0,0-.249.752.567.567,0,0,0,.75.248l.7-.351v3.349H169.15a.56.56,0,0,0,0,1.119h3.211a.56.56,0,1,0,0-1.119Z" transform="translate(-132.534 -91.337)"/>
              <path id="Path_1043599" data-name="Path 1043599" d="M227.14,121.462h-1.046v-4.257a.561.561,0,0,0-.811-.5l-1.511.759a.56.56,0,0,0-.249.752.567.567,0,0,0,.75.248l.7-.351v3.35H223.93a.56.56,0,0,0,0,1.119h3.211a.56.56,0,0,0,0-1.119Z" transform="translate(-175.049 -91.337)"/>
              <path id="Path_1043600" data-name="Path 1043600" d="M198.145,116.649a2.168,2.168,0,0,0-2.165,2.165v1.606a2.165,2.165,0,0,0,4.33,0v-1.606A2.168,2.168,0,0,0,198.145,116.649Zm1.046,3.771a1.046,1.046,0,1,1-2.091,0v-1.606a1.046,1.046,0,0,1,2.091,0Z" transform="translate(-153.791 -91.34)"/>
              <path id="Path_1043601" data-name="Path 1043601" d="M170.755,154.78a2.168,2.168,0,0,0-2.165,2.165v1.605a2.165,2.165,0,1,0,4.33,0v-1.605A2.168,2.168,0,0,0,170.755,154.78Zm1.046,3.77a1.046,1.046,0,1,1-2.091,0v-1.605a1.046,1.046,0,0,1,2.091,0Z" transform="translate(-132.534 -120.933)"/>
              <path id="Path_1043602" data-name="Path 1043602" d="M225.535,154.78a2.168,2.168,0,0,0-2.165,2.165v1.605a2.165,2.165,0,0,0,4.33,0v-1.605A2.168,2.168,0,0,0,225.535,154.78Zm1.046,3.77a1.046,1.046,0,1,1-2.091,0v-1.605a1.046,1.046,0,0,1,2.091,0Z" transform="translate(-175.049 -120.933)"/>
              <path id="Path_1043603" data-name="Path 1043603" d="M36.14,16.472a.56.56,0,1,0,0,1.119H39.35a.56.56,0,1,0,0-1.119H38.3V12.216a.56.56,0,0,0-.811-.5l-1.511.759a.558.558,0,0,0-.249.75.573.573,0,0,0,.752.251l.7-.352v3.35H36.14Z" transform="translate(-29.304 -9.854)"/>
              <path id="Path_1043604" data-name="Path 1043604" d="M63.53,55.722H66.74a.56.56,0,1,0,0-1.119H65.695V50.346a.56.56,0,0,0-.811-.5l-1.511.759a.561.561,0,0,0-.249.752.569.569,0,0,0,.752.249l.7-.352V54.6H63.53a.56.56,0,1,0,0,1.119Z" transform="translate(-50.562 -39.446)"/>
              <path id="Path_1043605" data-name="Path 1043605" d="M90.92,16.472a.56.56,0,1,0,0,1.119H94.13a.56.56,0,1,0,0-1.119H93.085V12.216a.56.56,0,0,0-.811-.5l-1.511.759a.558.558,0,0,0-.249.75.573.573,0,0,0,.752.251l.7-.352v3.35H90.92Z" transform="translate(-71.819 -9.854)"/>
              <path id="Path_1043606" data-name="Path 1043606" d="M65.135,17.6A2.17,2.17,0,0,0,67.3,15.43V13.825a2.165,2.165,0,0,0-4.33,0V15.43A2.17,2.17,0,0,0,65.135,17.6Zm-1.046-3.77a1.046,1.046,0,1,1,2.091,0V15.43a1.046,1.046,0,1,1-2.091,0Z" transform="translate(-50.562 -9.858)"/>
              <path id="Path_1043607" data-name="Path 1043607" d="M37.745,55.726A2.168,2.168,0,0,0,39.91,53.56V51.955a2.165,2.165,0,0,0-4.33,0V53.56A2.168,2.168,0,0,0,37.745,55.726ZM36.7,51.955a1.046,1.046,0,0,1,2.091,0V53.56a1.046,1.046,0,0,1-2.091,0Z" transform="translate(-29.304 -39.45)"/>
              <path id="Path_1043608" data-name="Path 1043608" d="M92.525,55.726A2.168,2.168,0,0,0,94.69,53.56V51.955a2.165,2.165,0,0,0-4.33,0V53.56A2.168,2.168,0,0,0,92.525,55.726Zm-1.046-3.77a1.046,1.046,0,1,1,2.091,0V53.56a1.046,1.046,0,1,1-2.091,0Z" transform="translate(-71.819 -39.45)"/>
              <path id="Path_1043609" data-name="Path 1043609" d="M172.026,34.622a.573.573,0,0,0-.788,0,0,0,0,0,0,0,0l-3.191,3.191a.561.561,0,0,0,0,.79l3.191,3.191a.56.56,0,0,0,.79,0,.554.554,0,0,0,0-.79l-2.794-2.794,2.794-2.8A.56.56,0,0,0,172.026,34.622Z" transform="translate(-131.984 -27.556)"/>
              <path id="Path_1043610" data-name="Path 1043610" d="M214.083,41.788a.562.562,0,0,0,.793,0,0,0,0,0,0,0,0l3.188-3.188a.561.561,0,0,0,0-.79l-3.191-3.191a.572.572,0,0,0-.793,0,.559.559,0,0,0,0,.79l2.794,2.794L214.083,41A.56.56,0,0,0,214.083,41.788Z" transform="translate(-167.714 -27.551)"/>
              <path id="Path_1043611" data-name="Path 1043611" d="M195.225,35.5l-2.3,6.38a.56.56,0,0,0,1.053.379l2.3-6.38a.56.56,0,1,0-1.053-.379Z" transform="translate(-151.398 -28.076)"/>
              <path id="Path_1043612" data-name="Path 1043612" d="M237.853,26.741a.561.561,0,0,0,.195-.766,0,0,0,0,0,0,0,.56.56,0,1,0-.96.576A.563.563,0,0,0,237.853,26.741Z" transform="translate(-185.631 -20.754)"/>
              <path id="Path_1043613" data-name="Path 1043613" d="M173.521,10.972a.569.569,0,0,0-.708-.356.561.561,0,0,0-.356.708,9.611,9.611,0,0,1-14.614,10.906.571.571,0,0,0-.522-.065L154.369,23.3l1.135-2.953a.562.562,0,0,0-.063-.522A9.61,9.61,0,0,1,170.3,7.723a.574.574,0,0,0,.793.02.558.558,0,0,0,.02-.79,0,0,0,0,0,0,0,10.729,10.729,0,0,0-16.754,13.268l-1.484,3.856a.56.56,0,0,0,.725.723l3.855-1.482a10.675,10.675,0,0,0,5.875,1.755h0a10.738,10.738,0,0,0,10.192-14.1Z" transform="translate(-120.124 -3.61)"/>
              <path id="Path_1043614" data-name="Path 1043614" d="M37.973,236.391a.56.56,0,0,0-.56.56v2.463a.56.56,0,0,0,1.119,0v-2.463A.56.56,0,0,0,37.973,236.391Z" transform="translate(-30.727 -184.272)"/>
              <path id="Path_1043615" data-name="Path 1043615" d="M136.966,236.391a.56.56,0,0,0-.56.56v2.463a.56.56,0,1,0,1.119,0v-2.463A.56.56,0,0,0,136.966,236.391Z" transform="translate(-107.556 -184.272)"/>
              <path id="Path_1043616" data-name="Path 1043616" d="M81.879,159.265a.573.573,0,0,0-.721.329,1.944,1.944,0,0,1-3.638,0,.571.571,0,0,0-.719-.329.562.562,0,0,0-.331.721,3.064,3.064,0,0,0,5.736,0A.558.558,0,0,0,81.879,159.265Z" transform="translate(-61.011 -124.388)"/>
              <path id="Path_1043617" data-name="Path 1043617" d="M71.245,137.314a.56.56,0,0,0-.56.56v.647a.56.56,0,0,0,1.119,0v-.647A.56.56,0,0,0,71.245,137.314Z" transform="translate(-56.549 -107.378)"/>
              <path id="Path_1043618" data-name="Path 1043618" d="M103.686,137.314a.56.56,0,0,0-.56.56v.647a.56.56,0,0,0,1.119,0v-.647A.56.56,0,0,0,103.686,137.314Z" transform="translate(-81.727 -107.378)"/>
              <path id="Path_1043619" data-name="Path 1043619" d="M87.466,143.6a.56.56,0,0,0,.56-.56v-2.2a.56.56,0,0,0-1.119,0v2.2A.56.56,0,0,0,87.466,143.6Z" transform="translate(-69.138 -109.681)"/>
              <path id="Path_1043620" data-name="Path 1043620" d="M142.278,205.334l-1.151-.376a.568.568,0,0,0-.705.36.559.559,0,0,0,.358.705h0l1.149.374a6.144,6.144,0,0,1,4.252,5.855V215a.56.56,0,1,0,1.12,0v-2.745A7.267,7.267,0,0,0,142.278,205.334Z" transform="translate(-110.65 -159.857)"/>
              <path id="Path_1043621" data-name="Path 1043621" d="M131.619,201.868a.568.568,0,0,0-.705.358.559.559,0,1,0,.705-.358Z" transform="translate(-103.271 -157.458)"/>
              <path id="Path_1043622" data-name="Path 1043622" d="M38.077,95.37a2.984,2.984,0,0,0-2.945-3.408h-.289l0-2.825c2.622-2.484,2.69-6.052-1.3-9.283a.56.56,0,0,0-.9.329,2.325,2.325,0,0,1-2.284,1.892H26.713a.56.56,0,0,0,0,1.119h3.643a3.444,3.444,0,0,0,3.1-1.937c2.781,2.586,2.657,5.136.614,7.072H18.031v-1.88A3.265,3.265,0,0,1,21.288,83.2h.947a.56.56,0,1,0,0-1.119h-.947a4.381,4.381,0,0,0-4.377,4.375c0,3.18,0,1.532,0,5.514h-.347a2.979,2.979,0,0,0,0,5.958h.578a8.918,8.918,0,0,0,4.419,5.878v1.439l-8.988,2.922a7.276,7.276,0,0,0-5.026,6.921v2.745a.56.56,0,1,0,1.119,0v-2.745a6.141,6.141,0,0,1,4.254-5.855l8.647-2.812a4.315,4.315,0,0,0,8.616,0l3.235,1.052a.566.566,0,0,0,.705-.358.557.557,0,0,0-.358-.705l-3.575-1.164v-1.452a8.99,8.99,0,0,0,4.424-5.863h.515A2.975,2.975,0,0,0,38.077,95.37ZM18.034,89.45h1.73l-1.73,2.434Zm15.689,0,0,2.438L31.992,89.45ZM14.708,94.944a1.862,1.862,0,0,1,1.858-1.861h.346V95.9a8.85,8.85,0,0,0,.048.9h-.395A1.86,1.86,0,0,1,14.708,94.944Zm11.17,9.947a9.739,9.739,0,0,0,3.2-.6c0,.769,0,1.7,0,1.88a3.195,3.195,0,1,1-6.389,0v-1.845a8.581,8.581,0,0,0,3.2.564Zm-.03-1.117A7.845,7.845,0,0,1,18.033,95.9V93.819l3.1-4.368h9.482l3.105,4.371V95.9A7.84,7.84,0,0,1,25.849,103.774ZM35.132,96.8H34.8a8.945,8.945,0,0,0,.048-.907V93.081h.289a1.862,1.862,0,0,1,1.838,2.125.016.016,0,0,1,0,0,1.859,1.859,0,0,1-1.837,1.6Z" transform="translate(-7.55 -62.686)"/>
              <circle id="Ellipse_12498" data-name="Ellipse 12498" cx="0.56" cy="0.56" r="0.56" transform="translate(16.365 19.389)"/>
            </g>
          </g>
        </g>
      </g>
    </g>
  </g>
</svg>
