<svg xmlns="http://www.w3.org/2000/svg" xmlns:xlink="http://www.w3.org/1999/xlink" width="103" height="103" viewBox="0 0 103 103">
  <defs>
    <filter id="Path_978624" x="0" y="0" width="103" height="103" filterUnits="userSpaceOnUse">
      <feOffset dy="3" input="SourceAlpha"/>
      <feGaussianBlur stdDeviation="3" result="blur"/>
      <feFlood flood-opacity="0.161"/>
      <feComposite operator="in" in2="blur"/>
      <feComposite in="SourceGraphic"/>
    </filter>
  </defs>
  <g id="Group_1181695" data-name="Group 1181695" transform="translate(-185 -5955)">
    <g id="Group_1181523" data-name="Group 1181523" transform="translate(14 3089)">
      <g id="Group_1176881" data-name="Group 1176881">
        <g id="Group_1175148" data-name="Group 1175148" transform="translate(0 1580)">
          <g id="Group_1173798" data-name="Group 1173798" transform="translate(-3 -3520)">
            <g id="Group_1171925" data-name="Group 1171925" transform="translate(-22 -2246)">
              <g id="Group_1164524" data-name="Group 1164524" transform="translate(205 7058)">
                <g id="Group_1144123" data-name="Group 1144123">
                  <g transform="matrix(1, 0, 0, 1, -9, -6)" filter="url(#Path_978624)">
                    <g id="Path_978624-2" data-name="Path 978624" transform="translate(9 6)" fill="#e5ebfb">
                      <path d="M 42.5 83.5 C 36.96437835693359 83.5 31.59512901306152 82.41617584228516 26.54141235351562 80.27863311767578 C 21.65934181213379 78.21369171142578 17.27447128295898 75.25723266601562 13.50862312316895 71.49137878417969 C 9.742764472961426 67.72553253173828 6.786305904388428 63.34066009521484 4.721364498138428 58.45858764648438 C 2.583823442459106 53.40486907958984 1.5 48.03562164306641 1.5 42.5 C 1.5 36.96437835693359 2.583823442459106 31.59512901306152 4.721364498138428 26.54141235351562 C 6.786305904388428 21.65934181213379 9.742764472961426 17.27447128295898 13.50862312316895 13.50862312316895 C 17.27447128295898 9.742764472961426 21.65934181213379 6.786305904388428 26.54141235351562 4.721364498138428 C 31.59512901306152 2.583823442459106 36.96437835693359 1.5 42.5 1.5 C 48.03562164306641 1.5 53.40486907958984 2.583823442459106 58.45858764648438 4.721364498138428 C 63.34066009521484 6.786305904388428 67.72553253173828 9.742764472961426 71.49137878417969 13.50862312316895 C 75.25723266601562 17.27447128295898 78.21369171142578 21.65934181213379 80.27863311767578 26.54141235351562 C 82.41617584228516 31.59512901306152 83.5 36.96437835693359 83.5 42.5 C 83.5 48.03562164306641 82.41617584228516 53.40486907958984 80.27863311767578 58.45858764648438 C 78.21369171142578 63.34066009521484 75.25723266601562 67.72553253173828 71.49137878417969 71.49137878417969 C 67.72553253173828 75.25723266601562 63.34066009521484 78.21369171142578 58.45858764648438 80.27863311767578 C 53.40486907958984 82.41617584228516 48.03562164306641 83.5 42.5 83.5 Z" stroke="none"/>
                      <path d="M 42.5 3 C 37.16621398925781 3 31.99356079101562 4.043960571289062 27.125732421875 6.102882385253906 C 22.42246627807617 8.092185974121094 18.19785308837891 10.94070434570312 14.56928253173828 14.56928253173828 C 10.94070434570312 18.19785308837891 8.092185974121094 22.42246627807617 6.102882385253906 27.125732421875 C 4.043960571289062 31.99356079101562 3 37.16621398925781 3 42.5 C 3 47.83378601074219 4.043960571289062 53.00643920898438 6.102882385253906 57.87425231933594 C 8.092185974121094 62.57753372192383 10.94070434570312 66.80213165283203 14.56928253173828 70.43071746826172 C 18.19786834716797 74.05929565429688 22.42246627807617 76.90781402587891 27.125732421875 78.89711761474609 C 31.99356079101562 80.95603942871094 37.16621398925781 82 42.5 82 C 47.83378601074219 82 53.00642395019531 80.95603942871094 57.87425231933594 78.89711761474609 C 62.57753372192383 76.90781402587891 66.80213165283203 74.05929565429688 70.43071746826172 70.43071746826172 C 74.05929565429688 66.80213165283203 76.90781402587891 62.57753372192383 78.89711761474609 57.87425231933594 C 80.95603942871094 53.00642395019531 82 47.83378601074219 82 42.5 C 82 37.16621398925781 80.95603942871094 31.99356079101562 78.89711761474609 27.125732421875 C 76.90781402587891 22.42246627807617 74.05929565429688 18.19786834716797 70.43071746826172 14.56928253173828 C 66.80213165283203 10.94070434570312 62.57753372192383 8.092185974121094 57.87425231933594 6.102882385253906 C 53.00643920898438 4.043960571289062 47.83378601074219 3 42.5 3 M 42.5 0 C 65.97209167480469 0 85 19.02789306640625 85 42.5 C 85 65.97209167480469 65.97209167480469 85 42.5 85 C 19.02789306640625 85 0 65.97209167480469 0 42.5 C 0 19.02789306640625 19.02789306640625 0 42.5 0 Z" stroke="none" fill="#11f5d8"/>
                    </g>
                  </g>
                </g>
              </g>
            </g>
          </g>
        </g>
        <g id="_06-Programmer" data-name="06-Programmer" transform="translate(178.735 2871.734)">
          <g id="Group_1181524" data-name="Group 1181524" transform="translate(16 18.727)">
            <path id="Path_1043623" data-name="Path 1043623" d="M32,200h5.453v33.627H32Z" transform="translate(-30.182 -181.823)" fill="#ffdb43"/>
            <path id="Path_1043624" data-name="Path 1043624" d="M336,224h8.18a3.635,3.635,0,0,1,3.635,3.635v.909h-5.433l-.02,1.818H336Z" transform="translate(-299.646 -203.097)" fill="#ffdb43"/>
            <path id="Path_1043625" data-name="Path 1043625" d="M179.815,224h-8.18A3.635,3.635,0,0,0,168,227.635v.909h5.433l.02,1.818h6.362Z" transform="translate(-150.732 -203.097)" fill="#ffdb43"/>
            <path id="Path_1043626" data-name="Path 1043626" d="M145.448,272l11.035,3.065a7.271,7.271,0,0,1,5.325,7.006v14.468H120V282.071a7.271,7.271,0,0,1,5.325-7.006L136.359,272Z" transform="translate(-108.185 -245.643)" fill="#ffdb43"/>
            <path id="Path_1043627" data-name="Path 1043627" d="M16,40H30.542a1.818,1.818,0,0,1,1.818,1.818V54.542a1.818,1.818,0,0,1-1.818,1.818H16Z" transform="translate(-16 -40)" fill="#ffdb43"/>
          </g>
          <path id="Path_1043628" data-name="Path 1043628" d="M32.359,41.818v.909H16V40H30.542A1.818,1.818,0,0,1,32.359,41.818Z" transform="translate(0 -21.273)" fill="#40c6f3"/>
          <circle id="Ellipse_12499" data-name="Ellipse 12499" cx="1.5" cy="1.5" r="1.5" transform="translate(54.265 63.265)" fill="#8b5e3c"/>
          <path id="Path_1043629" data-name="Path 1043629" d="M280,280h5.453v23.63H280Z" transform="translate(-234.008 -234.008)" fill="#40c6f3"/>
          <path id="Path_1043630" data-name="Path 1043630" d="M279.271,231.98v4.547a3.635,3.635,0,0,1-7.271,0V231.98Z" transform="translate(-226.917 -191.443)" fill="#febf91"/>
          <path id="Path_1043631" data-name="Path 1043631" d="M376,112h.909a2.727,2.727,0,1,1,0,5.453H376Z" transform="translate(-319.102 -85.094)" fill="#febf91"/>
          <path id="Path_1043632" data-name="Path 1043632" d="M203.635,117.453h-.909a2.727,2.727,0,0,1,0-5.453h.909Z" transform="translate(-163.097 -85.094)" fill="#febf91"/>
          <rect id="Rectangle_417987" data-name="Rectangle 417987" width="17" height="22" rx="8.5" transform="translate(40.265 20.265)" fill="#fecca8"/>
          <path id="Path_1043633" data-name="Path 1043633" d="M321.088,33.088A9.088,9.088,0,0,1,312,24h1.818a7.271,7.271,0,0,1,7.271,7.271Z" transform="translate(-262.373 -7.091)" fill="#6e3515"/>
          <path id="Path_1043634" data-name="Path 1043634" d="M213.453,32.18a8.18,8.18,0,0,0,8.18-8.18h-6.362A7.271,7.271,0,0,0,208,31.271v.909Z" transform="translate(-170.188 -7.091)" fill="#6e3515"/>
          <path id="Path_1043635" data-name="Path 1043635" d="M335.271,224a1.818,1.818,0,0,1,1.818,1.818v.909a1.818,1.818,0,0,1-1.818,1.818A7.271,7.271,0,0,0,328,235.815v4.544a8.18,8.18,0,0,1,8.18-8.18h.909a3.635,3.635,0,0,0,3.635-3.635v-.909A3.635,3.635,0,0,0,337.089,224Z" transform="translate(-276.555 -184.37)" fill="#ffdb43"/>
          <circle id="Ellipse_12500" data-name="Ellipse 12500" cx="1.5" cy="1.5" r="1.5" transform="translate(40.265 63.265)" fill="#8b5e3c"/>
          <path id="Path_1043636" data-name="Path 1043636" d="M173.453,224a1.818,1.818,0,0,0-1.818,1.818v.909a1.818,1.818,0,0,0,1.818,1.818,7.271,7.271,0,0,1,7.271,7.271v4.544a8.18,8.18,0,0,0-8.18-8.18h-.909A3.635,3.635,0,0,1,168,228.544v-.909A3.635,3.635,0,0,1,171.635,224Z" transform="translate(-134.732 -184.37)" fill="#ffdb43"/>
          <path id="Path_1043637" data-name="Path 1043637" d="M30.542,32H16v1.818H30.542a.91.91,0,0,1,.909.909v.909H16v1.818H31.45v10a.91.91,0,0,1-.909.909H16v1.818H30.542a2.73,2.73,0,0,0,2.727-2.727V34.727A2.73,2.73,0,0,0,30.542,32Z" transform="translate(0 -14.182)"/>
          <path id="Path_1043638" data-name="Path 1043638" d="M107.628,105.081l2.727-2.727a.909.909,0,0,0,0-1.285l-2.727-2.727-1.285,1.285,2.084,2.084-2.084,2.084Z" transform="translate(-80.08 -72.988)"/>
          <path id="Path_1043639" data-name="Path 1043639" d="M18.992,98.343l-2.727,2.727a.909.909,0,0,0,0,1.285l2.727,2.727,1.285-1.285-2.084-2.084,2.084-2.084Z" transform="translate(0 -72.988)"/>
          <path id="Path_1043640" data-name="Path 1043640" d="M0,0H8.129V1.818H0Z" transform="translate(20.633 31.952) rotate(-63.435)"/>
          <path id="Path_1043641" data-name="Path 1043641" d="M19.635,210.727a.91.91,0,0,1,.909-.909V208a2.73,2.73,0,0,0-2.727,2.727v.909a.91.91,0,0,1-.909.909.909.909,0,0,0,0,1.818.91.91,0,0,1,.909.909v.909a2.73,2.73,0,0,0,2.727,2.727v-1.818a.91.91,0,0,1-.909-.909v-.909a2.715,2.715,0,0,0-.7-1.818,2.715,2.715,0,0,0,.7-1.818Z" transform="translate(0 -170.188)"/>
          <path id="Path_1043642" data-name="Path 1043642" d="M59.635,388.544a.91.91,0,0,1-.909-.909v-.909A2.73,2.73,0,0,0,56,384v1.818a.91.91,0,0,1,.909.909v.909a2.722,2.722,0,0,1,0,3.635v.909a.91.91,0,0,1-.909.909v1.818a2.73,2.73,0,0,0,2.727-2.727v-.909a.91.91,0,0,1,.909-.909.909.909,0,0,0,0-1.818Z" transform="translate(-35.456 -326.193)"/>
          <path id="Path_1043643" data-name="Path 1043643" d="M16,320h9.088v1.818H16Z" transform="translate(0 -269.464)"/>
          <path id="Path_1043644" data-name="Path 1043644" d="M48,352h5.453v1.818H48Z" transform="translate(-28.365 -297.828)"/>
          <path id="Path_1043645" data-name="Path 1043645" d="M16,352h1.818v1.818H16Z" transform="translate(0 -297.828)"/>
          <path id="Path_1043646" data-name="Path 1043646" d="M96,248h3.635v1.818H96Z" transform="translate(-70.912 -205.643)"/>
          <path id="Path_1043647" data-name="Path 1043647" d="M64,248h1.818v1.818H64Z" transform="translate(-42.547 -205.643)"/>
          <path id="Path_1043648" data-name="Path 1043648" d="M16,424h3.635v1.818H16Z" transform="translate(0 -361.649)"/>
          <path id="Path_1043649" data-name="Path 1043649" d="M149.634,47.273l-.551-.153a4.523,4.523,0,0,0,1.088-2.945v-.909a4.549,4.549,0,0,0-4.544-4.544h-3.58a8.209,8.209,0,0,0,.853-3.635V33.268a3.635,3.635,0,0,0,1.71-6.842.9.9,0,0,0,.107-.429V24.18a8.189,8.189,0,0,0-8.18-8.18h-6.362A8.189,8.189,0,0,0,122,24.18v.909a.909.909,0,0,0,.909.909h1.818a3.635,3.635,0,0,0,0,7.271v1.818a8.209,8.209,0,0,0,.853,3.635H122a4.549,4.549,0,0,0-4.544,4.544v.909a4.523,4.523,0,0,0,1.088,2.945l-.55.153A8.2,8.2,0,0,0,112,55.154V69.622a.909.909,0,0,0,.909.909h41.807a.909.909,0,0,0,.909-.909V55.154a8.2,8.2,0,0,0-5.99-7.882Zm-3.1-4.916v-.909a2.721,2.721,0,0,0-.117-.792,2.732,2.732,0,0,1,1.935,2.609v.909a2.73,2.73,0,0,1-2.727,2.727h-.909a9.079,9.079,0,0,0-7.192,3.537,6.372,6.372,0,0,1,6.283-5.355,2.73,2.73,0,0,0,2.727-2.727ZM135.521,22.494a10.1,10.1,0,0,0,5.422,3.994,6.368,6.368,0,0,1,.139,1.327h-4.544a1.818,1.818,0,0,0-1.572.909h-2.31a1.818,1.818,0,0,0-1.572-.909h-4.544A6.335,6.335,0,0,1,126.805,26h1.554a9.075,9.075,0,0,0,7.161-3.5Zm3.744,8.957V29.632h1.818V31.45a.91.91,0,0,1-.909.909h-2.727a.91.91,0,0,1-.909-.909V29.633h.909V31.45Zm-12.724-1.818h1.818V31.45h1.818V29.632h.909V31.45a.91.91,0,0,1-.909.909H127.45a.91.91,0,0,1-.909-.909Zm0,4.388a2.714,2.714,0,0,0,.909.156h2.727A2.73,2.73,0,0,0,132.9,31.45v-.909h1.818v.909a2.73,2.73,0,0,0,2.727,2.727h2.727a2.714,2.714,0,0,0,.909-.156v1.065a6.29,6.29,0,0,1-1.394,3.976,6.39,6.39,0,0,1-2.583,1.924,6.3,6.3,0,0,1-2.384.462H132.9a6.307,6.307,0,0,1-2.386-.463,6.39,6.39,0,0,1-2.582-1.923,6.291,6.291,0,0,1-1.394-3.976Zm17.268,6.518a.91.91,0,0,1,.909.909v.909a.91.91,0,0,1-.909.909,8.13,8.13,0,0,0-4.267,1.2l-.943-.262a.909.909,0,0,0-.243-.033V42.413a8.216,8.216,0,0,0,2.461-1.875Zm-13.642,15.1v2.172h.009v1.441l-2.35-2.35,2.228-2.228a7.251,7.251,0,0,1,.113.965Zm1.6-8.748a2.723,2.723,0,0,1-.682-1.8V43.061a8.18,8.18,0,0,0,1.818.2h1.818a8.183,8.183,0,0,0,1.817-.2v2.022a2.727,2.727,0,0,1-4.771,1.8Zm5.68,10.92h.009V55.635a7.252,7.252,0,0,1,.114-.965L139.8,56.9l-2.35,2.35ZM142.9,31.45V27.815a1.818,1.818,0,1,1,0,3.635Zm0-7.271v.859a8.133,8.133,0,0,1-1-.174,8.241,8.241,0,0,1-5.313-4.109,9.013,9.013,0,0,0,.8-2.878A6.37,6.37,0,0,1,142.9,24.18Zm-19.086,0a6.369,6.369,0,0,1,6.362-6.362h5.4a7.282,7.282,0,0,1-7.214,6.362Zm-.909,5.453a1.82,1.82,0,0,1,1.818-1.818V31.45A1.82,1.82,0,0,1,122.906,29.633Zm0,11.815a.91.91,0,0,1,.909-.909h2.992a8.217,8.217,0,0,0,2.461,1.875v1.761a.909.909,0,0,0-.243.033l-.943.262a8.13,8.13,0,0,0-4.267-1.2.91.91,0,0,1-.909-.909Zm-3.635,1.818a2.732,2.732,0,0,1,1.935-2.609,2.72,2.72,0,0,0-.117.792v.909a2.73,2.73,0,0,0,2.727,2.727,6.372,6.372,0,0,1,6.282,5.354,9.078,9.078,0,0,0-7.191-3.537H122a2.73,2.73,0,0,1-2.727-2.727Zm-5.453,11.889a6.38,6.38,0,0,1,4.659-6.13l2.019-.561a4.522,4.522,0,0,0,1.5.256h.909a7.278,7.278,0,0,1,6.5,4.026l-3.51,3.511a.906.906,0,0,0-.267.643v4.7a2.727,2.727,0,1,0,1.818,0V59.092l2.727,2.727v6.894h-9.089v-8.18h-1.818v8.18h-5.453Zm13.633,9.015a.909.909,0,1,1-.909-.909A.909.909,0,0,1,127.45,64.169Zm4.544-2.727v-12.2a4.525,4.525,0,0,0,3.635,0V68.713h-3.635Zm21.812,7.271h-5.453v-8.18h-1.818v8.18h-9.088V61.819l2.727-2.727V61.6a2.727,2.727,0,1,0,1.818,0V56.9a.906.906,0,0,0-.266-.643l-3.51-3.511a7.278,7.278,0,0,1,6.5-4.026h.909a4.522,4.522,0,0,0,1.5-.256l2.019.561a6.381,6.381,0,0,1,4.659,6.13Zm-11.815-4.544a.909.909,0,1,1-.909-.909A.909.909,0,0,1,141.992,64.169Z" transform="translate(-85.094)"/>
          <path id="Path_1043650" data-name="Path 1043650" d="M292.278,196.537l.909-.909-1.285-1.285-.643.643H288V196.8h3.635a.909.909,0,0,0,.643-.266Z" transform="translate(-241.099 -158.082)"/>
        </g>
      </g>
    </g>
  </g>
</svg>
