<svg xmlns="http://www.w3.org/2000/svg" xmlns:xlink="http://www.w3.org/1999/xlink" width="113" height="113" viewBox="0 0 113 113">
  <defs>
    <filter id="Path_982547" x="0" y="0" width="113" height="113" filterUnits="userSpaceOnUse">
      <feOffset dy="3" input="SourceAlpha"/>
      <feGaussianBlur stdDeviation="3" result="blur"/>
      <feFlood flood-opacity="0.161"/>
      <feComposite operator="in" in2="blur"/>
      <feComposite in="SourceGraphic"/>
    </filter>
  </defs>
  <g id="Group_1210342" data-name="Group 1210342" transform="translate(-587.088 -7812.479)">
    <g id="Group_1210278" data-name="Group 1210278">
      <g id="Group_1210203" data-name="Group 1210203" transform="translate(0 1380.707)">
        <g id="Group_1202604" data-name="Group 1202604" transform="translate(316.088 5561.358)">
          <g id="Group_1174813" data-name="Group 1174813" transform="translate(280 876.414)">
            <g id="Group_1201680" data-name="Group 1201680">
              <g id="Group_1201330" data-name="Group 1201330">
                <g id="Group_1172010" data-name="Group 1172010">
                  <g id="Group_1171046" data-name="Group 1171046">
                    <g id="Group_1148525" data-name="Group 1148525">
                      <g transform="matrix(1, 0, 0, 1, -9, -6)" filter="url(#Path_982547)">
                        <g id="Path_982547-2" data-name="Path 982547" transform="translate(9 6)" fill="#f6ecfe">
                          <path d="M 47.5 93.5 C 41.28937149047852 93.5 35.26533508300781 92.28397369384766 29.59518623352051 89.88570404052734 C 24.11771965026855 87.56893157958984 19.19813346862793 84.25196075439453 14.97309303283691 80.02691650390625 C 10.74804019927979 75.80186462402344 7.431066513061523 70.88229370117188 5.114293098449707 65.40481567382812 C 2.716026782989502 59.73468017578125 1.5 53.71062850952148 1.5 47.5 C 1.5 41.28937149047852 2.716026782989502 35.26533508300781 5.114293098449707 29.59518623352051 C 7.431066513061523 24.11771965026855 10.74804019927979 19.19813346862793 14.97309303283691 14.97309303283691 C 19.19813346862793 10.74804019927979 24.11771965026855 7.431066513061523 29.59518623352051 5.114293098449707 C 35.26533508300781 2.716026782989502 41.28937149047852 1.5 47.5 1.5 C 53.71062850952148 1.5 59.73468017578125 2.716026782989502 65.40481567382812 5.114293098449707 C 70.88229370117188 7.431066513061523 75.80186462402344 10.74804019927979 80.02691650390625 14.97309303283691 C 84.25196075439453 19.19813346862793 87.56893157958984 24.11771965026855 89.88570404052734 29.59518623352051 C 92.28397369384766 35.26533508300781 93.5 41.28937149047852 93.5 47.5 C 93.5 53.71062850952148 92.28397369384766 59.73468017578125 89.88570404052734 65.40481567382812 C 87.56893157958984 70.88229370117188 84.25196075439453 75.80186462402344 80.02691650390625 80.02691650390625 C 75.80186462402344 84.25196075439453 70.88229370117188 87.56893157958984 65.40481567382812 89.88570404052734 C 59.73468017578125 92.28397369384766 53.71062850952148 93.5 47.5 93.5 Z" stroke="none"/>
                          <path d="M 47.5 3 C 41.49121475219727 3 35.66376876831055 4.176155090332031 30.17950439453125 6.495796203613281 C 24.88084411621094 8.736953735351562 20.12152099609375 11.94598388671875 16.03375244140625 16.03375244140625 C 11.94598388671875 20.12152099609375 8.736953735351562 24.88084411621094 6.495796203613281 30.17950439453125 C 4.176155090332031 35.66376876831055 3 41.49121475219727 3 47.5 C 3 53.50878524780273 4.176155090332031 59.33623123168945 6.495796203613281 64.82049560546875 C 8.736953735351562 70.11915588378906 11.94598388671875 74.87847900390625 16.03375244140625 78.96624755859375 C 20.12152099609375 83.05401611328125 24.88084411621094 86.26304626464844 30.17950439453125 88.50419616699219 C 35.66376876831055 90.82384490966797 41.49121475219727 92 47.5 92 C 53.50878524780273 92 59.33623123168945 90.82384490966797 64.82049560546875 88.50419616699219 C 70.11915588378906 86.26304626464844 74.87847900390625 83.05401611328125 78.96624755859375 78.96624755859375 C 83.05401611328125 74.87847900390625 86.26304626464844 70.11915588378906 88.50419616699219 64.82049560546875 C 90.82384490966797 59.33623123168945 92 53.50878524780273 92 47.5 C 92 41.49121475219727 90.82384490966797 35.66376876831055 88.50419616699219 30.17950439453125 C 86.26304626464844 24.88084411621094 83.05401611328125 20.12152099609375 78.96624755859375 16.03375244140625 C 74.87847900390625 11.94598388671875 70.11915588378906 8.736953735351562 64.82049560546875 6.495796203613281 C 59.33623123168945 4.176155090332031 53.50878524780273 3 47.5 3 M 47.5 0 C 73.7335205078125 0 95 21.2664794921875 95 47.5 C 95 73.7335205078125 73.7335205078125 95 47.5 95 C 21.2664794921875 95 0 73.7335205078125 0 47.5 C 0 21.2664794921875 21.2664794921875 0 47.5 0 Z" stroke="none" fill="#aa52f9"/>
                        </g>
                      </g>
                    </g>
                  </g>
                </g>
              </g>
            </g>
          </g>
        </g>
      </g>
      <g id="online-gambling_5247993" transform="translate(611.618 7814.174)">
        <g id="Group_1210277" data-name="Group 1210277" transform="translate(1.009 29.654)">
          <g id="Group_1210276" data-name="Group 1210276" transform="translate(0 0)">
            <path id="Path_1050023" data-name="Path 1050023" d="M50.385,88.516v30.511a1.043,1.043,0,0,1-1.039,1.039H8.555a1.044,1.044,0,0,1-1.043-1.039V88.516l21.377-.91Z" transform="translate(-7.512 -80.696)" fill="#b3dafe" fill-rule="evenodd"/>
            <path id="Path_1050024" data-name="Path 1050024" d="M50.385,94.381v30.511a1.043,1.043,0,0,1-1.039,1.039H8.555a1.044,1.044,0,0,1-1.043-1.039v-2.22h35.7a3.921,3.921,0,0,0,3.91-3.91V94.381Z" transform="translate(-7.512 -86.561)" fill="#8ac9fe" fill-rule="evenodd"/>
            <path id="Path_1050025" data-name="Path 1050025" d="M360.223,224.931h2.806l5.6-.75,6.221.75a1.045,1.045,0,0,1,1.043,1.043v1.991a1.047,1.047,0,0,1-1.043,1.043l-5.795.879-6.034-.879h-2.795a1.047,1.047,0,0,1-1.043-1.043v-1.991A1.045,1.045,0,0,1,360.223,224.931Z" transform="translate(-311.948 -198.928)" fill="#ff4255" fill-rule="evenodd"/>
            <path id="Path_1050026" data-name="Path 1050026" d="M381.116,260.125h14.627a1.047,1.047,0,0,1,1.043,1.043v1.991a1.05,1.05,0,0,1-1.043,1.043H381.116a1.05,1.05,0,0,1-1.043-1.043v-1.991A1.047,1.047,0,0,1,381.116,260.125Z" transform="translate(-330.035 -230.044)" fill="#ff6471" fill-rule="evenodd"/>
            <path id="Path_1050027" data-name="Path 1050027" d="M381.116,199.406h14.627a1.047,1.047,0,0,1,1.043,1.043v1.991a1.047,1.047,0,0,1-1.043,1.043H381.116a1.047,1.047,0,0,1-1.043-1.043v-1.991A1.047,1.047,0,0,1,381.116,199.406Z" transform="translate(-330.035 -177.48)" fill="#ff6471" fill-rule="evenodd"/>
            <path id="Path_1050028" data-name="Path 1050028" d="M388.43,74.963a8.333,8.333,0,0,1,5.178,1.8l.51.845.872.537a8.358,8.358,0,0,1,0,10.356l-.758.563-.624.819a8.358,8.358,0,0,1-10.356,0l-.5-.712-.88-.67a8.357,8.357,0,0,1,0-10.356l.94-.579.441-.8A8.333,8.333,0,0,1,388.43,74.963Z" transform="translate(-330.035 -69.751)" fill="#ff6471" fill-rule="evenodd"/>
            <path id="Path_1050029" data-name="Path 1050029" d="M399.231,82.759a8.317,8.317,0,0,1,1.127.754l.51.841.872.537a8.358,8.358,0,0,1,0,10.356l-.758.563-.624.819a8.358,8.358,0,0,1-10.356,0l-.5-.712-.876-.67a8.282,8.282,0,0,1-.754-1.127,8.358,8.358,0,0,0,11.361-11.361Z" transform="translate(-336.785 -76.5)" fill="#ff4056" fill-rule="evenodd"/>
            <path id="Path_1050030" data-name="Path 1050030" d="M419.793,116.7l2.022-2.022a1.052,1.052,0,0,1,1.477,0l2.022,2.022a1.052,1.052,0,0,1,0,1.477l-2.022,2.022a1.052,1.052,0,0,1-1.477,0l-2.022-2.022A1.053,1.053,0,0,1,419.793,116.7Z" transform="translate(-364.158 -103.873)" fill="#ffd15b" fill-rule="evenodd"/>
            <path id="Path_1050031" data-name="Path 1050031" d="M8.555,36.157h40.79A1.044,1.044,0,0,1,50.385,37.2v6.777H7.512V37.2a1.045,1.045,0,0,1,1.043-1.043Z" transform="translate(-7.512 -36.157)" fill="#017297" fill-rule="evenodd"/>
            <path id="Path_1050032" data-name="Path 1050032" d="M302.461,36.156v7.82h3.259V37.2a1.044,1.044,0,0,0-1.039-1.043h-2.22Z" transform="translate(-262.847 -36.156)" fill="#025f80" fill-rule="evenodd"/>
            <path id="Path_1050033" data-name="Path 1050033" d="M78.616,227.384h16.1a4.432,4.432,0,0,1,0,8.863h-16.1a4.432,4.432,0,0,1,0-8.863Z" transform="translate(-65.229 -201.701)" fill="#9be69d" fill-rule="evenodd"/>
            <path id="Path_1050034" data-name="Path 1050034" d="M96.573,228.319a4.431,4.431,0,0,1-1.047,8.738h-16.1a4.445,4.445,0,0,1-4.306-3.385,4.307,4.307,0,0,0,1.047.126h16.1a4.446,4.446,0,0,0,4.432-4.432A4.312,4.312,0,0,0,96.573,228.319Z" transform="translate(-66.039 -202.51)" fill="#6fd7a3" fill-rule="evenodd"/>
            <path id="Path_1050035" data-name="Path 1050035" d="M168.52,291.268l7.584-7.812a2.2,2.2,0,0,1,1.656-.7H188.29c.434,0,.643-.32.27-.674l-20.015-19.078c-.373-.354-.7-.156-.7.3V290.99c0,.392.339.625.678.278Z" transform="translate(-146.308 -232.382)" fill="#faf7f8" fill-rule="evenodd"/>
            <path id="Path_1050036" data-name="Path 1050036" d="M168.52,398.719l7.584-7.812a2.2,2.2,0,0,1,1.656-.7H188.29c.434,0,.643-.32.271-.674l-2.715-2.589H175.8a2.188,2.188,0,0,0-1.652.7l-6.308,6.5v4.3C167.842,398.833,168.181,399.065,168.52,398.719Z" transform="translate(-146.308 -339.833)" fill="#eee9fb" fill-rule="evenodd"/>
          </g>
          <path id="Path_1050037" data-name="Path 1050037" d="M75.151,134.12l3.7,3.7a.565.565,0,0,1,0,.8l-3.7,3.7a.563.563,0,0,1-.963-.4v-7.409a.565.565,0,0,1,.967-.4Z" transform="translate(-65.229 -120.817)" fill="#ff6471"/>
          <path id="Path_1050038" data-name="Path 1050038" d="M152.2,134.12l3.7,3.7a.565.565,0,0,1,0,.8l-3.7,3.7a.563.563,0,0,1-.963-.4v-7.409a.565.565,0,0,1,.967-.4Z" transform="translate(-131.928 -120.817)" fill="#ff6471"/>
          <path id="Path_1050039" data-name="Path 1050039" d="M229.248,134.12l3.7,3.7a.565.565,0,0,1,0,.8l-3.7,3.7a.567.567,0,0,1-.967-.4v-7.409a.565.565,0,0,1,.567-.563A.574.574,0,0,1,229.248,134.12Z" transform="translate(-198.626 -120.817)" fill="#ff6471"/>
        </g>
        <path id="Path_1050040" data-name="Path 1050040" d="M38.083,80.823a1.007,1.007,0,0,1,0-2.014h2.539q-8.589-8.184-17.171-16.363V86.229l6.91-7.112a1.031,1.031,0,0,1,.739-.308h2.421a1.007,1.007,0,1,1,0,2.014H31.5l-8.285,8.532a1.006,1.006,0,0,1-1.778-.643V70.033H1.009A1.008,1.008,0,0,1,0,69.024V29.654a1.011,1.011,0,0,1,1.009-1.009H43.882a1.008,1.008,0,0,1,1.009,1.009v39.37a1.006,1.006,0,0,1-1.009,1.009H34.326l9.45,9.008a1.006,1.006,0,0,1-.639,1.782ZM31.375,42.081l4.268,4.264a1.009,1.009,0,0,1,0,1.424L31.371,52.04a1.005,1.005,0,0,1-1.717-.712v-8.54a1,1,0,0,1,1.721-.708ZM33.5,47.057l-1.835-1.835V48.9ZM21.027,42.081l4.264,4.264a1,1,0,0,1,0,1.424L21.024,52.04a1.009,1.009,0,0,1-1.721-.712v-8.54a1.007,1.007,0,0,1,1.725-.708Zm2.128,4.976-1.839-1.835V48.9ZM10.679,42.081l4.264,4.264a1.009,1.009,0,0,1,0,1.424L10.675,52.04a1.009,1.009,0,0,1-1.721-.712v-8.54A1.011,1.011,0,0,1,9.964,41.78a1,1,0,0,1,.716.3Zm2.128,4.976-1.839-1.835V48.9Zm8.631,18.153H14.4a5.44,5.44,0,0,1,0-10.881h5.768a1.007,1.007,0,1,1,0,2.014H14.4a3.427,3.427,0,0,0,0,6.853h7.043V60.13a1.054,1.054,0,0,1,.278-.727,1,1,0,0,1,1.42-.034L27.153,63.2H30.5a3.427,3.427,0,0,0,0-6.853H24.728a1.007,1.007,0,1,1,0-2.014H30.5a5.44,5.44,0,0,1,0,10.881h-1.23l2.947,2.81H42.877V38.483H2.014V68.019H21.438Zm6.606-30.636a1.009,1.009,0,0,1,0-2.018h1.367a1.009,1.009,0,0,1,0,2.018Zm5.281,0a1.009,1.009,0,0,1,0-2.018h1.367a1.009,1.009,0,0,1,0,2.018Zm5.28,0a1.009,1.009,0,0,1,0-2.018h1.367a1.009,1.009,0,0,1,0,2.018Zm-36.591,1.9H42.877v-5.81H2.014Zm52.954.895.339.339a1.008,1.008,0,1,1-1.424,1.428l-.339-.343a7.352,7.352,0,0,0,0,8.871l.339-.339a1.007,1.007,0,0,1,1.424,1.424l-.339.339a7.352,7.352,0,0,0,8.871,0l-.339-.339a1.007,1.007,0,0,1,1.424-1.424l.339.339a7.33,7.33,0,0,0,1.218-2.444,1.006,1.006,0,0,1,1.938.541,9.358,9.358,0,0,1-3.213,4.816h2.555a1.007,1.007,0,0,1,1.005,1.009v4.077a1,1,0,0,1-1.005,1.005h-1.8v2.064h1.8a1.007,1.007,0,0,1,1.005,1.009v4.077a1,1,0,0,1-1.005,1.005H51.047a1,1,0,0,1-1.005-1.005V60.739h-1.8a1.007,1.007,0,0,1-1.009-1.005V55.657a1.011,1.011,0,0,1,1.009-1.009h1.8V51.58a1.007,1.007,0,0,1,1.005-1.009H53.6a9.362,9.362,0,1,1,14.818-9.88,1.006,1.006,0,0,1-1.938.544,7.314,7.314,0,0,0-1.218-2.448l-.339.343A1.008,1.008,0,0,1,63.5,37.7l.339-.339a7.351,7.351,0,0,0-8.871,0Zm.228,5.147,3.495-3.5a1,1,0,0,1,1.424,0l3.5,3.5a1.009,1.009,0,0,1,0,1.424l-3.5,3.5a1.009,1.009,0,0,1-1.424,0l-3.495-3.5A1,1,0,0,1,55.2,42.511ZM59.4,41.152l-2.071,2.071L59.4,45.294l2.071-2.071ZM52.056,52.585v2.064h14.7V52.585Zm11.89,4.078H49.25v2.064h14.7ZM52.056,60.74V62.8h14.7V60.74Z"/>
      </g>
    </g>
  </g>
</svg>
