<svg xmlns="http://www.w3.org/2000/svg" xmlns:xlink="http://www.w3.org/1999/xlink" width="108" height="108" viewBox="0 0 108 108">
  <defs>
    <filter id="Path_904820" x="0" y="0" width="108" height="108" filterUnits="userSpaceOnUse">
      <feOffset dy="3" input="SourceAlpha"/>
      <feGaussianBlur stdDeviation="3" result="blur"/>
      <feFlood flood-opacity="0.161"/>
      <feComposite operator="in" in2="blur"/>
      <feComposite in="SourceGraphic"/>
    </filter>
  </defs>
  <g id="Group_1210295" data-name="Group 1210295" transform="translate(-200 -1109)">
    <g id="Group_1210230" data-name="Group 1210230" transform="translate(0 -7)">
      <g id="Group_1174741" data-name="Group 1174741" transform="translate(209 1122)">
        <g id="Group_1173585" data-name="Group 1173585" transform="translate(0 0)">
          <g id="Group_1173428" data-name="Group 1173428">
            <g id="Group_1171958" data-name="Group 1171958">
              <g id="Group_1167341" data-name="Group 1167341">
                <g id="Group_1166792" data-name="Group 1166792">
                  <g transform="matrix(1, 0, 0, 1, -9, -6)" filter="url(#Path_904820)">
                    <g id="Path_904820-2" data-name="Path 904820" transform="translate(9 6)" fill="#e5fdfa">
                      <path d="M 44.99999618530273 88.50003051757812 C 39.12687301635742 88.50003051757812 33.43022155761719 87.35010528564453 28.06829643249512 85.08219146728516 C 22.88852119445801 82.89134216308594 18.23629570007324 79.75461578369141 14.24084663391113 75.75916290283203 C 10.24540901184082 71.76371765136719 7.108683586120605 67.11148834228516 4.917821407318115 61.93171691894531 C 2.649921178817749 56.56978988647461 1.499996185302734 50.87313842773438 1.499996185302734 45.00001525878906 C 1.499996185302734 39.12689208984375 2.649921178817749 33.43024063110352 4.917821407318115 28.06830215454102 C 7.108683586120605 22.88852691650391 10.24540901184082 18.23631477355957 14.24084663391113 14.24086570739746 C 18.23629570007324 10.24541568756104 22.88852119445801 7.10869026184082 28.06829643249512 4.917827606201172 C 33.43022155761719 2.649927854537964 39.12687301635742 1.50000274181366 44.99999618530273 1.50000274181366 C 50.87311935424805 1.50000274181366 56.56977081298828 2.649927854537964 61.93169784545898 4.917827606201172 C 67.11147308349609 7.10869026184082 71.76369476318359 10.24541568756104 75.75914764404297 14.24086570739746 C 79.75458526611328 18.23631477355957 82.89131164550781 22.88852691650391 85.08216857910156 28.06830215454102 C 87.35007476806641 33.43024063110352 88.5 39.12689208984375 88.5 45.00001525878906 C 88.5 50.87313842773438 87.35007476806641 56.56978988647461 85.08216857910156 61.93171691894531 C 82.89131164550781 67.11148834228516 79.75458526611328 71.76371765136719 75.75914764404297 75.75916290283203 C 71.76369476318359 79.75461578369141 67.11147308349609 82.89134216308594 61.93169784545898 85.08219146728516 C 56.56977081298828 87.35010528564453 50.87311935424805 88.50003051757812 44.99999618530273 88.50003051757812 Z" stroke="none"/>
                      <path d="M 44.99999618530273 3 C 39.32870864868164 3 33.82865142822266 4.110061645507812 28.65262603759766 6.299346923828125 C 23.65165710449219 8.414573669433594 19.15968322753906 11.44334411621094 15.301513671875 15.301513671875 C 11.44333648681641 19.15968322753906 8.414566040039062 23.65165710449219 6.299339294433594 28.65262985229492 C 4.110054016113281 33.82867050170898 2.999992370605469 39.32872772216797 2.999992370605469 45.00001525878906 C 2.999992370605469 50.67130279541016 4.110054016113281 56.17136001586914 6.299339294433594 61.34738922119141 C 8.414566040039062 66.34837341308594 11.44333648681641 70.84033203125 15.301513671875 74.69850158691406 C 19.15968322753906 78.55668640136719 23.65165710449219 81.58545684814453 28.65262603759766 83.70068359375 C 33.82865142822266 85.88996887207031 39.32870864868164 87.00003051757812 44.99999618530273 87.00003051757812 C 50.67128372192383 87.00003051757812 56.17134094238281 85.88996887207031 61.34736633300781 83.70068359375 C 66.34834289550781 81.58545684814453 70.84030914306641 78.55668640136719 74.69847869873047 74.69850158691406 C 78.55665588378906 70.84033203125 81.58542633056641 66.34837341308594 83.70065307617188 61.34738922119141 C 85.88993835449219 56.17136001586914 87 50.67130279541016 87 45.00001525878906 C 87 39.32872772216797 85.88993835449219 33.82867050170898 83.70065307617188 28.65262985229492 C 81.58542633056641 23.65165710449219 78.55665588378906 19.15968322753906 74.69847869873047 15.301513671875 C 70.84030914306641 11.44334411621094 66.34834289550781 8.414573669433594 61.34736633300781 6.299346923828125 C 56.17134094238281 4.110061645507812 50.67128372192383 3 44.99999618530273 3 M 44.99999618530273 0 C 69.85281372070312 0 90 20.14718627929688 90 45.00001525878906 C 90 69.85282897949219 69.85281372070312 90.00003051757812 44.99999618530273 90.00003051757812 C 20.14717864990234 90.00003051757812 -7.62939453125e-06 69.85282897949219 -7.62939453125e-06 45.00001525878906 C -7.62939453125e-06 20.14718627929688 20.14717864990234 0 44.99999618530273 0 Z" stroke="none" fill="#098576"/>
                    </g>
                  </g>
                </g>
              </g>
            </g>
          </g>
        </g>
      </g>
      <g id="teacher_6928041" transform="translate(228.438 1135.303)">
        <g id="Group_1210228" data-name="Group 1210228" transform="translate(1.022 1.022)">
          <g id="Group_1210214" data-name="Group 1210214" transform="translate(2.045)">
            <path id="Path_1049857" data-name="Path 1049857" d="M130.584,24.359h2.045a4.09,4.09,0,0,1,4.09,4.09V21.292l2.045,1.022v-.539a7.4,7.4,0,0,0-4.09-6.618l2.045-2.045-.663-.829a11.414,11.414,0,0,0-14.017-3.078l-1.679.84-2.573-1.287A7.2,7.2,0,0,0,114.563,8h-.05a6.993,6.993,0,0,0-4.2,1.4L109,10.384A12.512,12.512,0,0,0,104,20.4v.115a11.95,11.95,0,0,0,1.143,5.1,4.079,4.079,0,0,1,2.947-1.254h2.045a9.353,9.353,0,0,1,6.528-4.987l.629-.125,1.022,3.067.514-.128a9.542,9.542,0,0,0,5.621-3.962A13.725,13.725,0,0,0,130.584,24.359Z" transform="translate(-104 -8)" fill="#656d78"/>
          </g>
          <g id="Group_1210215" data-name="Group 1210215" transform="translate(0 32.719)">
            <path id="Path_1049858" data-name="Path 1049858" d="M43.919,284.449h2.045v-7.157a1.022,1.022,0,0,1,1.022-1.022H52.88a3.7,3.7,0,0,1,3.309,2.045A3.7,3.7,0,0,1,59.5,276.27h5.893a1.022,1.022,0,0,1,1.022,1.022v3.067l3.653-1.218a4.087,4.087,0,0,0,2.771-3.428L74.139,264H66.823l-2.454,6.135L53.49,267.027l-3.435,5.153-4.09-4.09-4.09,4.09-3.435-5.153-.05-.235-3.556.762a9.2,9.2,0,0,0-7.274,9v9.942a6.135,6.135,0,0,0,6.135,6.135H43.919Z" transform="translate(-27.56 -264)" fill="#b4dd7f"/>
          </g>
          <g id="Group_1210216" data-name="Group 1210216" transform="translate(16.359 53.168)">
            <path id="Path_1049859" data-name="Path 1049859" d="M232,424v8.18h4.09V424H232Z" transform="translate(-232 -424)" fill="#a0d468"/>
          </g>
          <g id="Group_1210217" data-name="Group 1210217" transform="translate(39.263 28.629)">
            <path id="Path_1049860" data-name="Path 1049860" d="M25.636,232,24,236.09h7.316l.455-4.09Z" transform="translate(-24 -232)" fill="#a0d468"/>
          </g>
          <g id="Group_1210218" data-name="Group 1210218" transform="translate(10.829 34.764)">
            <path id="Path_1049861" data-name="Path 1049861" d="M248,280.746l.05.235,3.436,5.153,4.09-4.09L251.485,280Z" transform="translate(-248 -280)" fill="#a0d468"/>
          </g>
          <g id="Group_1210219" data-name="Group 1210219" transform="translate(18.404 34.764)">
            <path id="Path_1049862" data-name="Path 1049862" d="M189.12,282.045l4.09,4.09,3.435-5.153L193.21,280Z" transform="translate(-189.12 -280)" fill="#a0d468"/>
          </g>
          <g id="Group_1210220" data-name="Group 1210220" transform="translate(18.404 44.989)">
            <path id="Path_1049863" data-name="Path 1049863" d="M168,361.022v7.157h2.045l1.622-1.622a1.447,1.447,0,0,1,2.468,1.022v.6h2.045a2.044,2.044,0,0,1,2.045,2.045v-8.18A3.7,3.7,0,0,0,174.916,360h-5.893A1.022,1.022,0,0,0,168,361.022Z" transform="translate(-168 -360)" fill="#e6e9ed"/>
          </g>
          <g id="Group_1210221" data-name="Group 1210221" transform="translate(26.584 44.989)">
            <path id="Path_1049864" data-name="Path 1049864" d="M88,376.359H99.247a1.022,1.022,0,0,0,1.022-1.022V361.022A1.022,1.022,0,0,0,99.247,360H93.354a3.7,3.7,0,0,0-3.309,2.045v12.27A2.044,2.044,0,0,1,88,376.359Z" transform="translate(-88 -360)" fill="#e6e9ed"/>
          </g>
          <g id="Group_1210222" data-name="Group 1210222" transform="translate(20.449 51.123)">
            <path id="Path_1049865" data-name="Path 1049865" d="M168,410.045v8.18h6.135a2.044,2.044,0,0,0,2.045-2.045v-4.09a2.044,2.044,0,0,0-2.045-2.045H172.09v-.6a1.446,1.446,0,0,0-2.468-1.022Z" transform="translate(-168 -408)" fill="#f0d0b4"/>
          </g>
          <g id="Group_1210223" data-name="Group 1210223" transform="translate(2.045 16.36)">
            <path id="Path_1049866" data-name="Path 1049866" d="M329.093,137.254a4.09,4.09,0,0,0,2.947,6.926h2.051c0-.11-.006-.221-.006-.332V136H332.04A4.079,4.079,0,0,0,329.093,137.254Z" transform="translate(-327.95 -136)" fill="#f0d0b4"/>
          </g>
          <g id="Group_1210224" data-name="Group 1210224" transform="translate(8.18 10.225)">
            <path id="Path_1049867" data-name="Path 1049867" d="M168,100.27v1.713c0,.111,0,.222.006.332a8.971,8.971,0,0,0,6.128,8.18v2.045l4.09,2.045,4.09-2.045v-2.045a8.971,8.971,0,0,0,6.128-8.18c0-.11.006-.221.006-.332V94.135A13.725,13.725,0,0,1,182.315,88a9.542,9.542,0,0,1-5.621,3.962l-.514.128-1.022-3.067-.629.125A9.353,9.353,0,0,0,168,94.135Z" transform="translate(-168 -88)" fill="#f0d0b4"/>
          </g>
          <g id="Group_1210225" data-name="Group 1210225" transform="translate(28.623 16.36)">
            <path id="Path_1049868" data-name="Path 1049868" d="M120.006,142.135v1.713c0,.111,0,.222-.006.332h2.051a4.09,4.09,0,1,0,0-8.18h-2.045Z" transform="translate(-120 -136)" fill="#f0d0b4"/>
          </g>
          <g id="Group_1210226" data-name="Group 1210226" transform="translate(38.854 14.315)">
            <path id="Path_1049869" data-name="Path 1049869" d="M14.135,128.18v-6.8a1.38,1.38,0,0,0-2.459-.863l-2.763,3.452a4.171,4.171,0,0,0-.753,3.747l1.885,6.6H16.18a6.983,6.983,0,0,0,2.045-4.937v-1.2a2.045,2.045,0,0,0-4.09,0Z" transform="translate(-8 -120)" fill="#f0d0b4"/>
          </g>
          <g id="Group_1210227" data-name="Group 1210227" transform="translate(44.989 10.225)">
            <path id="Path_1049870" data-name="Path 1049870" d="M8,93.471v6.8a2.045,2.045,0,1,1,4.09,0V89.022A1.022,1.022,0,0,0,11.067,88H9.022A1.022,1.022,0,0,0,8,89.022Z" transform="translate(-8 -88)" fill="#69d6f4"/>
          </g>
        </g>
        <g id="Group_1210229" data-name="Group 1210229" transform="translate(0 0)">
          <circle id="Ellipse_12659" data-name="Ellipse 12659" cx="1" cy="1" r="1" transform="translate(22.562 18.697)"/>
          <circle id="Ellipse_12660" data-name="Ellipse 12660" cx="1" cy="1" r="1" transform="translate(14.562 18.697)"/>
          <path id="Path_1049871" data-name="Path 1049871" d="M220.826,215.946a4.308,4.308,0,0,1-3.874-2.394l-.108-.216,1.829-.915.108.216a2.286,2.286,0,0,0,4.09,0l.108-.216,1.829.915-.108.216A4.307,4.307,0,0,1,220.826,215.946Z" transform="translate(-201.399 -185.272)"/>
          <path id="Path_1049872" data-name="Path 1049872" d="M222.432,151.88l-1.446-1.446,1.367-1.367a7.944,7.944,0,0,1-1.667-4.891V144h2.045v.175a5.92,5.92,0,0,0,1.745,4.214l.723.723Z" transform="translate(-202.283 -125.596)"/>
          <path id="Path_1049873" data-name="Path 1049873" d="M2.273,39.865A10.257,10.257,0,0,1,8.082,36.3l6.232-1.335v-.51a9.978,9.978,0,0,1-6.042-7.865H7.157a5.108,5.108,0,0,1-4.136-8.112,13.071,13.071,0,0,1-.976-4.935v-.115A13.6,13.6,0,0,1,7.455,2.588L8.766,1.6A8.075,8.075,0,0,1,13.581,0h.05a8.27,8.27,0,0,1,3.68.866l2.116,1.058,1.223-.611A12.436,12.436,0,0,1,35.922,4.667l1.235,1.544L35.384,7.983A8.368,8.368,0,0,1,38.854,14.8v2.194l-2.045-1.022v5.5A5.118,5.118,0,0,1,31.7,26.584H30.581a9.979,9.979,0,0,1-6.042,7.865v.566L37.225,38.64,40.842,29.6l-1.789-6.26a5.19,5.19,0,0,1,.937-4.667l2.762-3.453a2.37,2.37,0,0,1,2.236-.872V12.27a2.047,2.047,0,0,1,2.045-2.045h2.045a2.047,2.047,0,0,1,2.045,2.045V24.715a7.946,7.946,0,0,1-2.089,5.393l-1.718,15.46a5.127,5.127,0,0,1-3.464,4.285l-2.953.984v10.51a2.047,2.047,0,0,1-2.045,2.045H7.157A7.165,7.165,0,0,1,0,56.236V46.293a10.256,10.256,0,0,1,2.273-6.428Zm11.17-2.627L15.5,40.316l2.2-2.2-2.5-1.25Zm-6.286-12.7H8.18v-.6L5.412,21.172l1.446-1.446L8.18,21.048V18.4H7.157a3.067,3.067,0,0,0,0,6.135ZM33.284,9.094,32.015,8.46l2.4-2.4-.092-.114a10.391,10.391,0,0,0-12.761-2.8L19.427,4.211,16.4,2.7a6.129,6.129,0,0,0-2.766-.65h-.05a6.017,6.017,0,0,0-3.587,1.2l-1.312.984a11.551,11.551,0,0,0-4.592,9.2v.115a11,11,0,0,0,.569,3.476,5.081,5.081,0,0,1,2.5-.654H8.18V13.117a7.952,7.952,0,0,1,2.345-5.66L11.97,8.9a5.92,5.92,0,0,0-1.745,4.214v1.11a10.315,10.315,0,0,1,5.306-2.834l1.514-.3,1.005,3.016a8.494,8.494,0,0,0,4.617-3.426l.977-1.466.788,1.576a12.782,12.782,0,0,0,4.2,4.8V13.117A5.92,5.92,0,0,0,26.884,8.9L28.33,7.457a7.952,7.952,0,0,1,2.344,5.66v3.243H31.7a5.085,5.085,0,0,1,3.067,1.025V12.66l1.939.97A6.337,6.337,0,0,0,33.284,9.094Zm1.48,12.378A3.071,3.071,0,0,0,31.7,18.4H30.674v2.644L32,19.726l1.446,1.446L30.674,23.94v.6H31.7a3.071,3.071,0,0,0,3.067-3.067ZM28.629,25.23V18a14.868,14.868,0,0,1-5.246-4.922,10.535,10.535,0,0,1-5.24,3.126l-1.432.358-1.035-3.106a8.264,8.264,0,0,0-5.451,4.184V25.23a7.94,7.94,0,0,0,5.436,7.542l.7.233v2.15l3.067,1.534,3.067-1.534V33l.7-.233A7.939,7.939,0,0,0,28.629,25.23ZM23.618,36.879l-2.465,1.233,2.2,2.2,1.967-2.95Zm23.3-6.2h-4.3L41.8,32.719h4.891Zm.12-18.4v8.356a3.06,3.06,0,0,1,2.045,0V12.27Zm2.045,12.445v-1.2a1.022,1.022,0,1,0-2.045,0v1.022H44.989V16.718a.359.359,0,0,0-.639-.224l-2.762,3.453a3.144,3.144,0,0,0-.568,2.828l1.673,5.855h4.918A5.914,5.914,0,0,0,49.079,24.715ZM18.4,55.213v6.135h2.045V55.213Zm2.045-2.045h.6l1.322-1.322a2.469,2.469,0,0,1,4.178,1.322h1.059a3.053,3.053,0,0,1,1.022.176V48.32a2.66,2.66,0,0,0-2.286-1.286H20.449Zm10.225,7.157a3.053,3.053,0,0,1-.176,1.022h8.356V47.034H32.96a2.66,2.66,0,0,0-2.286,1.286Zm-2.045,0v-4.09a1.024,1.024,0,0,0-1.022-1.022H24.539V53.592a.423.423,0,0,0-.723-.3l-1.322,1.322v6.734h5.112A1.024,1.024,0,0,0,28.629,60.326ZM2.045,56.236a5.118,5.118,0,0,0,5.112,5.112h9.2V55.213H9.626L7.88,56.959,6.434,55.513,8.18,53.767V44.989h2.045v8.18H18.4V47.034a2.047,2.047,0,0,1,2.045-2.045h5.893a4.7,4.7,0,0,1,3.309,1.352,4.7,4.7,0,0,1,3.309-1.352h5.893A2.047,2.047,0,0,1,40.9,47.034v1.649l2.307-.769a3.076,3.076,0,0,0,2.079-2.571l1.175-10.578H40.978L39.031,39.63,40.6,41.2l-1.446,1.446L37.3,40.787l-9.907-2.83-3.713,5.57-4.249-4.249-4.249,4.249L11.293,37.7l-2.782.6a8.222,8.222,0,0,0-6.466,8Z" transform="translate(0 0)"/>
        </g>
      </g>
    </g>
  </g>
</svg>
