<svg xmlns="http://www.w3.org/2000/svg" xmlns:xlink="http://www.w3.org/1999/xlink" width="113" height="113" viewBox="0 0 113 113">
  <defs>
    <filter id="Path_982547" x="0" y="0" width="113" height="113" filterUnits="userSpaceOnUse">
      <feOffset dy="3" input="SourceAlpha"/>
      <feGaussianBlur stdDeviation="3" result="blur"/>
      <feFlood flood-opacity="0.161"/>
      <feComposite operator="in" in2="blur"/>
      <feComposite in="SourceGraphic"/>
    </filter>
  </defs>
  <g id="Group_1210320" data-name="Group 1210320" transform="translate(-1561.5 -9455.849)">
    <g id="Group_1210238" data-name="Group 1210238">
      <g id="Group_1209805" data-name="Group 1209805" transform="translate(748.5 5622.869)">
        <g id="Group_1209739" data-name="Group 1209739" transform="translate(822 3838.98)">
          <g id="Group_1209277" data-name="Group 1209277" transform="translate(0 0)">
            <g id="Group_1208028" data-name="Group 1208028">
              <g id="Group_1177675" data-name="Group 1177675">
                <g id="Group_1176928" data-name="Group 1176928">
                  <g id="Group_1172322" data-name="Group 1172322">
                    <g id="Group_1164700" data-name="Group 1164700">
                      <g id="Group_1160931" data-name="Group 1160931">
                        <g id="Group_1160749" data-name="Group 1160749">
                          <g id="Group_1158891" data-name="Group 1158891">
                            <g id="Group_1157406" data-name="Group 1157406">
                              <g id="Group_1155793" data-name="Group 1155793">
                                <g id="Group_1154704" data-name="Group 1154704">
                                  <g id="Group_1150790" data-name="Group 1150790">
                                    <g id="Group_1154214" data-name="Group 1154214">
                                      <g id="Group_1152583" data-name="Group 1152583">
                                        <g id="Group_1146973" data-name="Group 1146973">
                                          <g id="Group_1146954" data-name="Group 1146954">
                                            <g transform="matrix(1, 0, 0, 1, -9, -6)" filter="url(#Path_982547)">
                                              <g id="Path_982547-2" data-name="Path 982547" transform="translate(9 6)" fill="#fdf4ce">
                                                <path d="M 47.5000114440918 93.49987030029297 C 41.28938293457031 93.49987030029297 35.26534652709961 92.28384399414062 29.5951976776123 89.88558959960938 C 24.11773109436035 87.56881713867188 19.19814491271973 84.25183868408203 14.97310447692871 80.02680206298828 C 10.74805164337158 75.80176544189453 7.43107795715332 70.88218688964844 5.114304542541504 65.40472412109375 C 2.716038227081299 59.73458862304688 1.500011444091797 53.71054840087891 1.500011444091797 47.49993515014648 C 1.500011444091797 41.28932189941406 2.716038227081299 35.26528167724609 5.114304542541504 29.59514808654785 C 7.43107795715332 24.1176815032959 10.74805164337158 19.1981086730957 14.97310447692871 14.97306823730469 C 19.19814491271973 10.74802875518799 24.11773109436035 7.431055068969727 29.5951976776123 5.11428165435791 C 35.26534652709961 2.716028451919556 41.28938293457031 1.500001788139343 47.5000114440918 1.500001788139343 C 53.71063995361328 1.500001788139343 59.73467636108398 2.716028451919556 65.40482330322266 5.11428165435791 C 70.88229370117188 7.431055068969727 75.8018798828125 10.74802875518799 80.02691650390625 14.97306823730469 C 84.25196838378906 19.1981086730957 87.56894683837891 24.1176815032959 89.88571929931641 29.59514808654785 C 92.28398132324219 35.26528167724609 93.50001525878906 41.28932189941406 93.50001525878906 47.49993515014648 C 93.50001525878906 53.71054840087891 92.28398132324219 59.73458862304688 89.88571929931641 65.40472412109375 C 87.56894683837891 70.88218688964844 84.25196838378906 75.80176544189453 80.02691650390625 80.02680206298828 C 75.8018798828125 84.25183868408203 70.88229370117188 87.56881713867188 65.40482330322266 89.88558959960938 C 59.73467636108398 92.28384399414062 53.71063995361328 93.49987030029297 47.5000114440918 93.49987030029297 Z" stroke="none"/>
                                                <path d="M 47.5000114440918 3 C 41.49122619628906 3 35.66378021240234 4.1761474609375 30.17951965332031 6.495796203613281 C 24.880859375 8.7369384765625 20.12153625488281 11.94596862792969 16.03376770019531 16.03373718261719 C 11.94598388671875 20.12149047851562 8.736968994140625 24.88081359863281 6.495811462402344 30.17947387695312 C 4.176162719726562 35.66371917724609 3.000007629394531 41.49116516113281 3.000007629394531 47.49993515014648 C 3.000007629394531 53.50870513916016 4.176162719726562 59.33615112304688 6.495811462402344 64.82039642333984 C 8.736968994140625 70.11905670166016 11.94598388671875 74.87837982177734 16.03376770019531 78.96613311767578 C 20.12153625488281 83.05390167236328 24.880859375 86.26293182373047 30.17951965332031 88.50407409667969 C 35.66378021240234 90.82372283935547 41.49122619628906 91.99987030029297 47.5000114440918 91.99987030029297 C 53.50879669189453 91.99987030029297 59.33624267578125 90.82372283935547 64.82050323486328 88.50407409667969 C 70.11916351318359 86.26293182373047 74.87848663330078 83.05390167236328 78.96625518798828 78.96613311767578 C 83.05403900146484 74.87837982177734 86.2630615234375 70.11905670166016 88.50421142578125 64.82039642333984 C 90.82386016845703 59.33615112304688 92.00001525878906 53.50870513916016 92.00001525878906 47.49993515014648 C 92.00001525878906 41.49116516113281 90.82386016845703 35.66371917724609 88.50421142578125 30.17947387695312 C 86.2630615234375 24.88081359863281 83.05403900146484 20.12149047851562 78.96625518798828 16.03373718261719 C 74.87848663330078 11.94596862792969 70.11916351318359 8.7369384765625 64.82050323486328 6.495796203613281 C 59.33624267578125 4.1761474609375 53.50879669189453 3 47.5000114440918 3 M 47.5000114440918 0 C 73.73353576660156 0 95.00001525878906 21.26644134521484 95.00001525878906 47.49993515014648 C 95.00001525878906 73.73342895507812 73.73353576660156 94.99987030029297 47.5000114440918 94.99987030029297 C 21.26648712158203 94.99987030029297 7.62939453125e-06 73.73342895507812 7.62939453125e-06 47.49993515014648 C 7.62939453125e-06 21.26644134521484 21.26648712158203 0 47.5000114440918 0 Z" stroke="none" fill="#f6c810"/>
                                              </g>
                                            </g>
                                          </g>
                                        </g>
                                      </g>
                                    </g>
                                  </g>
                                </g>
                              </g>
                            </g>
                          </g>
                        </g>
                      </g>
                    </g>
                  </g>
                </g>
              </g>
            </g>
          </g>
        </g>
      </g>
      <g id="Layer_36" transform="translate(1583.209 9473.558)">
        <path id="Path_1049956" data-name="Path 1049956" d="M60.2,16.384V52.558a2.134,2.134,0,0,1-2.128,2.128H9.128A2.134,2.134,0,0,1,7,52.558V16.384A6.4,6.4,0,0,1,13.384,10h40.43A6.4,6.4,0,0,1,60.2,16.384Z" transform="translate(0.192 0.384)" fill="#698cdd"/>
        <path id="Path_1049957" data-name="Path 1049957" d="M53.43,18.128V52.174A2.134,2.134,0,0,1,51.3,54.3H15.128A2.134,2.134,0,0,1,13,52.174V18.128A2.134,2.134,0,0,1,15.128,16H51.3A2.134,2.134,0,0,1,53.43,18.128Z" transform="translate(0.576 0.767)" fill="#fff"/>
        <path id="Path_1049958" data-name="Path 1049958" d="M53.512,10.256v9.576H45V10.256a4.256,4.256,0,1,1,8.512,0Z" transform="translate(2.622 0.128)" fill="#fff"/>
        <path id="Path_1049959" data-name="Path 1049959" d="M36.023,24.128v8.512A2.134,2.134,0,0,1,33.9,34.767H21.128A2.134,2.134,0,0,1,19,32.639V24.128A2.134,2.134,0,0,1,21.128,22H33.9A2.134,2.134,0,0,1,36.023,24.128Z" transform="translate(0.959 1.151)" fill="#e7d151"/>
        <path id="Path_1049960" data-name="Path 1049960" d="M61.407,27.7A11.7,11.7,0,1,1,49.7,16,11.67,11.67,0,0,1,61.407,27.7Z" transform="translate(2.174 0.767)" fill="#f95a5a"/>
        <path id="Path_1049961" data-name="Path 1049961" d="M63.581,50.128v4.256A6.4,6.4,0,0,1,57.2,60.767H10.384A6.4,6.4,0,0,1,4,54.384V50.128A2.134,2.134,0,0,1,6.128,48H61.453A2.134,2.134,0,0,1,63.581,50.128Z" transform="translate(0 2.814)" fill="#698cdd"/>
        <path id="Path_1049962" data-name="Path 1049962" d="M61.453,50.814H60.389V42.3H56.133v8.512H54.006V42.3H49.75v8.512H17.831V21.023H40.174V16.767H15.7A2.134,2.134,0,0,0,13.576,18.9V50.814H11.448V16.767a2.134,2.134,0,0,1,2.128-2.128H43.366V10.384H13.576a6.4,6.4,0,0,0-6.384,6.384V50.814H6.128A2.134,2.134,0,0,0,4,52.942V57.2a6.4,6.4,0,0,0,6.384,6.384H57.2A6.4,6.4,0,0,0,63.581,57.2V52.942A2.134,2.134,0,0,0,61.453,50.814ZM59.325,57.2A2.134,2.134,0,0,1,57.2,59.325H10.384A2.134,2.134,0,0,1,8.256,57.2V55.069H59.325ZM40.174,28.471a11.7,11.7,0,1,0,18.087-9.788v-8.3a6.384,6.384,0,0,0-12.767,0v8.3A11.678,11.678,0,0,0,40.174,28.471ZM49.75,10.384a2.128,2.128,0,1,1,4.256,0v6.6a10.746,10.746,0,0,0-4.256,0Zm2.128,10.639a7.448,7.448,0,1,1-7.448,7.448A7.4,7.4,0,0,1,51.878,21.023Zm2.128,10.639H49.75V25.279h4.256ZM34.854,35.918a2.134,2.134,0,0,0,2.128-2.128V25.279a2.134,2.134,0,0,0-2.128-2.128H22.087a2.134,2.134,0,0,0-2.128,2.128v8.512a2.134,2.134,0,0,0,2.128,2.128ZM24.215,27.407h8.512v4.256H24.215ZM19.959,38.046H41.238V42.3H19.959Zm0,6.384H47.622v4.256H19.959Z" transform="translate(0 0)"/>
      </g>
    </g>
  </g>
</svg>
