<svg xmlns="http://www.w3.org/2000/svg" xmlns:xlink="http://www.w3.org/1999/xlink" width="113" height="113" viewBox="0 0 113 113">
  <defs>
    <filter id="Path_982547" x="0" y="0" width="113" height="113" filterUnits="userSpaceOnUse">
      <feOffset dy="3" input="SourceAlpha"/>
      <feGaussianBlur stdDeviation="3" result="blur"/>
      <feFlood flood-opacity="0.161"/>
      <feComposite operator="in" in2="blur"/>
      <feComposite in="SourceGraphic"/>
    </filter>
  </defs>
  <g id="Group_1210319" data-name="Group 1210319" transform="translate(-1202.5 -9455.849)">
    <g id="Group_1210237" data-name="Group 1210237">
      <g id="Group_1209804" data-name="Group 1209804" transform="translate(389.5 5622.869)">
        <g id="Group_1209739" data-name="Group 1209739" transform="translate(822 3838.98)">
          <g id="Group_1209277" data-name="Group 1209277" transform="translate(0 0)">
            <g id="Group_1208028" data-name="Group 1208028">
              <g id="Group_1177675" data-name="Group 1177675">
                <g id="Group_1176928" data-name="Group 1176928">
                  <g id="Group_1172322" data-name="Group 1172322">
                    <g id="Group_1164700" data-name="Group 1164700">
                      <g id="Group_1160931" data-name="Group 1160931">
                        <g id="Group_1160749" data-name="Group 1160749">
                          <g id="Group_1158891" data-name="Group 1158891">
                            <g id="Group_1157406" data-name="Group 1157406">
                              <g id="Group_1155793" data-name="Group 1155793">
                                <g id="Group_1154704" data-name="Group 1154704">
                                  <g id="Group_1150790" data-name="Group 1150790">
                                    <g id="Group_1154214" data-name="Group 1154214">
                                      <g id="Group_1152583" data-name="Group 1152583">
                                        <g id="Group_1146973" data-name="Group 1146973">
                                          <g id="Group_1146954" data-name="Group 1146954">
                                            <g transform="matrix(1, 0, 0, 1, -9, -6)" filter="url(#Path_982547)">
                                              <g id="Path_982547-2" data-name="Path 982547" transform="translate(9 6)" fill="#fdf4ce">
                                                <path d="M 47.5000114440918 93.49987030029297 C 41.28938293457031 93.49987030029297 35.26534652709961 92.28384399414062 29.5951976776123 89.88558959960938 C 24.11773109436035 87.56881713867188 19.19814491271973 84.25183868408203 14.97310447692871 80.02680206298828 C 10.74805164337158 75.80176544189453 7.43107795715332 70.88218688964844 5.114304542541504 65.40472412109375 C 2.716038227081299 59.73458862304688 1.500011444091797 53.71054840087891 1.500011444091797 47.49993515014648 C 1.500011444091797 41.28932189941406 2.716038227081299 35.26528167724609 5.114304542541504 29.59514808654785 C 7.43107795715332 24.1176815032959 10.74805164337158 19.1981086730957 14.97310447692871 14.97306823730469 C 19.19814491271973 10.74802875518799 24.11773109436035 7.431055068969727 29.5951976776123 5.11428165435791 C 35.26534652709961 2.716028451919556 41.28938293457031 1.500001788139343 47.5000114440918 1.500001788139343 C 53.71063995361328 1.500001788139343 59.73467636108398 2.716028451919556 65.40482330322266 5.11428165435791 C 70.88229370117188 7.431055068969727 75.8018798828125 10.74802875518799 80.02691650390625 14.97306823730469 C 84.25196838378906 19.1981086730957 87.56894683837891 24.1176815032959 89.88571929931641 29.59514808654785 C 92.28398132324219 35.26528167724609 93.50001525878906 41.28932189941406 93.50001525878906 47.49993515014648 C 93.50001525878906 53.71054840087891 92.28398132324219 59.73458862304688 89.88571929931641 65.40472412109375 C 87.56894683837891 70.88218688964844 84.25196838378906 75.80176544189453 80.02691650390625 80.02680206298828 C 75.8018798828125 84.25183868408203 70.88229370117188 87.56881713867188 65.40482330322266 89.88558959960938 C 59.73467636108398 92.28384399414062 53.71063995361328 93.49987030029297 47.5000114440918 93.49987030029297 Z" stroke="none"/>
                                                <path d="M 47.5000114440918 3 C 41.49122619628906 3 35.66378021240234 4.1761474609375 30.17951965332031 6.495796203613281 C 24.880859375 8.7369384765625 20.12153625488281 11.94596862792969 16.03376770019531 16.03373718261719 C 11.94598388671875 20.12149047851562 8.736968994140625 24.88081359863281 6.495811462402344 30.17947387695312 C 4.176162719726562 35.66371917724609 3.000007629394531 41.49116516113281 3.000007629394531 47.49993515014648 C 3.000007629394531 53.50870513916016 4.176162719726562 59.33615112304688 6.495811462402344 64.82039642333984 C 8.736968994140625 70.11905670166016 11.94598388671875 74.87837982177734 16.03376770019531 78.96613311767578 C 20.12153625488281 83.05390167236328 24.880859375 86.26293182373047 30.17951965332031 88.50407409667969 C 35.66378021240234 90.82372283935547 41.49122619628906 91.99987030029297 47.5000114440918 91.99987030029297 C 53.50879669189453 91.99987030029297 59.33624267578125 90.82372283935547 64.82050323486328 88.50407409667969 C 70.11916351318359 86.26293182373047 74.87848663330078 83.05390167236328 78.96625518798828 78.96613311767578 C 83.05403900146484 74.87837982177734 86.2630615234375 70.11905670166016 88.50421142578125 64.82039642333984 C 90.82386016845703 59.33615112304688 92.00001525878906 53.50870513916016 92.00001525878906 47.49993515014648 C 92.00001525878906 41.49116516113281 90.82386016845703 35.66371917724609 88.50421142578125 30.17947387695312 C 86.2630615234375 24.88081359863281 83.05403900146484 20.12149047851562 78.96625518798828 16.03373718261719 C 74.87848663330078 11.94596862792969 70.11916351318359 8.7369384765625 64.82050323486328 6.495796203613281 C 59.33624267578125 4.1761474609375 53.50879669189453 3 47.5000114440918 3 M 47.5000114440918 0 C 73.73353576660156 0 95.00001525878906 21.26644134521484 95.00001525878906 47.49993515014648 C 95.00001525878906 73.73342895507812 73.73353576660156 94.99987030029297 47.5000114440918 94.99987030029297 C 21.26648712158203 94.99987030029297 7.62939453125e-06 73.73342895507812 7.62939453125e-06 47.49993515014648 C 7.62939453125e-06 21.26644134521484 21.26648712158203 0 47.5000114440918 0 Z" stroke="none" fill="#f6c810"/>
                                              </g>
                                            </g>
                                          </g>
                                        </g>
                                      </g>
                                    </g>
                                  </g>
                                </g>
                              </g>
                            </g>
                          </g>
                        </g>
                      </g>
                    </g>
                  </g>
                </g>
              </g>
            </g>
          </g>
        </g>
      </g>
      <g id="Layer_1" data-name="Layer 1" transform="translate(1225.109 9449.181)">
        <path id="Path_1049941" data-name="Path 1049941" d="M8.857,422.39H70.675V426.4a2.616,2.616,0,0,1-2.608,2.608h-56.6A2.616,2.616,0,0,1,8.857,426.4Z" transform="translate(-5.375 -343.412)" fill="#393939"/>
        <path id="Path_1049942" data-name="Path 1049942" d="M14.762,429.012h-3.3A2.616,2.616,0,0,1,8.857,426.4v-4.015h3.3V426.4a2.616,2.616,0,0,0,2.608,2.608Z" transform="translate(-5.375 -343.411)" fill="#343434"/>
        <path id="Path_1049943" data-name="Path 1049943" d="M68.939,385.478l1.735,4.616H8.857l1.735-4.616Z" transform="translate(-5.375 -311.117)" fill="#bfbfbf"/>
        <path id="Path_1049944" data-name="Path 1049944" d="M13.557,385.477l-1.408,4.617H8.857l1.735-4.616Z" transform="translate(-5.375 -311.116)" fill="#8c8c8c"/>
        <path id="Path_1049945" data-name="Path 1049945" d="M213.443,425.771h-14.2V422.46h14.2Z" transform="translate(-171.954 -343.474)" fill="#f5f5f5"/>
        <path id="Path_1049946" data-name="Path 1049946" d="M81.079,155.87H22.732V126.526a3.477,3.477,0,0,1,3.476-3.476H77.6a3.477,3.477,0,0,1,3.476,3.476Z" transform="translate(-17.514 -81.509)" fill="#6cf"/>
        <path id="Path_1049947" data-name="Path 1049947" d="M25.707,126.526V155.87H22.732V126.526a3.477,3.477,0,0,1,3.476-3.476h2.975a3.477,3.477,0,0,0-3.476,3.476Z" transform="translate(-17.514 -81.509)" fill="#4da6ff"/>
        <path id="Path_1049948" data-name="Path 1049948" d="M157.8,198.851H131.569a2.612,2.612,0,0,1-2.612-2.612V180.777a2.612,2.612,0,0,1,2.612-2.612H157.8a2.612,2.612,0,0,1,2.612,2.612V196.24a2.612,2.612,0,0,1-2.612,2.612Z" transform="translate(-110.454 -129.731)" fill="#eabd8c"/>
        <path id="Path_1049949" data-name="Path 1049949" d="M136.793,267.973a2.494,2.494,0,0,1-1.675-.643L146.1,257.167h7.942l10.989,10.05a2.5,2.5,0,0,1-1.792.756Z" transform="translate(-115.845 -198.853)" fill="#e48e66"/>
        <path id="Path_1049950" data-name="Path 1049950" d="M152.712,189.929a2.637,2.637,0,0,1-3.423,0l-13.107-11.19a2.494,2.494,0,0,1,1.593-.572h26.449a2.494,2.494,0,0,1,1.607.584Z" transform="translate(-116.776 -129.731)" fill="#d3a06c"/>
        <path id="Path_1049951" data-name="Path 1049951" d="M254.876,38.017l10.845,18.244a2.789,2.789,0,0,1-2.4,4.215H241.634a2.789,2.789,0,0,1-2.4-4.215l10.845-18.244a2.789,2.789,0,0,1,4.8,0Z" transform="translate(-206.598 -5.916)" fill="#ffdf40"/>
        <path id="Path_1049952" data-name="Path 1049952" d="M252.478,60.479H241.634a2.789,2.789,0,0,1-2.4-4.215L250.081,38.02a2.764,2.764,0,0,1,2.4-1.364Z" transform="translate(-206.598 -5.92)" fill="#ffbe40"/>
        <path id="Path_1049953" data-name="Path 1049953" d="M336.214,88.007A1.317,1.317,0,1,1,334.9,86.69a1.317,1.317,0,0,1,1.317,1.317Zm.538-14.022a1.854,1.854,0,1,0-3.708,0c0,.065.537,9.132.537,9.132a1.317,1.317,0,1,0,2.634,0s.536-9.067.536-9.132Z" transform="translate(-289.018 -36.958)" fill="#ff5959"/>
        <path id="Path_1049954" data-name="Path 1049954" d="M333.576,83.116s-.537-9.067-.537-9.132a1.854,1.854,0,0,1,1.854-1.854v12.3A1.317,1.317,0,0,1,333.576,83.116Zm1.317,3.573a1.317,1.317,0,1,0,0,2.634Z" transform="translate(-289.013 -36.957)" fill="#e63a57"/>
        <path id="Path_1049955" data-name="Path 1049955" d="M66.017,78.679,64.44,74.22v-30.4a3.153,3.153,0,0,0-3.149-3.149H54.375L49.03,31.682a3.665,3.665,0,0,0-6.3,0l-5.345,8.992H7.491a3.153,3.153,0,0,0-3.149,3.149v30.4L2.765,78.679a.871.871,0,0,0-.051.292v4a3.479,3.479,0,0,0,3.475,3.475h56.4a3.479,3.479,0,0,0,3.475-3.475v-4A.871.871,0,0,0,66.017,78.679ZM28.279,79.846H40.5v1.59H28.279ZM4.828,78.1l1.008-2.85H62.946l1.008,2.85ZM44.235,32.577a1.914,1.914,0,0,1,3.291,0L58.37,50.822a1.913,1.913,0,0,1-1.645,2.892H35.035a1.913,1.913,0,0,1-1.645-2.892ZM31.85,53.612a3.624,3.624,0,0,0,3.186,1.853h5.3l-4.807,4.1a1.755,1.755,0,0,1-2.287,0L21.271,49.339H32.234l-.349.588a3.624,3.624,0,0,0-.035,3.685ZM19.538,66.538V51.075a1.723,1.723,0,0,1,.178-.761l9.409,8.033-9.484,8.774a1.724,1.724,0,0,1-.1-.584Zm10.928-7.046,1.638,1.4a3.5,3.5,0,0,0,4.559,0l1.65-1.406,9.563,8.746a1.734,1.734,0,0,1-.369.04H21.274A1.734,1.734,0,0,1,21,68.251Zm18.778,7.046a1.726,1.726,0,0,1-.075.5l-9.513-8.7,3.378-2.879h6.209ZM6.093,43.823a1.4,1.4,0,0,1,1.4-1.4H36.344l-3.068,5.163h-12a3.491,3.491,0,0,0-3.487,3.487V66.538a3.491,3.491,0,0,0,3.487,3.487H47.508a3.491,3.491,0,0,0,3.487-3.487V55.465h5.73a3.664,3.664,0,0,0,3.15-5.538l-4.459-7.5h5.875a1.4,1.4,0,0,1,1.4,1.4V73.495H6.093ZM64.317,82.971a1.726,1.726,0,0,1-1.724,1.724H6.189a1.726,1.726,0,0,1-1.724-1.724V79.846H26.528v2.466a.875.875,0,0,0,.875.875H41.378a.875.875,0,0,0,.875-.875V79.846H64.317ZM45.88,48.886a2.193,2.193,0,1,0,2.193,2.192,2.193,2.193,0,0,0-2.193-2.192Zm0,2.634a.442.442,0,1,1,.442-.442.442.442,0,0,1-.442.442Zm0-3.139a2.2,2.2,0,0,0,2.192-2.164c.538-9.07.538-9.127.538-9.161a2.73,2.73,0,1,0-5.459,0c0,.034,0,.091.538,9.161a2.2,2.2,0,0,0,2.191,2.163Zm0-12.3a.98.98,0,0,1,.979.961c-.021.4-.357,6.091-.535,9.1,0,.017,0,.035,0,.052a.442.442,0,1,1-.883,0q0-.026,0-.052c-.178-3.007-.514-8.7-.535-9.1a.98.98,0,0,1,.979-.962Z"/>
      </g>
    </g>
  </g>
</svg>
