<svg xmlns="http://www.w3.org/2000/svg" xmlns:xlink="http://www.w3.org/1999/xlink" width="113" height="113" viewBox="0 0 113 113">
  <defs>
    <filter id="Path_982547" x="0" y="0" width="113" height="113" filterUnits="userSpaceOnUse">
      <feOffset dy="3" input="SourceAlpha"/>
      <feGaussianBlur stdDeviation="3" result="blur"/>
      <feFlood flood-opacity="0.161"/>
      <feComposite operator="in" in2="blur"/>
      <feComposite in="SourceGraphic"/>
    </filter>
  </defs>
  <g id="Group_1210321" data-name="Group 1210321" transform="translate(-1202.5 -9900.849)">
    <g id="Group_1210240" data-name="Group 1210240">
      <g id="Group_1209806" data-name="Group 1209806" transform="translate(389.5 6067.869)">
        <g id="Group_1209739" data-name="Group 1209739" transform="translate(822 3838.98)">
          <g id="Group_1209277" data-name="Group 1209277" transform="translate(0 0)">
            <g id="Group_1208028" data-name="Group 1208028">
              <g id="Group_1177675" data-name="Group 1177675">
                <g id="Group_1176928" data-name="Group 1176928">
                  <g id="Group_1172322" data-name="Group 1172322">
                    <g id="Group_1164700" data-name="Group 1164700">
                      <g id="Group_1160931" data-name="Group 1160931">
                        <g id="Group_1160749" data-name="Group 1160749">
                          <g id="Group_1158891" data-name="Group 1158891">
                            <g id="Group_1157406" data-name="Group 1157406">
                              <g id="Group_1155793" data-name="Group 1155793">
                                <g id="Group_1154704" data-name="Group 1154704">
                                  <g id="Group_1150790" data-name="Group 1150790">
                                    <g id="Group_1154214" data-name="Group 1154214">
                                      <g id="Group_1152583" data-name="Group 1152583">
                                        <g id="Group_1146973" data-name="Group 1146973">
                                          <g id="Group_1146954" data-name="Group 1146954">
                                            <g transform="matrix(1, 0, 0, 1, -9, -6)" filter="url(#Path_982547)">
                                              <g id="Path_982547-2" data-name="Path 982547" transform="translate(9 6)" fill="#fdf4ce">
                                                <path d="M 47.5000114440918 93.49987030029297 C 41.28938293457031 93.49987030029297 35.26534652709961 92.28384399414062 29.5951976776123 89.88558959960938 C 24.11773109436035 87.56881713867188 19.19814491271973 84.25183868408203 14.97310447692871 80.02680206298828 C 10.74805164337158 75.80176544189453 7.43107795715332 70.88218688964844 5.114304542541504 65.40472412109375 C 2.716038227081299 59.73458862304688 1.500011444091797 53.71054840087891 1.500011444091797 47.49993515014648 C 1.500011444091797 41.28932189941406 2.716038227081299 35.26528167724609 5.114304542541504 29.59514808654785 C 7.43107795715332 24.1176815032959 10.74805164337158 19.1981086730957 14.97310447692871 14.97306823730469 C 19.19814491271973 10.74802875518799 24.11773109436035 7.431055068969727 29.5951976776123 5.11428165435791 C 35.26534652709961 2.716028451919556 41.28938293457031 1.500001788139343 47.5000114440918 1.500001788139343 C 53.71063995361328 1.500001788139343 59.73467636108398 2.716028451919556 65.40482330322266 5.11428165435791 C 70.88229370117188 7.431055068969727 75.8018798828125 10.74802875518799 80.02691650390625 14.97306823730469 C 84.25196838378906 19.1981086730957 87.56894683837891 24.1176815032959 89.88571929931641 29.59514808654785 C 92.28398132324219 35.26528167724609 93.50001525878906 41.28932189941406 93.50001525878906 47.49993515014648 C 93.50001525878906 53.71054840087891 92.28398132324219 59.73458862304688 89.88571929931641 65.40472412109375 C 87.56894683837891 70.88218688964844 84.25196838378906 75.80176544189453 80.02691650390625 80.02680206298828 C 75.8018798828125 84.25183868408203 70.88229370117188 87.56881713867188 65.40482330322266 89.88558959960938 C 59.73467636108398 92.28384399414062 53.71063995361328 93.49987030029297 47.5000114440918 93.49987030029297 Z" stroke="none"/>
                                                <path d="M 47.5000114440918 3 C 41.49122619628906 3 35.66378021240234 4.1761474609375 30.17951965332031 6.495796203613281 C 24.880859375 8.7369384765625 20.12153625488281 11.94596862792969 16.03376770019531 16.03373718261719 C 11.94598388671875 20.12149047851562 8.736968994140625 24.88081359863281 6.495811462402344 30.17947387695312 C 4.176162719726562 35.66371917724609 3.000007629394531 41.49116516113281 3.000007629394531 47.49993515014648 C 3.000007629394531 53.50870513916016 4.176162719726562 59.33615112304688 6.495811462402344 64.82039642333984 C 8.736968994140625 70.11905670166016 11.94598388671875 74.87837982177734 16.03376770019531 78.96613311767578 C 20.12153625488281 83.05390167236328 24.880859375 86.26293182373047 30.17951965332031 88.50407409667969 C 35.66378021240234 90.82372283935547 41.49122619628906 91.99987030029297 47.5000114440918 91.99987030029297 C 53.50879669189453 91.99987030029297 59.33624267578125 90.82372283935547 64.82050323486328 88.50407409667969 C 70.11916351318359 86.26293182373047 74.87848663330078 83.05390167236328 78.96625518798828 78.96613311767578 C 83.05403900146484 74.87837982177734 86.2630615234375 70.11905670166016 88.50421142578125 64.82039642333984 C 90.82386016845703 59.33615112304688 92.00001525878906 53.50870513916016 92.00001525878906 47.49993515014648 C 92.00001525878906 41.49116516113281 90.82386016845703 35.66371917724609 88.50421142578125 30.17947387695312 C 86.2630615234375 24.88081359863281 83.05403900146484 20.12149047851562 78.96625518798828 16.03373718261719 C 74.87848663330078 11.94596862792969 70.11916351318359 8.7369384765625 64.82050323486328 6.495796203613281 C 59.33624267578125 4.1761474609375 53.50879669189453 3 47.5000114440918 3 M 47.5000114440918 0 C 73.73353576660156 0 95.00001525878906 21.26644134521484 95.00001525878906 47.49993515014648 C 95.00001525878906 73.73342895507812 73.73353576660156 94.99987030029297 47.5000114440918 94.99987030029297 C 21.26648712158203 94.99987030029297 7.62939453125e-06 73.73342895507812 7.62939453125e-06 47.49993515014648 C 7.62939453125e-06 21.26644134521484 21.26648712158203 0 47.5000114440918 0 Z" stroke="none" fill="#f6c810"/>
                                              </g>
                                            </g>
                                          </g>
                                        </g>
                                      </g>
                                    </g>
                                  </g>
                                </g>
                              </g>
                            </g>
                          </g>
                        </g>
                      </g>
                    </g>
                  </g>
                </g>
              </g>
            </g>
          </g>
        </g>
      </g>
      <g id="settings_15163011" transform="translate(1222.505 9909.574)">
        <path id="Path_1049963" data-name="Path 1049963" d="M12,92.435H62.81V131.9H12Z" transform="translate(-5.256 -65.938)" fill="#c5cfe0" fill-rule="evenodd"/>
        <path id="Path_1049964" data-name="Path 1049964" d="M124.627,168.143a11.41,11.41,0,0,0,3.869-1.607l1.518.684a.834.834,0,0,0,.893-.223l1.518-1.518a.8.8,0,0,0,.209-.878l-.67-1.518a11.867,11.867,0,0,0,1.592-3.884l1.563-.6a.819.819,0,0,0,.476-.774v-2.143a.8.8,0,0,0-.476-.774l-1.563-.61a11.655,11.655,0,0,0-1.592-3.869l.67-1.518a.8.8,0,0,0-.209-.878l-1.518-1.533a.827.827,0,0,0-.893-.208l-1.518.684a11.409,11.409,0,0,0-3.869-1.607l-.61-1.563a.791.791,0,0,0-.774-.476H121.1a.821.821,0,0,0-.774.476l-.6,1.563a11.411,11.411,0,0,0-3.87,1.607l-1.532-.684a.8.8,0,0,0-.878.208l-1.518,1.533a.779.779,0,0,0-.208.878l.669,1.518a11.421,11.421,0,0,0-1.607,3.869l-1.548.61a.784.784,0,0,0-.476.774v2.143a.8.8,0,0,0,.476.774l1.548.6a11.623,11.623,0,0,0,1.607,3.884l-.669,1.518a.779.779,0,0,0,.208.878L113.451,167a.811.811,0,0,0,.878.223l1.532-.684a11.415,11.415,0,0,0,3.87,1.607l.6,1.548a.8.8,0,0,0,.774.476h2.143a.771.771,0,0,0,.774-.476Z" transform="translate(-90.021 -110.529)" fill="#f0b729" fill-rule="evenodd"/>
        <path id="Path_1049965" data-name="Path 1049965" d="M168.974,210.448a6.786,6.786,0,1,0-6.786-6.786A6.793,6.793,0,0,0,168.974,210.448Z" transform="translate(-136.823 -157.432)" fill="#aab7ce"/>
        <g id="Group_1210239" data-name="Group 1210239" transform="translate(6.748 17.925)">
          <path id="Path_1049966" data-name="Path 1049966" d="M15.367,23.288H59.461a3.366,3.366,0,0,1,3.349,3.363V33.2H12V26.651A3.379,3.379,0,0,1,15.367,23.288Z" transform="translate(-12.004 -23.288)" fill="#151a6a" fill-rule="evenodd"/>
          <path id="Path_1049967" data-name="Path 1049967" d="M364.584,283.809h3.705v-5.03a3.4,3.4,0,0,1,6.7-.818h3.765a7.107,7.107,0,0,0-14.167.819Z" transform="translate(-320.877 -240.876)" fill="#ce4f59" fill-rule="evenodd"/>
          <path id="Path_1049968" data-name="Path 1049968" d="M353.592,352.1a9.666,9.666,0,1,0-9.658-9.658A9.689,9.689,0,0,0,353.592,352.1Z" transform="translate(-302.787 -294.406)" fill="#e55863" fill-rule="evenodd"/>
          <path id="Path_1049969" data-name="Path 1049969" d="M409.226,386.657a1.793,1.793,0,1,0-1.786-1.8A1.8,1.8,0,0,0,409.226,386.657Z" transform="translate(-358.42 -338.471)" fill="#ce4f59" fill-rule="evenodd"/>
        </g>
        <path id="Path_1049970" data-name="Path 1049970" d="M45.365,43.685l-1.175-.461a12.36,12.36,0,0,0-1.4-3.363l.491-1.161a1.507,1.507,0,0,0-.357-1.726l-1.518-1.518a1.605,1.605,0,0,0-1.131-.491,1.28,1.28,0,0,0-.58.134l-1.161.506a12.2,12.2,0,0,0-3.378-1.4l-.462-1.19a1.521,1.521,0,0,0-1.458-.953H31.094a1.507,1.507,0,0,0-1.473.953l-.477,1.19a11.763,11.763,0,0,0-3.378,1.4L24.635,35.1a1.58,1.58,0,0,0-1.741.357l-1.518,1.518A1.574,1.574,0,0,0,21,38.685l.521,1.176a12.271,12.271,0,0,0-1.4,3.363l-1.206.461a1.582,1.582,0,0,0-.938,1.474V47.3a1.549,1.549,0,0,0,.952,1.474l1.191.461a12.173,12.173,0,0,0,1.4,3.378L21,53.775a1.6,1.6,0,0,0,.372,1.726l1.518,1.518a1.583,1.583,0,0,0,1.726.357l1.16-.506a12.736,12.736,0,0,0,3.363,1.384l.461,1.176a1.561,1.561,0,0,0,1.489.967h2.143a1.577,1.577,0,0,0,1.473-.952l.447-1.191a12.194,12.194,0,0,0,3.378-1.4l1.176.521a1.579,1.579,0,0,0,1.7-.357L42.925,55.5A1.565,1.565,0,0,0,43.3,53.76l-.506-1.146a12.454,12.454,0,0,0,1.4-3.378l1.146-.446a1.537,1.537,0,0,0,.982-1.488V45.158a1.534,1.534,0,0,0-.953-1.473Zm-.55,3.616a.112.112,0,0,1-.015.075l-1.532.61a.76.76,0,0,0-.462.536,10.325,10.325,0,0,1-1.5,3.616.809.809,0,0,0-.06.714l.67,1.5a.22.22,0,0,1-.045.074L40.35,55.948c-.03.03-.06.045-.045.06l-1.533-.685a.725.725,0,0,0-.715.06,10.57,10.57,0,0,1-3.616,1.488.8.8,0,0,0-.551.476l-.58,1.533a.181.181,0,0,1-.074.015H31.005l-.6-1.563a.822.822,0,0,0-.551-.461,10.815,10.815,0,0,1-3.617-1.488.758.758,0,0,0-.714-.045l-1.488.655a.232.232,0,0,1-.089-.045L22.433,54.43c-.03-.03-.045-.074-.045-.059l.669-1.518a.732.732,0,0,0-.059-.7,10.772,10.772,0,0,1-1.488-3.631.762.762,0,0,0-.462-.536l-1.533-.6c-.015,0-.03-.045-.03-.09V45.159c0-.06.015-.09,0-.075l1.563-.6a.757.757,0,0,0,.462-.551A10.821,10.821,0,0,1,23,40.322a.732.732,0,0,0,.059-.7L22.388,38.1a.254.254,0,0,1,.045-.06l1.518-1.518c.045-.045.075-.06.06-.06l1.518.67a.76.76,0,0,0,.714-.059,10.9,10.9,0,0,1,3.617-1.5.753.753,0,0,0,.551-.462l.6-1.533a.525.525,0,0,1,.089-.015h2.143c.045,0,.074.015.06,0l.6,1.547a.751.751,0,0,0,.551.462,10.9,10.9,0,0,1,3.616,1.5.762.762,0,0,0,.715.059l1.5-.67a.323.323,0,0,1,.075.06l1.518,1.518a.112.112,0,0,1,.045.045l-.67,1.533a.774.774,0,0,0,.06.7,10.324,10.324,0,0,1,1.5,3.616.787.787,0,0,0,.462.551l1.532.58a.215.215,0,0,1,.015.09V47.3ZM32.166,38.685A7.538,7.538,0,1,0,39.7,46.23,7.555,7.555,0,0,0,32.166,38.685Zm0,13.572a6.034,6.034,0,1,1,6.027-6.027A6.043,6.043,0,0,1,32.166,52.257ZM10.885,22.211a.762.762,0,0,1,.759-.759h.922a.76.76,0,0,1,.745.759.746.746,0,0,1-.745.744h-.922A.749.749,0,0,1,10.885,22.211Zm3.691,0a.763.763,0,0,1,.759-.759h.923a.75.75,0,0,1,.744.759.737.737,0,0,1-.744.744h-.923A.75.75,0,0,1,14.575,22.211Zm3.691,0a.762.762,0,0,1,.759-.759h.923a.759.759,0,0,1,.744.759.746.746,0,0,1-.744.744h-.923A.749.749,0,0,1,18.267,22.211Zm11.206,0a.763.763,0,0,1,.759-.759H52.672a.76.76,0,0,1,.745.759.746.746,0,0,1-.745.744H30.231a.75.75,0,0,1-.759-.744Zm19.554,9.465a.762.762,0,0,1,.759-.759H51.75a.759.759,0,0,1,.744.759.746.746,0,0,1-.744.744H49.785A.749.749,0,0,1,49.026,31.676Zm0,3.78a.762.762,0,0,1,.759-.759H51.75a.759.759,0,0,1,.744.759.746.746,0,0,1-.744.744H49.785A.749.749,0,0,1,49.026,35.455Zm0,3.78a.762.762,0,0,1,.759-.759H51.75a.759.759,0,0,1,.744.759.746.746,0,0,1-.744.744H49.785A.749.749,0,0,1,49.026,39.235Zm9.286,16.34V53.3a2.72,2.72,0,0,1,1.83,1.89.723.723,0,0,0,.729.566h3.75a.715.715,0,0,0,.551-.253.75.75,0,0,0,.193-.58,7.84,7.84,0,0,0-7.053-6.905V21.288A4.119,4.119,0,0,0,54.2,17.166H10.126A4.122,4.122,0,0,0,6,21.288V65.962a.749.749,0,0,0,.759.744H47.181A10.415,10.415,0,1,0,58.313,55.575Zm-3.408.312v-.059a2.666,2.666,0,0,1,1.9-2.515v2.262A9.991,9.991,0,0,0,54.9,55.888Zm8.81-1.637H61.408A4.16,4.16,0,0,0,53.4,55.828v.58a10.262,10.262,0,0,0-2.2,1.31v-1.89a6.357,6.357,0,0,1,12.515-1.577ZM10.126,18.669H54.2a2.62,2.62,0,0,1,2.6,2.619v4.45H7.507v-4.45A2.623,2.623,0,0,1,10.126,18.669ZM7.507,27.241h49.3V48.016A7.857,7.857,0,0,0,49.7,55.828v3.319A10.367,10.367,0,0,0,47.181,65.2H7.507ZM57.568,74.877a8.921,8.921,0,1,1,8.914-8.914A8.933,8.933,0,0,1,57.568,74.877Zm0-13.111a2.54,2.54,0,0,0-.759,4.97V69.4a.752.752,0,0,0,1.5,0V66.736a2.54,2.54,0,0,0-.744-4.97Zm0,3.587a1.045,1.045,0,0,1-1.056-1.027,1.049,1.049,0,1,1,2.1,0A1.042,1.042,0,0,1,57.568,65.353Z"/>
      </g>
    </g>
  </g>
</svg>
