<svg xmlns="http://www.w3.org/2000/svg" xmlns:xlink="http://www.w3.org/1999/xlink" width="113" height="113" viewBox="0 0 113 113">
  <defs>
    <filter id="Path_982547" x="0" y="0" width="113" height="113" filterUnits="userSpaceOnUse">
      <feOffset dy="3" input="SourceAlpha"/>
      <feGaussianBlur stdDeviation="3" result="blur"/>
      <feFlood flood-opacity="0.161"/>
      <feComposite operator="in" in2="blur"/>
      <feComposite in="SourceGraphic"/>
    </filter>
  </defs>
  <g id="Group_1210322" data-name="Group 1210322" transform="translate(-1560.999 -9900.849)">
    <g id="Group_1210266" data-name="Group 1210266">
      <g id="Group_1209807" data-name="Group 1209807" transform="translate(748 6067.869)">
        <g id="Group_1209739" data-name="Group 1209739" transform="translate(822 3838.98)">
          <g id="Group_1209277" data-name="Group 1209277" transform="translate(0 0)">
            <g id="Group_1208028" data-name="Group 1208028">
              <g id="Group_1177675" data-name="Group 1177675">
                <g id="Group_1176928" data-name="Group 1176928">
                  <g id="Group_1172322" data-name="Group 1172322">
                    <g id="Group_1164700" data-name="Group 1164700">
                      <g id="Group_1160931" data-name="Group 1160931">
                        <g id="Group_1160749" data-name="Group 1160749">
                          <g id="Group_1158891" data-name="Group 1158891">
                            <g id="Group_1157406" data-name="Group 1157406">
                              <g id="Group_1155793" data-name="Group 1155793">
                                <g id="Group_1154704" data-name="Group 1154704">
                                  <g id="Group_1150790" data-name="Group 1150790">
                                    <g id="Group_1154214" data-name="Group 1154214">
                                      <g id="Group_1152583" data-name="Group 1152583">
                                        <g id="Group_1146973" data-name="Group 1146973">
                                          <g id="Group_1146954" data-name="Group 1146954">
                                            <g transform="matrix(1, 0, 0, 1, -9, -6)" filter="url(#Path_982547)">
                                              <g id="Path_982547-2" data-name="Path 982547" transform="translate(9 6)" fill="#fdf4ce">
                                                <path d="M 47.5000114440918 93.49987030029297 C 41.28938293457031 93.49987030029297 35.26534652709961 92.28384399414062 29.5951976776123 89.88558959960938 C 24.11773109436035 87.56881713867188 19.19814491271973 84.25183868408203 14.97310447692871 80.02680206298828 C 10.74805164337158 75.80176544189453 7.43107795715332 70.88218688964844 5.114304542541504 65.40472412109375 C 2.716038227081299 59.73458862304688 1.500011444091797 53.71054840087891 1.500011444091797 47.49993515014648 C 1.500011444091797 41.28932189941406 2.716038227081299 35.26528167724609 5.114304542541504 29.59514808654785 C 7.43107795715332 24.1176815032959 10.74805164337158 19.1981086730957 14.97310447692871 14.97306823730469 C 19.19814491271973 10.74802875518799 24.11773109436035 7.431055068969727 29.5951976776123 5.11428165435791 C 35.26534652709961 2.716028451919556 41.28938293457031 1.500001788139343 47.5000114440918 1.500001788139343 C 53.71063995361328 1.500001788139343 59.73467636108398 2.716028451919556 65.40482330322266 5.11428165435791 C 70.88229370117188 7.431055068969727 75.8018798828125 10.74802875518799 80.02691650390625 14.97306823730469 C 84.25196838378906 19.1981086730957 87.56894683837891 24.1176815032959 89.88571929931641 29.59514808654785 C 92.28398132324219 35.26528167724609 93.50001525878906 41.28932189941406 93.50001525878906 47.49993515014648 C 93.50001525878906 53.71054840087891 92.28398132324219 59.73458862304688 89.88571929931641 65.40472412109375 C 87.56894683837891 70.88218688964844 84.25196838378906 75.80176544189453 80.02691650390625 80.02680206298828 C 75.8018798828125 84.25183868408203 70.88229370117188 87.56881713867188 65.40482330322266 89.88558959960938 C 59.73467636108398 92.28384399414062 53.71063995361328 93.49987030029297 47.5000114440918 93.49987030029297 Z" stroke="none"/>
                                                <path d="M 47.5000114440918 3 C 41.49122619628906 3 35.66378021240234 4.1761474609375 30.17951965332031 6.495796203613281 C 24.880859375 8.7369384765625 20.12153625488281 11.94596862792969 16.03376770019531 16.03373718261719 C 11.94598388671875 20.12149047851562 8.736968994140625 24.88081359863281 6.495811462402344 30.17947387695312 C 4.176162719726562 35.66371917724609 3.000007629394531 41.49116516113281 3.000007629394531 47.49993515014648 C 3.000007629394531 53.50870513916016 4.176162719726562 59.33615112304688 6.495811462402344 64.82039642333984 C 8.736968994140625 70.11905670166016 11.94598388671875 74.87837982177734 16.03376770019531 78.96613311767578 C 20.12153625488281 83.05390167236328 24.880859375 86.26293182373047 30.17951965332031 88.50407409667969 C 35.66378021240234 90.82372283935547 41.49122619628906 91.99987030029297 47.5000114440918 91.99987030029297 C 53.50879669189453 91.99987030029297 59.33624267578125 90.82372283935547 64.82050323486328 88.50407409667969 C 70.11916351318359 86.26293182373047 74.87848663330078 83.05390167236328 78.96625518798828 78.96613311767578 C 83.05403900146484 74.87837982177734 86.2630615234375 70.11905670166016 88.50421142578125 64.82039642333984 C 90.82386016845703 59.33615112304688 92.00001525878906 53.50870513916016 92.00001525878906 47.49993515014648 C 92.00001525878906 41.49116516113281 90.82386016845703 35.66371917724609 88.50421142578125 30.17947387695312 C 86.2630615234375 24.88081359863281 83.05403900146484 20.12149047851562 78.96625518798828 16.03373718261719 C 74.87848663330078 11.94596862792969 70.11916351318359 8.7369384765625 64.82050323486328 6.495796203613281 C 59.33624267578125 4.1761474609375 53.50879669189453 3 47.5000114440918 3 M 47.5000114440918 0 C 73.73353576660156 0 95.00001525878906 21.26644134521484 95.00001525878906 47.49993515014648 C 95.00001525878906 73.73342895507812 73.73353576660156 94.99987030029297 47.5000114440918 94.99987030029297 C 21.26648712158203 94.99987030029297 7.62939453125e-06 73.73342895507812 7.62939453125e-06 47.49993515014648 C 7.62939453125e-06 21.26644134521484 21.26648712158203 0 47.5000114440918 0 Z" stroke="none" fill="#f6c810"/>
                                              </g>
                                            </g>
                                          </g>
                                        </g>
                                      </g>
                                    </g>
                                  </g>
                                </g>
                              </g>
                            </g>
                          </g>
                        </g>
                      </g>
                    </g>
                  </g>
                </g>
              </g>
            </g>
          </g>
        </g>
      </g>
      <g id="coding_18823628" transform="translate(1585.634 9923.482)">
        <g id="Group_1210241" data-name="Group 1210241" transform="translate(1.751 1.751)">
          <path id="Path_1049971" data-name="Path 1049971" d="M33.578,4.458v23.7a1.957,1.957,0,0,1-1.957,1.957H4.457A1.957,1.957,0,0,1,2.5,28.153V4.458A1.957,1.957,0,0,1,4.457,2.5H31.621a1.957,1.957,0,0,1,1.957,1.957Z" transform="translate(-1.588 -1.588)" fill="#fff"/>
          <path id="Path_1049972" data-name="Path 1049972" d="M31.783,31.185H4.62a2.873,2.873,0,0,1-2.869-2.87V4.62A2.873,2.873,0,0,1,4.62,1.751H31.783a2.873,2.873,0,0,1,2.869,2.87v23.7A2.873,2.873,0,0,1,31.783,31.185ZM4.62,3.576A1.045,1.045,0,0,0,3.576,4.62v23.7A1.045,1.045,0,0,0,4.62,29.36H31.783a1.045,1.045,0,0,0,1.044-1.044V4.62a1.045,1.045,0,0,0-1.044-1.044H4.62Z" transform="translate(-1.751 -1.751)"/>
        </g>
        <g id="Group_1210242" data-name="Group 1210242" transform="translate(1.751 1.751)">
          <path id="Path_1049973" data-name="Path 1049973" d="M33.578,11.217V4.458A1.957,1.957,0,0,0,31.621,2.5H4.457A1.957,1.957,0,0,0,2.5,4.458v6.759Z" transform="translate(-1.588 -1.588)" fill="#ffd364"/>
          <path id="Path_1049974" data-name="Path 1049974" d="M33.74,12.292H2.663a.913.913,0,0,1-.913-.913V4.62A2.873,2.873,0,0,1,4.62,1.751H31.783a2.873,2.873,0,0,1,2.869,2.87v6.759a.913.913,0,0,1-.913.913ZM3.576,10.467H32.827V4.62a1.045,1.045,0,0,0-1.044-1.044H4.62A1.045,1.045,0,0,0,3.576,4.62v5.846Z" transform="translate(-1.751 -1.751)"/>
        </g>
        <g id="Group_1210243" data-name="Group 1210243" transform="translate(1.751 1.751)">
          <path id="Path_1049975" data-name="Path 1049975" d="M11.789,2.5H4.457A1.957,1.957,0,0,0,2.5,4.458v6.759h9.288V2.5Z" transform="translate(-1.588 -1.588)" fill="#ff6f5c"/>
          <path id="Path_1049976" data-name="Path 1049976" d="M11.952,12.292H2.664a.913.913,0,0,1-.913-.913V4.62A2.873,2.873,0,0,1,4.62,1.751h7.332a.913.913,0,0,1,.913.913v8.716A.913.913,0,0,1,11.952,12.292ZM3.576,10.467h7.463V3.576H4.62A1.045,1.045,0,0,0,3.576,4.62v5.846Z" transform="translate(-1.751 -1.751)"/>
        </g>
        <g id="Group_1210244" data-name="Group 1210244" transform="translate(17.289 6.109)">
          <path id="Path_1049977" data-name="Path 1049977" d="M25.415,7.158H15.434a.913.913,0,1,1,0-1.825h9.981a.913.913,0,0,1,0,1.825Z" transform="translate(-14.521 -5.333)"/>
        </g>
        <g id="Group_1210249" data-name="Group 1210249" transform="translate(29.078 32.546)">
          <g id="Group_1210245" data-name="Group 1210245" transform="translate(0 0)">
            <path id="Path_1049978" data-name="Path 1049978" d="M56.036,29.766v23.7a1.957,1.957,0,0,1-1.957,1.957H26.916a1.957,1.957,0,0,1-1.957-1.957v-23.7a1.957,1.957,0,0,1,1.957-1.957H54.079A1.957,1.957,0,0,1,56.036,29.766Z" transform="translate(-24.046 -26.897)" fill="#fff"/>
            <path id="Path_1049979" data-name="Path 1049979" d="M54.241,56.493H27.078a2.872,2.872,0,0,1-2.869-2.869v-23.7a2.872,2.872,0,0,1,2.869-2.869H54.241a2.873,2.873,0,0,1,2.87,2.869v23.7A2.873,2.873,0,0,1,54.241,56.493ZM27.078,28.885a1.045,1.045,0,0,0-1.044,1.044v23.7a1.045,1.045,0,0,0,1.044,1.044H54.241a1.045,1.045,0,0,0,1.044-1.044v-23.7a1.045,1.045,0,0,0-1.044-1.044Z" transform="translate(-24.209 -27.059)"/>
          </g>
          <g id="Group_1210246" data-name="Group 1210246" transform="translate(0)">
            <path id="Path_1049980" data-name="Path 1049980" d="M56.036,36.525V29.766a1.957,1.957,0,0,0-1.957-1.957H26.916a1.957,1.957,0,0,0-1.957,1.957v6.759Z" transform="translate(-24.046 -26.897)" fill="#9fd25a"/>
            <path id="Path_1049981" data-name="Path 1049981" d="M56.2,37.6H25.122a.913.913,0,0,1-.913-.913V29.929a2.873,2.873,0,0,1,2.869-2.87H54.241a2.873,2.873,0,0,1,2.87,2.87v6.759a.913.913,0,0,1-.913.913ZM26.034,35.775H55.286V29.929a1.046,1.046,0,0,0-1.044-1.044H27.078a1.045,1.045,0,0,0-1.044,1.044v5.846Z" transform="translate(-24.209 -27.059)"/>
          </g>
          <g id="Group_1210247" data-name="Group 1210247" transform="translate(0)">
            <path id="Path_1049982" data-name="Path 1049982" d="M34.247,27.809H26.916a1.957,1.957,0,0,0-1.957,1.957v6.759h9.288Z" transform="translate(-24.046 -26.897)" fill="#ff6f5c"/>
            <path id="Path_1049983" data-name="Path 1049983" d="M34.41,37.6H25.122a.913.913,0,0,1-.913-.913V29.929a2.873,2.873,0,0,1,2.869-2.87H34.41a.913.913,0,0,1,.913.913v8.716A.913.913,0,0,1,34.41,37.6Zm-8.376-1.825H33.5V28.884H27.078a1.045,1.045,0,0,0-1.044,1.044Z" transform="translate(-24.209 -27.059)"/>
          </g>
          <g id="Group_1210248" data-name="Group 1210248" transform="translate(15.538 4.358)">
            <path id="Path_1049984" data-name="Path 1049984" d="M47.873,32.466H37.892a.913.913,0,1,1,0-1.825h9.981a.913.913,0,1,1,0,1.825Z" transform="translate(-36.979 -30.641)"/>
          </g>
        </g>
        <g id="Group_1210252" data-name="Group 1210252" transform="translate(11.4 29.36)">
          <g id="Group_1210250" data-name="Group 1210250" transform="translate(3.469)">
            <path id="Path_1049985" data-name="Path 1049985" d="M27.653,45.735H13.444a.913.913,0,0,1-.913-.913V25.354a.913.913,0,0,1,1.825,0V43.91h13.3a.913.913,0,0,1,0,1.825Z" transform="translate(-12.532 -24.441)"/>
          </g>
          <g id="Group_1210251" data-name="Group 1210251" transform="translate(0 16.001)">
            <path id="Path_1049986" data-name="Path 1049986" d="M17.366,41.809A3.467,3.467,0,1,1,13.9,38.341,3.469,3.469,0,0,1,17.366,41.809Z" transform="translate(-9.519 -37.429)" fill="#fff"/>
            <path id="Path_1049987" data-name="Path 1049987" d="M14.061,46.351a4.38,4.38,0,1,1,4.38-4.379A4.385,4.385,0,0,1,14.061,46.351Zm0-6.934a2.554,2.554,0,1,0,2.555,2.555A2.558,2.558,0,0,0,14.061,39.417Z" transform="translate(-9.681 -37.592)"/>
          </g>
        </g>
        <g id="Group_1210255" data-name="Group 1210255" transform="translate(32.827 9.751)">
          <g id="Group_1210253" data-name="Group 1210253" transform="translate(0 3.467)">
            <path id="Path_1049988" data-name="Path 1049988" d="M42.412,32.328a.913.913,0,0,1-.913-.913V13H28.2a.913.913,0,1,1,0-1.825H42.412a.913.913,0,0,1,.913.913V31.415A.913.913,0,0,1,42.412,32.328Z" transform="translate(-27.291 -11.175)"/>
          </g>
          <g id="Group_1210254" data-name="Group 1210254" transform="translate(10.743)">
            <path id="Path_1049989" data-name="Path 1049989" d="M36.869,12.543a3.467,3.467,0,1,1,3.467,3.467A3.469,3.469,0,0,1,36.869,12.543Z" transform="translate(-35.957 -8.163)" fill="#fff"/>
            <path id="Path_1049990" data-name="Path 1049990" d="M40.5,17.086a4.38,4.38,0,1,1,4.38-4.38A4.385,4.385,0,0,1,40.5,17.086Zm0-6.935a2.555,2.555,0,1,0,2.555,2.555A2.558,2.558,0,0,0,40.5,10.151Z" transform="translate(-36.119 -8.326)"/>
          </g>
        </g>
        <g id="Group_1210260" data-name="Group 1210260" transform="translate(36.997 44.827)">
          <g id="Group_1210257" data-name="Group 1210257" transform="translate(11.807)">
            <g id="Group_1210256" data-name="Group 1210256">
              <path id="Path_1049991" data-name="Path 1049991" d="M42.409,49.905H41.333a.913.913,0,1,1,0-1.825h.922V45.126a2.5,2.5,0,0,1,.576-1.6,2.5,2.5,0,0,1-.576-1.6V38.978h-.922a.913.913,0,0,1,0-1.825h1.076a1.672,1.672,0,0,1,1.671,1.671v3.108a.686.686,0,0,0,.685.685.913.913,0,0,1,0,1.825.686.686,0,0,0-.685.685v3.108A1.672,1.672,0,0,1,42.409,49.905Z" transform="translate(-40.42 -37.153)"/>
            </g>
          </g>
          <g id="Group_1210259" data-name="Group 1210259">
            <g id="Group_1210258" data-name="Group 1210258">
              <path id="Path_1049992" data-name="Path 1049992" d="M35.061,49.905H33.985a1.672,1.672,0,0,1-1.671-1.671V45.126a.686.686,0,0,0-.684-.685.913.913,0,0,1,0-1.825.686.686,0,0,0,.684-.685V38.823a1.672,1.672,0,0,1,1.671-1.671h1.076a.913.913,0,0,1,0,1.825h-.922v2.953a2.5,2.5,0,0,1-.575,1.6,2.5,2.5,0,0,1,.575,1.6V48.08h.922a.913.913,0,1,1,0,1.825Z" transform="translate(-30.717 -37.153)"/>
            </g>
          </g>
        </g>
        <g id="Group_1210261" data-name="Group 1210261" transform="translate(42.865 50.291)">
          <path id="Path_1049993" data-name="Path 1049993" d="M39.954,43.468h-3.5a.913.913,0,0,1,0-1.825h3.5a.913.913,0,0,1,0,1.825Z" transform="translate(-35.54 -41.643)"/>
        </g>
        <g id="Group_1210265" data-name="Group 1210265" transform="translate(10.847 14.728)">
          <g id="Group_1210262" data-name="Group 1210262" transform="translate(10.693 4.624)">
            <path id="Path_1049994" data-name="Path 1049994" d="M18.927,22.05a.913.913,0,0,1-.584-1.614L19.832,19.2l-1.238-1.484A.913.913,0,0,1,20,16.544L21.82,18.73a.912.912,0,0,1-.118,1.286L19.51,21.839a.907.907,0,0,1-.583.211Z" transform="translate(-18.014 -16.216)"/>
          </g>
          <g id="Group_1210263" data-name="Group 1210263" transform="translate(0 0.631)">
            <path id="Path_1049995" data-name="Path 1049995" d="M12.011,18.776a.909.909,0,0,1-.689-.313l-1.872-2.15a.913.913,0,0,1,.09-1.289l2.149-1.867a.913.913,0,1,1,1.2,1.378L11.427,15.8l1.272,1.46a.913.913,0,0,1-.687,1.512Z" transform="translate(-9.226 -12.935)"/>
          </g>
          <g id="Group_1210264" data-name="Group 1210264" transform="translate(4.18)">
            <path id="Path_1049996" data-name="Path 1049996" d="M13.574,23.362a.913.913,0,0,1-.825-1.3l4.3-9.122a.912.912,0,1,1,1.651.778l-4.3,9.122a.912.912,0,0,1-.826.523Z" transform="translate(-12.662 -12.416)"/>
          </g>
        </g>
      </g>
    </g>
  </g>
</svg>
