<svg xmlns="http://www.w3.org/2000/svg" xmlns:xlink="http://www.w3.org/1999/xlink" width="108" height="108" viewBox="0 0 108 108">
  <defs>
    <filter id="Path_904820" x="0" y="0" width="108" height="108" filterUnits="userSpaceOnUse">
      <feOffset dy="3" input="SourceAlpha"/>
      <feGaussianBlur stdDeviation="3" result="blur"/>
      <feFlood flood-opacity="0.161"/>
      <feComposite operator="in" in2="blur"/>
      <feComposite in="SourceGraphic"/>
    </filter>
  </defs>
  <g id="Group_1210331" data-name="Group 1210331" transform="translate(-200 -3045)">
    <g id="Group_1210200" data-name="Group 1210200" transform="translate(209 3051)">
      <g id="Group_1173585" data-name="Group 1173585" transform="translate(0 0)">
        <g id="Group_1173428" data-name="Group 1173428">
          <g id="Group_1171958" data-name="Group 1171958">
            <g id="Group_1167341" data-name="Group 1167341">
              <g id="Group_1166792" data-name="Group 1166792">
                <g transform="matrix(1, 0, 0, 1, -9, -6)" filter="url(#Path_904820)">
                  <g id="Path_904820-2" data-name="Path 904820" transform="translate(9 6)" fill="#fef9e5">
                    <path d="M 44.99999618530273 88.50003051757812 C 39.12687301635742 88.50003051757812 33.43022155761719 87.35010528564453 28.06829643249512 85.08219146728516 C 22.88852119445801 82.89134216308594 18.23629570007324 79.75461578369141 14.24084663391113 75.75916290283203 C 10.24540901184082 71.76371765136719 7.108683586120605 67.11148834228516 4.917821407318115 61.93171691894531 C 2.649921178817749 56.56978988647461 1.499996185302734 50.87313842773438 1.499996185302734 45.00001525878906 C 1.499996185302734 39.12689208984375 2.649921178817749 33.43024063110352 4.917821407318115 28.06830215454102 C 7.108683586120605 22.88852691650391 10.24540901184082 18.23631477355957 14.24084663391113 14.24086570739746 C 18.23629570007324 10.24541568756104 22.88852119445801 7.10869026184082 28.06829643249512 4.917827606201172 C 33.43022155761719 2.649927854537964 39.12687301635742 1.50000274181366 44.99999618530273 1.50000274181366 C 50.87311935424805 1.50000274181366 56.56977081298828 2.649927854537964 61.93169784545898 4.917827606201172 C 67.11147308349609 7.10869026184082 71.76369476318359 10.24541568756104 75.75914764404297 14.24086570739746 C 79.75458526611328 18.23631477355957 82.89131164550781 22.88852691650391 85.08216857910156 28.06830215454102 C 87.35007476806641 33.43024063110352 88.5 39.12689208984375 88.5 45.00001525878906 C 88.5 50.87313842773438 87.35007476806641 56.56978988647461 85.08216857910156 61.93171691894531 C 82.89131164550781 67.11148834228516 79.75458526611328 71.76371765136719 75.75914764404297 75.75916290283203 C 71.76369476318359 79.75461578369141 67.11147308349609 82.89134216308594 61.93169784545898 85.08219146728516 C 56.56977081298828 87.35010528564453 50.87311935424805 88.50003051757812 44.99999618530273 88.50003051757812 Z" stroke="none"/>
                    <path d="M 44.99999618530273 3 C 39.32870864868164 3 33.82865142822266 4.110061645507812 28.65262603759766 6.299346923828125 C 23.65165710449219 8.414573669433594 19.15968322753906 11.44334411621094 15.301513671875 15.301513671875 C 11.44333648681641 19.15968322753906 8.414566040039062 23.65165710449219 6.299339294433594 28.65262985229492 C 4.110054016113281 33.82867050170898 2.999992370605469 39.32872772216797 2.999992370605469 45.00001525878906 C 2.999992370605469 50.67130279541016 4.110054016113281 56.17136001586914 6.299339294433594 61.34738922119141 C 8.414566040039062 66.34837341308594 11.44333648681641 70.84033203125 15.301513671875 74.69850158691406 C 19.15968322753906 78.55668640136719 23.65165710449219 81.58545684814453 28.65262603759766 83.70068359375 C 33.82865142822266 85.88996887207031 39.32870864868164 87.00003051757812 44.99999618530273 87.00003051757812 C 50.67128372192383 87.00003051757812 56.17134094238281 85.88996887207031 61.34736633300781 83.70068359375 C 66.34834289550781 81.58545684814453 70.84030914306641 78.55668640136719 74.69847869873047 74.69850158691406 C 78.55665588378906 70.84033203125 81.58542633056641 66.34837341308594 83.70065307617188 61.34738922119141 C 85.88993835449219 56.17136001586914 87 50.67130279541016 87 45.00001525878906 C 87 39.32872772216797 85.88993835449219 33.82867050170898 83.70065307617188 28.65262985229492 C 81.58542633056641 23.65165710449219 78.55665588378906 19.15968322753906 74.69847869873047 15.301513671875 C 70.84030914306641 11.44334411621094 66.34834289550781 8.414573669433594 61.34736633300781 6.299346923828125 C 56.17134094238281 4.110061645507812 50.67128372192383 3 44.99999618530273 3 M 44.99999618530273 0 C 69.85281372070312 0 90 20.14718627929688 90 45.00001525878906 C 90 69.85282897949219 69.85281372070312 90.00003051757812 44.99999618530273 90.00003051757812 C 20.14717864990234 90.00003051757812 -7.62939453125e-06 69.85282897949219 -7.62939453125e-06 45.00001525878906 C -7.62939453125e-06 20.14718627929688 20.14717864990234 0 44.99999618530273 0 Z" stroke="none" fill="#866d08"/>
                  </g>
                </g>
              </g>
            </g>
          </g>
        </g>
      </g>
      <g id="programmer_360487_3_" data-name="programmer_360487 (3)" transform="translate(17.157 17.074)">
        <g id="Group_1181509" data-name="Group 1181509" transform="translate(44.83 25.093)">
          <path id="Path_1043545" data-name="Path 1043545" d="M421.484,231.723v1.363H411.7v-1.363a1.437,1.437,0,0,1,1.437-1.437h6.91a1.437,1.437,0,0,1,1.437,1.437Z" transform="translate(-411.7 -230.286)" fill="#ecebed"/>
          <path id="Path_1043546" data-name="Path 1043546" d="M413.188,347.646h8.3v1.75a1.437,1.437,0,0,1-1.437,1.437h-6.91A1.437,1.437,0,0,1,411.7,349.4v-1.75Z" transform="translate(-411.699 -334.867)" fill="#ecebed"/>
        </g>
        <g id="Group_1181510" data-name="Group 1181510" transform="translate(1.143 24.114)">
          <rect id="Rectangle_417986" data-name="Rectangle 417986" width="9.784" height="9.979" transform="translate(43.687 3.78)" fill="#27b5f7"/>
          <path id="Path_1043547" data-name="Path 1043547" d="M37.442,222.831v17.452H10.5V222.831a1.5,1.5,0,0,1,1.469-1.539H35.974a1.5,1.5,0,0,1,1.469,1.539Z" transform="translate(-10.499 -221.292)" fill="#27b5f7"/>
        </g>
        <path id="Path_1043548" data-name="Path 1043548" d="M123.8,319.126v2.216a1.834,1.834,0,0,1-1.129,1.693l-7.322,3.051a4.493,4.493,0,0,0-2.554,4.072v8.83H143.98v-8.83a4.493,4.493,0,0,0-2.554-4.072l-7.322-3.051a1.834,1.834,0,0,1-1.129-1.693v-2.216Z" transform="translate(-100.516 -284.359)" fill="#febba0"/>
        <path id="Path_1043549" data-name="Path 1043549" d="M141.424,345.994l-7.322-3.051a1.833,1.833,0,0,1-1.115-1.477v1.4a4.615,4.615,0,0,1-4.6,4.6h0a4.615,4.615,0,0,1-4.6-4.6V341.5a1.834,1.834,0,0,1-1.112,1.448l-7.322,3.051a4.493,4.493,0,0,0-2.554,4.072v8.83h31.181v-8.83A4.493,4.493,0,0,0,141.424,345.994Z" transform="translate(-100.514 -304.267)" fill="#89cd37"/>
        <path id="Path_1043550" data-name="Path 1043550" d="M161.566,88.414V85.1a10.219,10.219,0,1,0-20.438,0h-.04v3.315a2.548,2.548,0,0,0,0,5.1v1.9a5,5,0,0,0,2.09,3.815l6.161,3.522a3.535,3.535,0,0,0,3.978,0l6.142-3.522a5.016,5.016,0,0,0,2.108-3.815v-1.9a2.548,2.548,0,1,0,0-5.1Z" transform="translate(-123.453 -66.709)" fill="#febba0"/>
        <path id="Path_1043551" data-name="Path 1043551" d="M165.685,34.833c-1.928-2.457-3.967-2.981-5.48-2.244a8.709,8.709,0,0,0-6-2.05,10.052,10.052,0,0,0-10.5,9.83,16.264,16.264,0,0,0,1.986,8.082s.74-5.192,5.823-5.192a8.475,8.475,0,0,0,6.875-3c.607,1.582,3.548,2.247,4.7,3.268a13.651,13.651,0,0,1,3.076,3.6S169.773,40.042,165.685,34.833Z" transform="translate(-128.059 -27.197)" fill="#703e41"/>
        <path id="Path_1043552" data-name="Path 1043552" d="M104.134,252.013h-.015a1.138,1.138,0,1,1,0-2.275h.015a1.138,1.138,0,1,1,0,2.275Z" transform="translate(-91.767 -222.527)"/>
        <path id="Path_1043553" data-name="Path 1043553" d="M43.752,252.013H40.506a1.138,1.138,0,1,1,0-2.275h3.246a1.138,1.138,0,1,1,0,2.275Z" transform="translate(-35.081 -222.527)"/>
        <path id="Path_1043554" data-name="Path 1043554" d="M49.7,312.959h-9.19a1.138,1.138,0,0,1,0-2.275H49.7a1.138,1.138,0,0,1,0,2.275Z" transform="translate(-35.081 -276.836)"/>
        <path id="Path_1043555" data-name="Path 1043555" d="M104.134,282.485h-.015a1.138,1.138,0,0,1,0-2.275h.015a1.138,1.138,0,0,1,0,2.275Z" transform="translate(-91.767 -249.681)"/>
        <path id="Path_1043556" data-name="Path 1043556" d="M43.752,282.486H40.506a1.138,1.138,0,0,1,0-2.275h3.246a1.138,1.138,0,0,1,0,2.275Z" transform="translate(-35.081 -249.682)"/>
        <path id="Path_1043557" data-name="Path 1043557" d="M134.643,282.486h-.106a1.138,1.138,0,1,1,0-2.275h.106a1.138,1.138,0,1,1,0,2.275Z" transform="translate(-118.873 -249.682)"/>
        <path id="Path_1043558" data-name="Path 1043558" d="M1.153,493.36H1.138a1.138,1.138,0,0,1,0-2.275h.015a1.138,1.138,0,0,1,0,2.275Z" transform="translate(0 -437.593)"/>
        <path id="Path_1043559" data-name="Path 1043559" d="M492.069,493.36h-.015a1.138,1.138,0,0,1,0-2.275h.015a1.138,1.138,0,1,1,0,2.275Z" transform="translate(-437.46 -437.593)"/>
        <path id="Path_1043560" data-name="Path 1043560" d="M283.67,214.668a1.272,1.272,0,1,1,1.272-1.272A1.273,1.273,0,0,1,283.67,214.668Z" transform="translate(-251.647 -189.01)"/>
        <path id="Path_1043561" data-name="Path 1043561" d="M207.465,214.668a1.272,1.272,0,1,1,1.272-1.272A1.273,1.273,0,0,1,207.465,214.668Z" transform="translate(-183.74 -189.01)"/>
        <path id="Path_1043562" data-name="Path 1043562" d="M237.609,264.737a2.252,2.252,0,0,1-2.249-2.25,1.138,1.138,0,0,1,1.138-1.138h2.223a1.138,1.138,0,0,1,1.138,1.138A2.252,2.252,0,0,1,237.609,264.737Z" transform="translate(-209.731 -232.874)"/>
        <path id="Path_1043563" data-name="Path 1043563" d="M192.7,418.677a1.134,1.134,0,0,1-.8-.333l-2.555-2.555a1.138,1.138,0,0,1,0-1.609l2.555-2.555a1.138,1.138,0,1,1,1.609,1.609l-1.751,1.751,1.751,1.751a1.138,1.138,0,0,1-.8,1.942Z" transform="translate(-168.426 -366.488)"/>
        <path id="Path_1043564" data-name="Path 1043564" d="M279.42,418.676a1.138,1.138,0,0,1-.8-1.942l1.751-1.751-1.751-1.751a1.138,1.138,0,1,1,1.609-1.609l2.555,2.555a1.138,1.138,0,0,1,0,1.609l-2.555,2.555A1.134,1.134,0,0,1,279.42,418.676Z" transform="translate(-247.98 -366.487)"/>
        <path id="Path_1043565" data-name="Path 1043565" d="M242.508,418.464a1.152,1.152,0,0,1-.207-.019,1.138,1.138,0,0,1-.913-1.325l.945-5.136a1.138,1.138,0,0,1,2.238.412l-.945,5.136A1.138,1.138,0,0,1,242.508,418.464Z" transform="translate(-215.086 -366.275)"/>
        <path id="Path_1043566" data-name="Path 1043566" d="M53.618,73.533A3.436,3.436,0,0,1,50.186,70.1V67.864a3.432,3.432,0,1,1,6.864,0V70.1A3.436,3.436,0,0,1,53.618,73.533Zm0-6.826a1.158,1.158,0,0,0-1.157,1.157V70.1a1.157,1.157,0,1,0,2.313,0V67.864A1.158,1.158,0,0,0,53.618,66.707Z" transform="translate(-44.721 -57.399)"/>
        <path id="Path_1043567" data-name="Path 1043567" d="M3.5,73.534A1.138,1.138,0,0,1,2.362,72.4V68.317l-.369.369A1.138,1.138,0,0,1,.383,67.077l2.312-2.312a1.138,1.138,0,0,1,1.942.8V72.4A1.138,1.138,0,0,1,3.5,73.534Z" transform="translate(-0.045 -57.399)"/>
        <path id="Path_1043568" data-name="Path 1043568" d="M402.768,9.12a3.436,3.436,0,0,1-3.432-3.432V3.451a3.432,3.432,0,0,1,6.864,0V5.689A3.436,3.436,0,0,1,402.768,9.12Zm0-6.826a1.158,1.158,0,0,0-1.157,1.157V5.689a1.157,1.157,0,1,0,2.313,0V3.451A1.158,1.158,0,0,0,402.768,2.294Z" transform="translate(-355.852 0)"/>
        <path id="Path_1043569" data-name="Path 1043569" d="M473.323,9.12a1.138,1.138,0,0,1-1.138-1.138V3.9l-.369.37a1.138,1.138,0,1,1-1.609-1.609L472.519.352a1.138,1.138,0,0,1,1.942.8V7.983A1.137,1.137,0,0,1,473.323,9.12Z" transform="translate(-418.709 0)"/>
        <path id="Path_1043570" data-name="Path 1043570" d="M410.736,219.838h-6.91a2.578,2.578,0,0,0-2.575,2.575v13.092a2.578,2.578,0,0,0,2.575,2.575h6.91a2.578,2.578,0,0,0,2.575-2.575V222.413A2.578,2.578,0,0,0,410.736,219.838Zm-7.209,5.076h7.509v7.7h-7.509Zm0-2.5a.3.3,0,0,1,.3-.3h6.91a.3.3,0,0,1,.3.3v.226h-7.509v-.226Zm7.509,13.092a.3.3,0,0,1-.3.3h-6.91a.3.3,0,0,1-.3-.3v-.613h7.509v.613Z" transform="translate(-357.558 -195.883)"/>
        <path id="Path_1043571" data-name="Path 1043571" d="M50.959,71.377H44.647V63.685a5.606,5.606,0,0,0-3.255-5.122l-7.322-3.051a.694.694,0,0,1-.42-.535c0-.005,0-.011,0-.016a.685.685,0,0,1-.007-.091V53.1l2.974-1.705.061-.038a6.144,6.144,0,0,0,2.616-4.678c0-.029,0-.058,0-.087v-.945a3.687,3.687,0,0,0,0-7.013v-.565c.649-1.412,3.344-8.058-.729-13.248-1.882-2.4-4.14-3.418-6.173-2.834a10.056,10.056,0,0,0-6.2-1.9A11.189,11.189,0,0,0,14.556,31.058,18.375,18.375,0,0,0,16.2,38.764a3.706,3.706,0,0,0-1.974,2.1H2.657A2.645,2.645,0,0,0,.051,43.538V60.99a1.138,1.138,0,0,0,1.138,1.138H7.6v2.309H6.763a1.138,1.138,0,1,0,0,2.275h4.427v4.665H4.879a1.138,1.138,0,0,0,0,2.275h46.08a1.138,1.138,0,1,0,0-2.275ZM39.569,42.139a1.412,1.412,0,0,1-1.411,1.411,1.138,1.138,0,0,0-1.138,1.138v1.857a3.916,3.916,0,0,1-1.57,2.894l-6.108,3.5-.061.038a2.407,2.407,0,0,1-2.724,0c-.02-.014-.041-.026-.062-.038l-6.126-3.5a3.856,3.856,0,0,1-1.551-2.893V44.687a1.138,1.138,0,0,0-1.138-1.138,1.41,1.41,0,0,1-.231-2.8l1.26.637a4.719,4.719,0,0,0,9.209,2.069A4.719,4.719,0,0,0,37.129,41.4l1.263-.65A1.412,1.412,0,0,1,39.569,42.139ZM31.367,54.4v2.079a3.448,3.448,0,1,1-6.9,0V54.4l.864.494a4.679,4.679,0,0,0,5.167,0Zm1.152-16.715a4.727,4.727,0,0,0-4.6,3.672,4.716,4.716,0,0,0-8.193-2.009l-.838-.424a4.712,4.712,0,0,1,4.617-3.84,9.726,9.726,0,0,0,6.766-2.41,10.858,10.858,0,0,0,2.485,1.5,8.307,8.307,0,0,1,1.574.892,14.222,14.222,0,0,1,2.693,3.055V38.9l-.9.464A4.71,4.71,0,0,0,32.518,37.687Zm2.445,4.72a2.444,2.444,0,1,1-2.444-2.444A2.447,2.447,0,0,1,34.963,42.407Zm-9.2,0a2.444,2.444,0,1,1-2.444-2.444A2.447,2.447,0,0,1,25.761,42.407Zm.429-20.041a7.533,7.533,0,0,1,5.262,1.777,1.138,1.138,0,0,0,1.237.158c1.168-.569,2.7.15,4.087,1.923h0c2.39,3.045,1.767,6.929,1.079,9.2a19.312,19.312,0,0,0-2.021-2.061,9.368,9.368,0,0,0-2.084-1.233c-.932-.454-2.091-1.018-2.31-1.59a1.138,1.138,0,0,0-1.923-.336A7.391,7.391,0,0,1,23.5,32.81a6.517,6.517,0,0,0-5.779,3.126c-.04.063-.078.126-.116.189a16.691,16.691,0,0,1-.776-5.067C16.832,26.785,20.332,22.366,26.19,22.366Zm-15,41.319v.753H9.878V62.128h1.533A5.685,5.685,0,0,0,11.19,63.685Zm1.469-3.832H2.326V43.538a.376.376,0,0,1,.331-.4H14.134a3.7,3.7,0,0,0,2.408,2.508v.945c0,.029,0,.058,0,.087a6.137,6.137,0,0,0,2.6,4.678l.062.038L22.2,53.1v1.766a.7.7,0,0,1-.429.643l-7.322,3.051A4.989,4.989,0,0,0,12.659,59.852ZM42.372,71.377H13.466V63.685a3.373,3.373,0,0,1,1.854-3.022l7-2.917a5.737,5.737,0,0,0,11.193,0l7,2.918a3.372,3.372,0,0,1,1.854,3.022v7.692Z" transform="translate(-0.045 -17.885)"/>
      </g>
    </g>
  </g>
</svg>
