<svg xmlns="http://www.w3.org/2000/svg" xmlns:xlink="http://www.w3.org/1999/xlink" width="113" height="113" viewBox="0 0 113 113">
  <defs>
    <filter id="Path_982547" x="0" y="0" width="113" height="113" filterUnits="userSpaceOnUse">
      <feOffset dy="3" input="SourceAlpha"/>
      <feGaussianBlur stdDeviation="3" result="blur"/>
      <feFlood flood-opacity="0.161"/>
      <feComposite operator="in" in2="blur"/>
      <feComposite in="SourceGraphic"/>
    </filter>
  </defs>
  <g id="Group_1210344" data-name="Group 1210344" transform="translate(-1217.088 -7812.479)">
    <g id="Group_1210284" data-name="Group 1210284">
      <g id="Group_1210205" data-name="Group 1210205" transform="translate(0 1380.707)">
        <g id="Group_1202606" data-name="Group 1202606" transform="translate(946.088 5561.358)">
          <g id="Group_1174813" data-name="Group 1174813" transform="translate(280 876.414)">
            <g id="Group_1201680" data-name="Group 1201680">
              <g id="Group_1201330" data-name="Group 1201330">
                <g id="Group_1172010" data-name="Group 1172010">
                  <g id="Group_1171046" data-name="Group 1171046">
                    <g id="Group_1148525" data-name="Group 1148525">
                      <g transform="matrix(1, 0, 0, 1, -9, -6)" filter="url(#Path_982547)">
                        <g id="Path_982547-2" data-name="Path 982547" transform="translate(9 6)" fill="#f6ecfe">
                          <path d="M 47.5 93.5 C 41.28937149047852 93.5 35.26533508300781 92.28397369384766 29.59518623352051 89.88570404052734 C 24.11771965026855 87.56893157958984 19.19813346862793 84.25196075439453 14.97309303283691 80.02691650390625 C 10.74804019927979 75.80186462402344 7.431066513061523 70.88229370117188 5.114293098449707 65.40481567382812 C 2.716026782989502 59.73468017578125 1.5 53.71062850952148 1.5 47.5 C 1.5 41.28937149047852 2.716026782989502 35.26533508300781 5.114293098449707 29.59518623352051 C 7.431066513061523 24.11771965026855 10.74804019927979 19.19813346862793 14.97309303283691 14.97309303283691 C 19.19813346862793 10.74804019927979 24.11771965026855 7.431066513061523 29.59518623352051 5.114293098449707 C 35.26533508300781 2.716026782989502 41.28937149047852 1.5 47.5 1.5 C 53.71062850952148 1.5 59.73468017578125 2.716026782989502 65.40481567382812 5.114293098449707 C 70.88229370117188 7.431066513061523 75.80186462402344 10.74804019927979 80.02691650390625 14.97309303283691 C 84.25196075439453 19.19813346862793 87.56893157958984 24.11771965026855 89.88570404052734 29.59518623352051 C 92.28397369384766 35.26533508300781 93.5 41.28937149047852 93.5 47.5 C 93.5 53.71062850952148 92.28397369384766 59.73468017578125 89.88570404052734 65.40481567382812 C 87.56893157958984 70.88229370117188 84.25196075439453 75.80186462402344 80.02691650390625 80.02691650390625 C 75.80186462402344 84.25196075439453 70.88229370117188 87.56893157958984 65.40481567382812 89.88570404052734 C 59.73468017578125 92.28397369384766 53.71062850952148 93.5 47.5 93.5 Z" stroke="none"/>
                          <path d="M 47.5 3 C 41.49121475219727 3 35.66376876831055 4.176155090332031 30.17950439453125 6.495796203613281 C 24.88084411621094 8.736953735351562 20.12152099609375 11.94598388671875 16.03375244140625 16.03375244140625 C 11.94598388671875 20.12152099609375 8.736953735351562 24.88084411621094 6.495796203613281 30.17950439453125 C 4.176155090332031 35.66376876831055 3 41.49121475219727 3 47.5 C 3 53.50878524780273 4.176155090332031 59.33623123168945 6.495796203613281 64.82049560546875 C 8.736953735351562 70.11915588378906 11.94598388671875 74.87847900390625 16.03375244140625 78.96624755859375 C 20.12152099609375 83.05401611328125 24.88084411621094 86.26304626464844 30.17950439453125 88.50419616699219 C 35.66376876831055 90.82384490966797 41.49121475219727 92 47.5 92 C 53.50878524780273 92 59.33623123168945 90.82384490966797 64.82049560546875 88.50419616699219 C 70.11915588378906 86.26304626464844 74.87847900390625 83.05401611328125 78.96624755859375 78.96624755859375 C 83.05401611328125 74.87847900390625 86.26304626464844 70.11915588378906 88.50419616699219 64.82049560546875 C 90.82384490966797 59.33623123168945 92 53.50878524780273 92 47.5 C 92 41.49121475219727 90.82384490966797 35.66376876831055 88.50419616699219 30.17950439453125 C 86.26304626464844 24.88084411621094 83.05401611328125 20.12152099609375 78.96624755859375 16.03375244140625 C 74.87847900390625 11.94598388671875 70.11915588378906 8.736953735351562 64.82049560546875 6.495796203613281 C 59.33623123168945 4.176155090332031 53.50878524780273 3 47.5 3 M 47.5 0 C 73.7335205078125 0 95 21.2664794921875 95 47.5 C 95 73.7335205078125 73.7335205078125 95 47.5 95 C 21.2664794921875 95 0 73.7335205078125 0 47.5 C 0 21.2664794921875 21.2664794921875 0 47.5 0 Z" stroke="none" fill="#aa52f9"/>
                        </g>
                      </g>
                    </g>
                  </g>
                </g>
              </g>
            </g>
          </g>
        </g>
      </g>
      <g id="Fill_Outlines" data-name="Fill Outlines" transform="translate(1242 7835)">
        <g id="Color">
          <g id="Group_1210282" data-name="Group 1210282">
            <path id="Path_1050064" data-name="Path 1050064" d="M3,7H33V45H7a4,4,0,0,1-4-4Z" fill="#c4f236"/>
            <path id="Path_1050065" data-name="Path 1050065" d="M24,37A16,16,0,0,1,8,21V7H3V41a4,4,0,0,0,4,4H33V37Z" fill="#a1d51c"/>
            <circle id="Ellipse_12670" data-name="Ellipse 12670" cx="9" cy="9" r="9" transform="translate(43 5)" fill="#57b7eb"/>
            <path id="Path_1050066" data-name="Path 1050066" d="M57,18A8.99,8.99,0,0,1,48.651,5.651a9,9,0,1,0,11.7,11.7A8.963,8.963,0,0,1,57,18Z" fill="#4891d3"/>
            <path id="Path_1050067" data-name="Path 1050067" d="M7,3H33v8H7A4,4,0,1,1,7,3Z" fill="#d0d8da"/>
            <path id="Path_1050068" data-name="Path 1050068" d="M50,17V11l6,3Z" fill="#f9e109"/>
            <circle id="Ellipse_12671" data-name="Ellipse 12671" cx="2" cy="2" r="2" transform="translate(57 18)" fill="#fcbc04"/>
            <circle id="Ellipse_12672" data-name="Ellipse 12672" cx="2" cy="2" r="2" transform="translate(8 32)" fill="#fcbc04"/>
            <circle id="Ellipse_12673" data-name="Ellipse 12673" cx="2" cy="2" r="2" transform="translate(16 37)" fill="#fcbc04"/>
            <path id="Path_1050069" data-name="Path 1050069" d="M41,57V53H37v4H33v4H45V57Z" fill="#fcbc04"/>
            <g id="Group_1210280" data-name="Group 1210280">
              <path id="Path_1050070" data-name="Path 1050070" d="M25,45H53v8H25Z" fill="#d0d8da"/>
              <path id="Path_1050071" data-name="Path 1050071" d="M25,37H53v8H25Z" fill="#d0d8da"/>
              <path id="Path_1050072" data-name="Path 1050072" d="M29,37H25v8H53V41H33A4,4,0,0,1,29,37Z" fill="#93999a"/>
              <path id="Path_1050073" data-name="Path 1050073" d="M29,45H25v8H53V49H33A4,4,0,0,1,29,45Z" fill="#93999a"/>
              <path id="Path_1050074" data-name="Path 1050074" d="M25,29H53v8H25Z" fill="#d0d8da"/>
              <path id="Path_1050075" data-name="Path 1050075" d="M29,29H25v8H53V33H33A4,4,0,0,1,29,29Z" fill="#93999a"/>
            </g>
            <g id="Group_1210281" data-name="Group 1210281">
              <path id="Path_1050076" data-name="Path 1050076" d="M41,57V53H39v4a2,2,0,0,0,2,2h4V57Z" fill="#f9e109"/>
              <path id="Path_1050077" data-name="Path 1050077" d="M59,18a2,2,0,0,0-1.82,1.18,1.992,1.992,0,0,1,2.64,2.64A2,2,0,0,0,59,18Z" fill="#f9e109"/>
              <path id="Path_1050078" data-name="Path 1050078" d="M18,37a2,2,0,0,0-1.82,1.18,1.992,1.992,0,0,1,2.64,2.64A2,2,0,0,0,18,37Z" fill="#f9e109"/>
              <path id="Path_1050079" data-name="Path 1050079" d="M10,32a2,2,0,0,0-1.82,1.18,1.992,1.992,0,0,1,2.64,2.64A2,2,0,0,0,10,32Z" fill="#f9e109"/>
            </g>
            <path id="Path_1050080" data-name="Path 1050080" d="M50,14.651V17l1.61-.8A9.022,9.022,0,0,1,50,14.651Z" fill="#fcbc04"/>
            <path id="Path_1050081" data-name="Path 1050081" d="M7,5H33V9H7A2,2,0,1,1,7,5Z" fill="#93999a"/>
          </g>
        </g>
        <g id="Outlines_copy" data-name="Outlines copy">
          <g id="Group_1210283" data-name="Group 1210283">
            <path id="Path_1050082" data-name="Path 1050082" d="M24,25a7,7,0,1,0-7,7h4a1,1,0,0,0,0-2H17a5.008,5.008,0,0,1-4.9-4H23A1,1,0,0,0,24,25ZM12.1,24a5,5,0,0,1,9.8,0Z"/>
            <path id="Path_1050083" data-name="Path 1050083" d="M7,6A1,1,0,0,0,7,8h6a1,1,0,0,0,0-2Z"/>
            <path id="Path_1050084" data-name="Path 1050084" d="M57,14a1,1,0,0,0-.553-.9l-6-3A1,1,0,0,0,49,11v6a1,1,0,0,0,1.447.9l6-3A1,1,0,0,0,57,14Zm-6,1.382V12.618L53.764,14Z"/>
            <path id="Path_1050085" data-name="Path 1050085" d="M62,14A10,10,0,1,0,52,24a9.885,9.885,0,0,0,5.3-1.532,2.964,2.964,0,0,0,.7.348V57.992l-12-.1V57a1,1,0,0,0-1-1H42V54H53a1,1,0,0,0,1-1V29a1,1,0,0,0-1-1H45a1,1,0,0,0,0,2h7v6H26V30H42a1,1,0,0,0,0-2H25a1,1,0,0,0-1,1V53a1,1,0,0,0,1,1h4a1,1,0,0,0,0-2H26V46H52v6H33a1,1,0,0,0,0,2h3v2H33a1,1,0,0,0-1,1v1H19V46h2a1,1,0,0,0,0-2H19V41.816a3,3,0,1,0-2,0V44H11V36.816a3,3,0,1,0-2,0V44H7a3,3,0,0,1-3-3V10.974A4.948,4.948,0,0,0,7,12H32V25a1,1,0,0,0,2,0V3a1,1,0,0,0-1-1H22a1,1,0,0,0,0,2H32V6H18a1,1,0,0,0,0,2H32v2H7A3,3,0,0,1,7,4H18a1,1,0,0,0,0-2H7A5.006,5.006,0,0,0,2,7V41a5.006,5.006,0,0,0,5,5H9v4a1,1,0,0,0,1,1h7v8a1,1,0,0,0,1,1H32v1a1,1,0,0,0,1,1H45a1,1,0,0,0,1-1V59.893L58.992,60H59a1,1,0,0,0,1-1V22.816a2.979,2.979,0,0,0,1.172-4.874A10.007,10.007,0,0,0,62,14ZM26,44V38H52v6Zm-8-6a1,1,0,1,1-1,1A1,1,0,0,1,18,38Zm-8-5a1,1,0,1,1-1,1A1,1,0,0,1,10,33Zm1,13h6v3H11ZM44,60H34V58h3a1,1,0,0,0,1-1V54h2v3a1,1,0,0,0,1,1h3Zm0-46a8,8,0,0,1,16,0,7.907,7.907,0,0,1-.608,3.039A2.829,2.829,0,0,0,59,17a2.958,2.958,0,0,0-2.873,3.816A7.891,7.891,0,0,1,52,22a8.009,8.009,0,0,1-8-8Zm15,7a1,1,0,1,1,1-1A1,1,0,0,1,59,21Z"/>
            <circle id="Ellipse_12674" data-name="Ellipse 12674" cx="1" cy="1" r="1" transform="translate(39 48)"/>
            <circle id="Ellipse_12675" data-name="Ellipse 12675" cx="1" cy="1" r="1" transform="translate(43 48)"/>
            <circle id="Ellipse_12676" data-name="Ellipse 12676" cx="1" cy="1" r="1" transform="translate(47 48)"/>
            <path id="Path_1050086" data-name="Path 1050086" d="M36,49a1,1,0,0,0-1-1H29a1,1,0,0,0,0,2h6A1,1,0,0,0,36,49Z"/>
            <circle id="Ellipse_12677" data-name="Ellipse 12677" cx="1" cy="1" r="1" transform="translate(39 40)"/>
            <circle id="Ellipse_12678" data-name="Ellipse 12678" cx="1" cy="1" r="1" transform="translate(43 40)"/>
            <circle id="Ellipse_12679" data-name="Ellipse 12679" cx="1" cy="1" r="1" transform="translate(47 40)"/>
            <path id="Path_1050087" data-name="Path 1050087" d="M35,40H29a1,1,0,0,0,0,2h6a1,1,0,0,0,0-2Z"/>
            <circle id="Ellipse_12680" data-name="Ellipse 12680" cx="1" cy="1" r="1" transform="translate(39 32)"/>
            <circle id="Ellipse_12681" data-name="Ellipse 12681" cx="1" cy="1" r="1" transform="translate(43 32)"/>
            <circle id="Ellipse_12682" data-name="Ellipse 12682" cx="1" cy="1" r="1" transform="translate(47 32)"/>
            <path id="Path_1050088" data-name="Path 1050088" d="M29,32a1,1,0,0,0,0,2h6a1,1,0,0,0,0-2Z"/>
          </g>
        </g>
      </g>
    </g>
  </g>
</svg>
