<svg xmlns="http://www.w3.org/2000/svg" xmlns:xlink="http://www.w3.org/1999/xlink" width="66" height="66" viewBox="0 0 66 66">
  <defs>
    <filter id="Rectangle_401338" x="0" y="0" width="66" height="66" filterUnits="userSpaceOnUse">
      <feOffset dy="3" input="SourceAlpha"/>
      <feGaussianBlur stdDeviation="3" result="blur"/>
      <feFlood flood-opacity="0.161"/>
      <feComposite operator="in" in2="blur"/>
      <feComposite in="SourceGraphic"/>
    </filter>
  </defs>
  <g id="Group_1210352" data-name="Group 1210352" transform="translate(9 6)">
    <g id="Icono_Cuadrado">
      <g transform="matrix(1, 0, 0, 1, -9, -6)" filter="url(#Rectangle_401338)">
        <rect id="Rectangle_401338-2" data-name="Rectangle 401338" width="48" height="48" transform="translate(9 6)" fill="#fcdfdb"/>
      </g>
      <g id="Group_1143666" data-name="Group 1143666" transform="translate(9 10)">
        <path id="Path_978620" data-name="Path 978620" d="M28.351,7.96a3.4,3.4,0,0,0-2.373-2.447C23.873,5,15.457,5,15.457,5s-8.416,0-10.52.563A3.4,3.4,0,0,0,2.563,8.009,35.476,35.476,0,0,0,2,14.481,35.475,35.475,0,0,0,2.563,21,3.4,3.4,0,0,0,4.937,23.35c2.1.563,10.52.563,10.52.563s8.416,0,10.52-.563A3.4,3.4,0,0,0,28.351,20.9a35.477,35.477,0,0,0,.563-6.422A35.473,35.473,0,0,0,28.351,7.96Z" fill="none" stroke="#f15642" stroke-linecap="round" stroke-linejoin="round" stroke-width="2"/>
        <path id="Path_978621" data-name="Path 978621" d="M9.75,9.828c0-.642,0-.963.134-1.143a.673.673,0,0,1,.491-.268c.223-.016.493.158,1.034.505l5.306,3.411c.469.3.7.452.784.644a.674.674,0,0,1,0,.524c-.081.192-.315.342-.784.644l-5.306,3.411c-.54.347-.81.521-1.034.505a.673.673,0,0,1-.491-.268c-.134-.179-.134-.5-.134-1.143Z" transform="translate(2.679 1.181)" fill="none" stroke="#f15642" stroke-linecap="round" stroke-linejoin="round" stroke-width="2"/>
      </g>
    </g>
  </g>
</svg>
